<?xml version="1.0" encoding="utf-8" standalone="no"?>
<!DOCTYPE svg PUBLIC "-//W3C//DTD SVG 1.1//EN"
  "http://www.w3.org/Graphics/SVG/1.1/DTD/svg11.dtd">
<svg xmlns:xlink="http://www.w3.org/1999/xlink" width="460.8pt" height="345.6pt" viewBox="0 0 460.8 345.6" xmlns="http://www.w3.org/2000/svg" version="1.1">
 <metadata>
  <rdf:RDF xmlns:dc="http://purl.org/dc/elements/1.1/" xmlns:cc="http://creativecommons.org/ns#" xmlns:rdf="http://www.w3.org/1999/02/22-rdf-syntax-ns#">
   <cc:Work>
    <dc:type rdf:resource="http://purl.org/dc/dcmitype/StillImage"/>
    <dc:date>2024-01-22T15:24:58.159232</dc:date>
    <dc:format>image/svg+xml</dc:format>
    <dc:creator>
     <cc:Agent>
      <dc:title>Matplotlib v3.5.3, https://matplotlib.org/</dc:title>
     </cc:Agent>
    </dc:creator>
   </cc:Work>
  </rdf:RDF>
 </metadata>
 <defs>
  <style type="text/css">*{stroke-linejoin: round; stroke-linecap: butt}</style>
 </defs>
 <g id="figure_1">
  <g id="patch_1">
   <path d="M 0 345.6 
L 460.8 345.6 
L 460.8 0 
L 0 0 
z
" style="fill: #ffffff"/>
  </g>
  <g id="axes_1">
   <g id="patch_2">
    <path d="M 57.6 307.584 
L 414.72 307.584 
L 414.72 41.472 
L 57.6 41.472 
z
" style="fill: #ffffff"/>
   </g>
   <g id="matplotlib.axis_1">
    <g id="xtick_1">
     <g id="line2d_1">
      <path d="M 73.832727 307.584 
L 73.832727 41.472 
" clip-path="url(#p6cd8c9def3)" style="fill: none; stroke: #b0b0b0; stroke-width: 0.8; stroke-linecap: square"/>
     </g>
     <g id="line2d_2">
      <defs>
       <path id="m7ee5eb9907" d="M 0 0 
L 0 3.5 
" style="stroke: #000000; stroke-width: 0.8"/>
      </defs>
      <g>
       <use xlink:href="#m7ee5eb9907" x="73.832727" y="307.584" style="stroke: #000000; stroke-width: 0.8"/>
      </g>
     </g>
     <g id="text_1">
      <!-- 0 -->
      <g transform="translate(70.651477 322.182437)scale(0.1 -0.1)">
       <defs>
        <path id="DejaVuSans-30" d="M 2034 4250 
Q 1547 4250 1301 3770 
Q 1056 3291 1056 2328 
Q 1056 1369 1301 889 
Q 1547 409 2034 409 
Q 2525 409 2770 889 
Q 3016 1369 3016 2328 
Q 3016 3291 2770 3770 
Q 2525 4250 2034 4250 
z
M 2034 4750 
Q 2819 4750 3233 4129 
Q 3647 3509 3647 2328 
Q 3647 1150 3233 529 
Q 2819 -91 2034 -91 
Q 1250 -91 836 529 
Q 422 1150 422 2328 
Q 422 3509 836 4129 
Q 1250 4750 2034 4750 
z
" transform="scale(0.015625)"/>
       </defs>
       <use xlink:href="#DejaVuSans-30"/>
      </g>
     </g>
    </g>
    <g id="xtick_2">
     <g id="line2d_3">
      <path d="M 128.122785 307.584 
L 128.122785 41.472 
" clip-path="url(#p6cd8c9def3)" style="fill: none; stroke: #b0b0b0; stroke-width: 0.8; stroke-linecap: square"/>
     </g>
     <g id="line2d_4">
      <g>
       <use xlink:href="#m7ee5eb9907" x="128.122785" y="307.584" style="stroke: #000000; stroke-width: 0.8"/>
      </g>
     </g>
     <g id="text_2">
      <!-- 50 -->
      <g transform="translate(121.760285 322.182437)scale(0.1 -0.1)">
       <defs>
        <path id="DejaVuSans-35" d="M 691 4666 
L 3169 4666 
L 3169 4134 
L 1269 4134 
L 1269 2991 
Q 1406 3038 1543 3061 
Q 1681 3084 1819 3084 
Q 2600 3084 3056 2656 
Q 3513 2228 3513 1497 
Q 3513 744 3044 326 
Q 2575 -91 1722 -91 
Q 1428 -91 1123 -41 
Q 819 9 494 109 
L 494 744 
Q 775 591 1075 516 
Q 1375 441 1709 441 
Q 2250 441 2565 725 
Q 2881 1009 2881 1497 
Q 2881 1984 2565 2268 
Q 2250 2553 1709 2553 
Q 1456 2553 1204 2497 
Q 953 2441 691 2322 
L 691 4666 
z
" transform="scale(0.015625)"/>
       </defs>
       <use xlink:href="#DejaVuSans-35"/>
       <use xlink:href="#DejaVuSans-30" x="63.623047"/>
      </g>
     </g>
    </g>
    <g id="xtick_3">
     <g id="line2d_5">
      <path d="M 182.412843 307.584 
L 182.412843 41.472 
" clip-path="url(#p6cd8c9def3)" style="fill: none; stroke: #b0b0b0; stroke-width: 0.8; stroke-linecap: square"/>
     </g>
     <g id="line2d_6">
      <g>
       <use xlink:href="#m7ee5eb9907" x="182.412843" y="307.584" style="stroke: #000000; stroke-width: 0.8"/>
      </g>
     </g>
     <g id="text_3">
      <!-- 100 -->
      <g transform="translate(172.869093 322.182437)scale(0.1 -0.1)">
       <defs>
        <path id="DejaVuSans-31" d="M 794 531 
L 1825 531 
L 1825 4091 
L 703 3866 
L 703 4441 
L 1819 4666 
L 2450 4666 
L 2450 531 
L 3481 531 
L 3481 0 
L 794 0 
L 794 531 
z
" transform="scale(0.015625)"/>
       </defs>
       <use xlink:href="#DejaVuSans-31"/>
       <use xlink:href="#DejaVuSans-30" x="63.623047"/>
       <use xlink:href="#DejaVuSans-30" x="127.246094"/>
      </g>
     </g>
    </g>
    <g id="xtick_4">
     <g id="line2d_7">
      <path d="M 236.702901 307.584 
L 236.702901 41.472 
" clip-path="url(#p6cd8c9def3)" style="fill: none; stroke: #b0b0b0; stroke-width: 0.8; stroke-linecap: square"/>
     </g>
     <g id="line2d_8">
      <g>
       <use xlink:href="#m7ee5eb9907" x="236.702901" y="307.584" style="stroke: #000000; stroke-width: 0.8"/>
      </g>
     </g>
     <g id="text_4">
      <!-- 150 -->
      <g transform="translate(227.159151 322.182437)scale(0.1 -0.1)">
       <use xlink:href="#DejaVuSans-31"/>
       <use xlink:href="#DejaVuSans-35" x="63.623047"/>
       <use xlink:href="#DejaVuSans-30" x="127.246094"/>
      </g>
     </g>
    </g>
    <g id="xtick_5">
     <g id="line2d_9">
      <path d="M 290.992958 307.584 
L 290.992958 41.472 
" clip-path="url(#p6cd8c9def3)" style="fill: none; stroke: #b0b0b0; stroke-width: 0.8; stroke-linecap: square"/>
     </g>
     <g id="line2d_10">
      <g>
       <use xlink:href="#m7ee5eb9907" x="290.992958" y="307.584" style="stroke: #000000; stroke-width: 0.8"/>
      </g>
     </g>
     <g id="text_5">
      <!-- 200 -->
      <g transform="translate(281.449208 322.182437)scale(0.1 -0.1)">
       <defs>
        <path id="DejaVuSans-32" d="M 1228 531 
L 3431 531 
L 3431 0 
L 469 0 
L 469 531 
Q 828 903 1448 1529 
Q 2069 2156 2228 2338 
Q 2531 2678 2651 2914 
Q 2772 3150 2772 3378 
Q 2772 3750 2511 3984 
Q 2250 4219 1831 4219 
Q 1534 4219 1204 4116 
Q 875 4013 500 3803 
L 500 4441 
Q 881 4594 1212 4672 
Q 1544 4750 1819 4750 
Q 2544 4750 2975 4387 
Q 3406 4025 3406 3419 
Q 3406 3131 3298 2873 
Q 3191 2616 2906 2266 
Q 2828 2175 2409 1742 
Q 1991 1309 1228 531 
z
" transform="scale(0.015625)"/>
       </defs>
       <use xlink:href="#DejaVuSans-32"/>
       <use xlink:href="#DejaVuSans-30" x="63.623047"/>
       <use xlink:href="#DejaVuSans-30" x="127.246094"/>
      </g>
     </g>
    </g>
    <g id="xtick_6">
     <g id="line2d_11">
      <path d="M 345.283016 307.584 
L 345.283016 41.472 
" clip-path="url(#p6cd8c9def3)" style="fill: none; stroke: #b0b0b0; stroke-width: 0.8; stroke-linecap: square"/>
     </g>
     <g id="line2d_12">
      <g>
       <use xlink:href="#m7ee5eb9907" x="345.283016" y="307.584" style="stroke: #000000; stroke-width: 0.8"/>
      </g>
     </g>
     <g id="text_6">
      <!-- 250 -->
      <g transform="translate(335.739266 322.182437)scale(0.1 -0.1)">
       <use xlink:href="#DejaVuSans-32"/>
       <use xlink:href="#DejaVuSans-35" x="63.623047"/>
       <use xlink:href="#DejaVuSans-30" x="127.246094"/>
      </g>
     </g>
    </g>
    <g id="xtick_7">
     <g id="line2d_13">
      <path d="M 399.573074 307.584 
L 399.573074 41.472 
" clip-path="url(#p6cd8c9def3)" style="fill: none; stroke: #b0b0b0; stroke-width: 0.8; stroke-linecap: square"/>
     </g>
     <g id="line2d_14">
      <g>
       <use xlink:href="#m7ee5eb9907" x="399.573074" y="307.584" style="stroke: #000000; stroke-width: 0.8"/>
      </g>
     </g>
     <g id="text_7">
      <!-- 300 -->
      <g transform="translate(390.029324 322.182437)scale(0.1 -0.1)">
       <defs>
        <path id="DejaVuSans-33" d="M 2597 2516 
Q 3050 2419 3304 2112 
Q 3559 1806 3559 1356 
Q 3559 666 3084 287 
Q 2609 -91 1734 -91 
Q 1441 -91 1130 -33 
Q 819 25 488 141 
L 488 750 
Q 750 597 1062 519 
Q 1375 441 1716 441 
Q 2309 441 2620 675 
Q 2931 909 2931 1356 
Q 2931 1769 2642 2001 
Q 2353 2234 1838 2234 
L 1294 2234 
L 1294 2753 
L 1863 2753 
Q 2328 2753 2575 2939 
Q 2822 3125 2822 3475 
Q 2822 3834 2567 4026 
Q 2313 4219 1838 4219 
Q 1578 4219 1281 4162 
Q 984 4106 628 3988 
L 628 4550 
Q 988 4650 1302 4700 
Q 1616 4750 1894 4750 
Q 2613 4750 3031 4423 
Q 3450 4097 3450 3541 
Q 3450 3153 3228 2886 
Q 3006 2619 2597 2516 
z
" transform="scale(0.015625)"/>
       </defs>
       <use xlink:href="#DejaVuSans-33"/>
       <use xlink:href="#DejaVuSans-30" x="63.623047"/>
       <use xlink:href="#DejaVuSans-30" x="127.246094"/>
      </g>
     </g>
    </g>
    <g id="text_8">
     <!-- Generations -->
     <g transform="translate(205.662344 335.860562)scale(0.1 -0.1)">
      <defs>
       <path id="DejaVuSans-47" d="M 3809 666 
L 3809 1919 
L 2778 1919 
L 2778 2438 
L 4434 2438 
L 4434 434 
Q 4069 175 3628 42 
Q 3188 -91 2688 -91 
Q 1594 -91 976 548 
Q 359 1188 359 2328 
Q 359 3472 976 4111 
Q 1594 4750 2688 4750 
Q 3144 4750 3555 4637 
Q 3966 4525 4313 4306 
L 4313 3634 
Q 3963 3931 3569 4081 
Q 3175 4231 2741 4231 
Q 1884 4231 1454 3753 
Q 1025 3275 1025 2328 
Q 1025 1384 1454 906 
Q 1884 428 2741 428 
Q 3075 428 3337 486 
Q 3600 544 3809 666 
z
" transform="scale(0.015625)"/>
       <path id="DejaVuSans-65" d="M 3597 1894 
L 3597 1613 
L 953 1613 
Q 991 1019 1311 708 
Q 1631 397 2203 397 
Q 2534 397 2845 478 
Q 3156 559 3463 722 
L 3463 178 
Q 3153 47 2828 -22 
Q 2503 -91 2169 -91 
Q 1331 -91 842 396 
Q 353 884 353 1716 
Q 353 2575 817 3079 
Q 1281 3584 2069 3584 
Q 2775 3584 3186 3129 
Q 3597 2675 3597 1894 
z
M 3022 2063 
Q 3016 2534 2758 2815 
Q 2500 3097 2075 3097 
Q 1594 3097 1305 2825 
Q 1016 2553 972 2059 
L 3022 2063 
z
" transform="scale(0.015625)"/>
       <path id="DejaVuSans-6e" d="M 3513 2113 
L 3513 0 
L 2938 0 
L 2938 2094 
Q 2938 2591 2744 2837 
Q 2550 3084 2163 3084 
Q 1697 3084 1428 2787 
Q 1159 2491 1159 1978 
L 1159 0 
L 581 0 
L 581 3500 
L 1159 3500 
L 1159 2956 
Q 1366 3272 1645 3428 
Q 1925 3584 2291 3584 
Q 2894 3584 3203 3211 
Q 3513 2838 3513 2113 
z
" transform="scale(0.015625)"/>
       <path id="DejaVuSans-72" d="M 2631 2963 
Q 2534 3019 2420 3045 
Q 2306 3072 2169 3072 
Q 1681 3072 1420 2755 
Q 1159 2438 1159 1844 
L 1159 0 
L 581 0 
L 581 3500 
L 1159 3500 
L 1159 2956 
Q 1341 3275 1631 3429 
Q 1922 3584 2338 3584 
Q 2397 3584 2469 3576 
Q 2541 3569 2628 3553 
L 2631 2963 
z
" transform="scale(0.015625)"/>
       <path id="DejaVuSans-61" d="M 2194 1759 
Q 1497 1759 1228 1600 
Q 959 1441 959 1056 
Q 959 750 1161 570 
Q 1363 391 1709 391 
Q 2188 391 2477 730 
Q 2766 1069 2766 1631 
L 2766 1759 
L 2194 1759 
z
M 3341 1997 
L 3341 0 
L 2766 0 
L 2766 531 
Q 2569 213 2275 61 
Q 1981 -91 1556 -91 
Q 1019 -91 701 211 
Q 384 513 384 1019 
Q 384 1609 779 1909 
Q 1175 2209 1959 2209 
L 2766 2209 
L 2766 2266 
Q 2766 2663 2505 2880 
Q 2244 3097 1772 3097 
Q 1472 3097 1187 3025 
Q 903 2953 641 2809 
L 641 3341 
Q 956 3463 1253 3523 
Q 1550 3584 1831 3584 
Q 2591 3584 2966 3190 
Q 3341 2797 3341 1997 
z
" transform="scale(0.015625)"/>
       <path id="DejaVuSans-74" d="M 1172 4494 
L 1172 3500 
L 2356 3500 
L 2356 3053 
L 1172 3053 
L 1172 1153 
Q 1172 725 1289 603 
Q 1406 481 1766 481 
L 2356 481 
L 2356 0 
L 1766 0 
Q 1100 0 847 248 
Q 594 497 594 1153 
L 594 3053 
L 172 3053 
L 172 3500 
L 594 3500 
L 594 4494 
L 1172 4494 
z
" transform="scale(0.015625)"/>
       <path id="DejaVuSans-69" d="M 603 3500 
L 1178 3500 
L 1178 0 
L 603 0 
L 603 3500 
z
M 603 4863 
L 1178 4863 
L 1178 4134 
L 603 4134 
L 603 4863 
z
" transform="scale(0.015625)"/>
       <path id="DejaVuSans-6f" d="M 1959 3097 
Q 1497 3097 1228 2736 
Q 959 2375 959 1747 
Q 959 1119 1226 758 
Q 1494 397 1959 397 
Q 2419 397 2687 759 
Q 2956 1122 2956 1747 
Q 2956 2369 2687 2733 
Q 2419 3097 1959 3097 
z
M 1959 3584 
Q 2709 3584 3137 3096 
Q 3566 2609 3566 1747 
Q 3566 888 3137 398 
Q 2709 -91 1959 -91 
Q 1206 -91 779 398 
Q 353 888 353 1747 
Q 353 2609 779 3096 
Q 1206 3584 1959 3584 
z
" transform="scale(0.015625)"/>
       <path id="DejaVuSans-73" d="M 2834 3397 
L 2834 2853 
Q 2591 2978 2328 3040 
Q 2066 3103 1784 3103 
Q 1356 3103 1142 2972 
Q 928 2841 928 2578 
Q 928 2378 1081 2264 
Q 1234 2150 1697 2047 
L 1894 2003 
Q 2506 1872 2764 1633 
Q 3022 1394 3022 966 
Q 3022 478 2636 193 
Q 2250 -91 1575 -91 
Q 1294 -91 989 -36 
Q 684 19 347 128 
L 347 722 
Q 666 556 975 473 
Q 1284 391 1588 391 
Q 1994 391 2212 530 
Q 2431 669 2431 922 
Q 2431 1156 2273 1281 
Q 2116 1406 1581 1522 
L 1381 1569 
Q 847 1681 609 1914 
Q 372 2147 372 2553 
Q 372 3047 722 3315 
Q 1072 3584 1716 3584 
Q 2034 3584 2315 3537 
Q 2597 3491 2834 3397 
z
" transform="scale(0.015625)"/>
      </defs>
      <use xlink:href="#DejaVuSans-47"/>
      <use xlink:href="#DejaVuSans-65" x="77.490234"/>
      <use xlink:href="#DejaVuSans-6e" x="139.013672"/>
      <use xlink:href="#DejaVuSans-65" x="202.392578"/>
      <use xlink:href="#DejaVuSans-72" x="263.916016"/>
      <use xlink:href="#DejaVuSans-61" x="305.029297"/>
      <use xlink:href="#DejaVuSans-74" x="366.308594"/>
      <use xlink:href="#DejaVuSans-69" x="405.517578"/>
      <use xlink:href="#DejaVuSans-6f" x="433.300781"/>
      <use xlink:href="#DejaVuSans-6e" x="494.482422"/>
      <use xlink:href="#DejaVuSans-73" x="557.861328"/>
     </g>
    </g>
   </g>
   <g id="matplotlib.axis_2">
    <g id="ytick_1">
     <g id="line2d_15">
      <path d="M 57.6 302.643301 
L 414.72 302.643301 
" clip-path="url(#p6cd8c9def3)" style="fill: none; stroke: #b0b0b0; stroke-width: 0.8; stroke-linecap: square"/>
     </g>
     <g id="line2d_16">
      <defs>
       <path id="m7f94a8fc06" d="M 0 0 
L -3.5 0 
" style="stroke: #000000; stroke-width: 0.8"/>
      </defs>
      <g>
       <use xlink:href="#m7f94a8fc06" x="57.6" y="302.643301" style="stroke: #000000; stroke-width: 0.8"/>
      </g>
     </g>
     <g id="text_9">
      <!-- −3000 -->
      <g transform="translate(16.770313 306.442519)scale(0.1 -0.1)">
       <defs>
        <path id="DejaVuSans-2212" d="M 678 2272 
L 4684 2272 
L 4684 1741 
L 678 1741 
L 678 2272 
z
" transform="scale(0.015625)"/>
       </defs>
       <use xlink:href="#DejaVuSans-2212"/>
       <use xlink:href="#DejaVuSans-33" x="83.789062"/>
       <use xlink:href="#DejaVuSans-30" x="147.412109"/>
       <use xlink:href="#DejaVuSans-30" x="211.035156"/>
       <use xlink:href="#DejaVuSans-30" x="274.658203"/>
      </g>
     </g>
    </g>
    <g id="ytick_2">
     <g id="line2d_17">
      <path d="M 57.6 251.442037 
L 414.72 251.442037 
" clip-path="url(#p6cd8c9def3)" style="fill: none; stroke: #b0b0b0; stroke-width: 0.8; stroke-linecap: square"/>
     </g>
     <g id="line2d_18">
      <g>
       <use xlink:href="#m7f94a8fc06" x="57.6" y="251.442037" style="stroke: #000000; stroke-width: 0.8"/>
      </g>
     </g>
     <g id="text_10">
      <!-- −2000 -->
      <g transform="translate(16.770313 255.241256)scale(0.1 -0.1)">
       <use xlink:href="#DejaVuSans-2212"/>
       <use xlink:href="#DejaVuSans-32" x="83.789062"/>
       <use xlink:href="#DejaVuSans-30" x="147.412109"/>
       <use xlink:href="#DejaVuSans-30" x="211.035156"/>
       <use xlink:href="#DejaVuSans-30" x="274.658203"/>
      </g>
     </g>
    </g>
    <g id="ytick_3">
     <g id="line2d_19">
      <path d="M 57.6 200.240773 
L 414.72 200.240773 
" clip-path="url(#p6cd8c9def3)" style="fill: none; stroke: #b0b0b0; stroke-width: 0.8; stroke-linecap: square"/>
     </g>
     <g id="line2d_20">
      <g>
       <use xlink:href="#m7f94a8fc06" x="57.6" y="200.240773" style="stroke: #000000; stroke-width: 0.8"/>
      </g>
     </g>
     <g id="text_11">
      <!-- −1000 -->
      <g transform="translate(16.770313 204.039992)scale(0.1 -0.1)">
       <use xlink:href="#DejaVuSans-2212"/>
       <use xlink:href="#DejaVuSans-31" x="83.789062"/>
       <use xlink:href="#DejaVuSans-30" x="147.412109"/>
       <use xlink:href="#DejaVuSans-30" x="211.035156"/>
       <use xlink:href="#DejaVuSans-30" x="274.658203"/>
      </g>
     </g>
    </g>
    <g id="ytick_4">
     <g id="line2d_21">
      <path d="M 57.6 149.039509 
L 414.72 149.039509 
" clip-path="url(#p6cd8c9def3)" style="fill: none; stroke: #b0b0b0; stroke-width: 0.8; stroke-linecap: square"/>
     </g>
     <g id="line2d_22">
      <g>
       <use xlink:href="#m7f94a8fc06" x="57.6" y="149.039509" style="stroke: #000000; stroke-width: 0.8"/>
      </g>
     </g>
     <g id="text_12">
      <!-- 0 -->
      <g transform="translate(44.2375 152.838728)scale(0.1 -0.1)">
       <use xlink:href="#DejaVuSans-30"/>
      </g>
     </g>
    </g>
    <g id="ytick_5">
     <g id="line2d_23">
      <path d="M 57.6 97.838246 
L 414.72 97.838246 
" clip-path="url(#p6cd8c9def3)" style="fill: none; stroke: #b0b0b0; stroke-width: 0.8; stroke-linecap: square"/>
     </g>
     <g id="line2d_24">
      <g>
       <use xlink:href="#m7f94a8fc06" x="57.6" y="97.838246" style="stroke: #000000; stroke-width: 0.8"/>
      </g>
     </g>
     <g id="text_13">
      <!-- 1000 -->
      <g transform="translate(25.15 101.637464)scale(0.1 -0.1)">
       <use xlink:href="#DejaVuSans-31"/>
       <use xlink:href="#DejaVuSans-30" x="63.623047"/>
       <use xlink:href="#DejaVuSans-30" x="127.246094"/>
       <use xlink:href="#DejaVuSans-30" x="190.869141"/>
      </g>
     </g>
    </g>
    <g id="ytick_6">
     <g id="line2d_25">
      <path d="M 57.6 46.636982 
L 414.72 46.636982 
" clip-path="url(#p6cd8c9def3)" style="fill: none; stroke: #b0b0b0; stroke-width: 0.8; stroke-linecap: square"/>
     </g>
     <g id="line2d_26">
      <g>
       <use xlink:href="#m7f94a8fc06" x="57.6" y="46.636982" style="stroke: #000000; stroke-width: 0.8"/>
      </g>
     </g>
     <g id="text_14">
      <!-- 2000 -->
      <g transform="translate(25.15 50.436201)scale(0.1 -0.1)">
       <use xlink:href="#DejaVuSans-32"/>
       <use xlink:href="#DejaVuSans-30" x="63.623047"/>
       <use xlink:href="#DejaVuSans-30" x="127.246094"/>
       <use xlink:href="#DejaVuSans-30" x="190.869141"/>
      </g>
     </g>
    </g>
    <g id="text_15">
     <!-- Fitness -->
     <g transform="translate(10.690625 191.845187)rotate(-90)scale(0.1 -0.1)">
      <defs>
       <path id="DejaVuSans-46" d="M 628 4666 
L 3309 4666 
L 3309 4134 
L 1259 4134 
L 1259 2759 
L 3109 2759 
L 3109 2228 
L 1259 2228 
L 1259 0 
L 628 0 
L 628 4666 
z
" transform="scale(0.015625)"/>
      </defs>
      <use xlink:href="#DejaVuSans-46"/>
      <use xlink:href="#DejaVuSans-69" x="50.269531"/>
      <use xlink:href="#DejaVuSans-74" x="78.052734"/>
      <use xlink:href="#DejaVuSans-6e" x="117.261719"/>
      <use xlink:href="#DejaVuSans-65" x="180.640625"/>
      <use xlink:href="#DejaVuSans-73" x="242.164062"/>
      <use xlink:href="#DejaVuSans-73" x="294.263672"/>
     </g>
    </g>
   </g>
   <g id="line2d_27">
    <path d="M 73.832727 159.071057 
L 74.918528 160.466491 
L 76.00433 162.960591 
L 77.090131 159.348155 
L 78.175932 160.360836 
L 79.261733 160.947816 
L 80.347534 163.729407 
L 81.433335 161.664312 
L 82.519137 164.078563 
L 83.604938 160.005614 
L 84.690739 160.642779 
L 85.77654 162.132518 
L 86.862341 163.098132 
L 87.948142 160.376844 
L 89.033943 160.974565 
L 90.119745 159.885676 
L 91.205546 160.765367 
L 92.291347 160.669228 
L 93.377148 159.682497 
L 94.462949 159.280505 
L 95.54875 159.941934 
L 96.634552 159.851343 
L 97.720353 159.37159 
L 98.806154 161.169954 
L 99.891955 159.480681 
L 100.977756 160.442235 
L 102.063557 159.398891 
L 103.149358 159.847073 
L 104.23516 161.4397 
L 105.320961 161.834994 
L 106.406762 159.228822 
L 107.492563 162.902454 
L 108.578364 161.791257 
L 109.664165 164.089805 
L 110.749967 160.639653 
L 111.835768 161.574464 
L 112.921569 160.171568 
L 114.00737 160.580307 
L 115.093171 162.482649 
L 116.178972 159.730684 
L 117.264773 159.546811 
L 118.350575 163.09235 
L 119.436376 162.842072 
L 120.522177 159.834958 
L 121.607978 160.462964 
L 122.693779 159.876785 
L 123.77958 161.432534 
L 124.865382 162.329422 
L 125.951183 159.562609 
L 127.036984 159.623966 
L 128.122785 164.381328 
L 129.208586 159.728837 
L 130.294387 160.291763 
L 131.380189 158.204418 
L 132.46599 157.60506 
L 133.551791 158.420843 
L 134.637592 157.110072 
L 135.723393 157.154125 
L 136.809194 158.747098 
L 137.894995 157.880464 
L 138.980797 158.199872 
L 140.066598 157.372 
L 141.152399 158.735523 
L 142.2382 157.548254 
L 143.324001 157.6851 
L 144.409802 157.485529 
L 145.495604 158.049302 
L 146.581405 157.891426 
L 147.667206 157.861474 
L 148.753007 157.509463 
L 149.838808 158.741854 
L 150.924609 158.233223 
L 152.01041 157.362504 
L 153.096212 159.532675 
L 154.182013 156.837409 
L 155.267814 158.797299 
L 156.353615 157.930443 
L 157.439416 161.637672 
L 158.525217 157.072636 
L 159.611019 157.284449 
L 160.69682 157.069285 
L 161.782621 163.291773 
L 162.868422 156.782955 
L 163.954223 157.650598 
L 165.040024 156.924445 
L 166.125825 158.495368 
L 167.211627 156.94282 
L 170.46903 157.419218 
L 172.640632 159.395514 
L 173.726434 157.442321 
L 174.812235 156.908883 
L 175.898036 157.236319 
L 178.069638 156.895334 
L 179.155439 156.81375 
L 180.24124 157.865398 
L 181.327042 156.947085 
L 182.412843 157.652506 
L 183.498644 157.581345 
L 184.584445 157.182544 
L 185.670246 156.659484 
L 186.756047 156.612222 
L 187.841849 158.499123 
L 188.92765 158.765141 
L 190.013451 156.841351 
L 191.099252 156.444745 
L 192.185053 156.566747 
L 193.270854 158.281582 
L 194.356656 156.524735 
L 195.442457 159.558348 
L 196.528258 160.75906 
L 197.614059 157.616509 
L 198.69986 158.204627 
L 199.785661 159.812662 
L 200.871462 157.005807 
L 201.957264 156.959821 
L 203.043065 156.60951 
L 204.128866 157.303118 
L 207.386269 156.263824 
L 208.472071 156.423682 
L 209.557872 157.444534 
L 210.643673 157.455203 
L 211.729474 156.798059 
L 212.815275 156.543604 
L 213.901076 157.48612 
L 214.986877 156.595709 
L 216.072679 170.871754 
L 217.15848 157.350848 
L 219.330082 156.559359 
L 220.415883 157.331323 
L 221.501684 156.588897 
L 222.587486 156.348593 
L 223.673287 156.697073 
L 224.759088 157.244895 
L 225.844889 157.29935 
L 226.93069 158.901737 
L 228.016491 156.808403 
L 229.102292 172.452438 
L 230.188094 162.136178 
L 231.273895 159.834166 
L 232.359696 165.455404 
L 233.445497 158.308702 
L 234.531298 159.464408 
L 236.702901 167.912238 
L 237.788702 160.716041 
L 238.874503 159.351943 
L 239.960304 158.810353 
L 241.046105 159.239565 
L 242.131906 157.116697 
L 243.217708 158.7338 
L 244.303509 156.88681 
L 245.38931 158.330037 
L 246.475111 157.024861 
L 247.560912 158.642358 
L 248.646713 163.111894 
L 249.732514 158.099572 
L 250.818316 157.504986 
L 251.904117 156.084134 
L 252.989918 161.829438 
L 254.075719 155.681153 
L 255.16152 156.60689 
L 256.247321 157.295053 
L 257.333123 156.731345 
L 258.418924 157.323725 
L 259.504725 157.078338 
L 260.590526 155.805503 
L 261.676327 157.024292 
L 262.762128 156.394034 
L 263.847929 157.947821 
L 264.933731 157.494669 
L 266.019532 158.534038 
L 267.105333 155.928843 
L 268.191134 164.974139 
L 269.276935 155.301194 
L 270.362736 155.541346 
L 271.448538 156.310228 
L 272.534339 156.899359 
L 273.62014 156.24955 
L 274.705941 156.445623 
L 275.791742 161.493491 
L 276.877543 155.282646 
L 277.963344 155.444892 
L 279.049146 157.112445 
L 280.134947 157.097414 
L 281.220748 155.946464 
L 282.306549 158.651961 
L 283.39235 157.96256 
L 284.478151 174.528 
L 285.563953 157.000196 
L 286.649754 161.453135 
L 287.735555 157.018004 
L 288.821356 159.338796 
L 289.907157 156.234316 
L 290.992958 156.609367 
L 292.07876 159.124614 
L 293.164561 156.573274 
L 294.250362 158.575728 
L 295.336163 156.834688 
L 296.421964 155.920044 
L 297.507765 156.298448 
L 298.593566 157.080417 
L 299.679368 158.504601 
L 300.765169 159.569515 
L 301.85097 158.253027 
L 302.936771 156.56638 
L 304.022572 157.228828 
L 305.108373 157.454628 
L 306.194175 156.08366 
L 307.279976 156.976642 
L 308.365777 158.514445 
L 309.451578 157.851978 
L 310.537379 157.804428 
L 311.62318 156.660157 
L 312.708981 156.947274 
L 313.794783 157.361305 
L 314.880584 156.012888 
L 315.966385 157.854179 
L 317.052186 156.314167 
L 318.137987 157.436791 
L 319.223788 158.114512 
L 320.30959 156.297787 
L 321.395391 156.087806 
L 322.481192 159.032114 
L 324.652794 156.074797 
L 325.738595 156.89353 
L 326.824396 163.495255 
L 327.910198 157.325745 
L 328.995999 159.536714 
L 330.0818 157.011869 
L 331.167601 156.009073 
L 332.253402 157.639007 
L 333.339203 157.614959 
L 334.425005 157.156225 
L 335.510806 158.049212 
L 336.596607 155.468066 
L 337.682408 156.461056 
L 338.768209 156.101488 
L 339.85401 158.067534 
L 340.939811 156.927665 
L 342.025613 156.01309 
L 343.111414 157.068158 
L 344.197215 157.049839 
L 346.368817 155.79426 
L 347.454618 156.064937 
L 348.54042 160.243437 
L 349.626221 157.157151 
L 350.712022 157.214748 
L 351.797823 157.055407 
L 353.969425 155.960864 
L 355.055227 158.067078 
L 356.141028 156.205131 
L 357.226829 155.579386 
L 358.31263 156.712281 
L 359.398431 156.772217 
L 360.484232 156.044916 
L 361.570033 155.941524 
L 362.655835 154.638864 
L 363.741636 158.052665 
L 364.827437 155.402418 
L 365.913238 156.414415 
L 366.999039 158.414664 
L 368.08484 157.597236 
L 369.170642 157.345926 
L 370.256443 156.400556 
L 371.342244 157.075447 
L 372.428045 155.979616 
L 373.513846 156.288321 
L 374.599647 155.596991 
L 375.685448 156.392051 
L 376.77125 155.463406 
L 377.857051 155.881715 
L 378.942852 156.443721 
L 380.028653 154.84092 
L 381.114454 156.765058 
L 382.200255 155.162702 
L 383.286057 154.898609 
L 384.371858 154.434983 
L 385.457659 156.066548 
L 386.54346 154.685652 
L 387.629261 154.695453 
L 388.715062 155.611508 
L 389.800863 154.087873 
L 390.886665 158.487462 
L 393.058267 154.033145 
L 394.144068 154.847779 
L 395.229869 154.681428 
L 396.31567 155.396416 
L 397.401472 154.250814 
L 398.487273 154.438149 
L 398.487273 154.438149 
" clip-path="url(#p6cd8c9def3)" style="fill: none; stroke: #0000ff; stroke-width: 1.5; stroke-linecap: square"/>
   </g>
   <g id="line2d_28">
    <path d="M 73.832727 161.441587 
L 74.918528 166.691044 
L 76.00433 184.840856 
L 77.090131 164.057802 
L 78.175932 165.025956 
L 79.261733 173.425668 
L 80.347534 184.20769 
L 81.433335 173.023973 
L 82.519137 184.81613 
L 83.604938 164.987778 
L 84.690739 166.581181 
L 85.77654 173.416736 
L 86.862341 178.816898 
L 87.948142 168.342713 
L 89.033943 170.167525 
L 90.119745 162.809538 
L 91.205546 171.088819 
L 92.291347 168.699484 
L 93.377148 162.512679 
L 94.462949 161.983407 
L 95.54875 166.105739 
L 96.634552 162.966269 
L 97.720353 163.17297 
L 98.806154 170.870379 
L 99.891955 162.123169 
L 100.977756 166.255319 
L 102.063557 161.836282 
L 103.149358 164.4045 
L 104.23516 169.145741 
L 105.320961 168.163817 
L 106.406762 162.057581 
L 107.492563 173.315036 
L 108.578364 170.963583 
L 109.664165 178.902615 
L 110.749967 166.806586 
L 111.835768 173.196403 
L 112.921569 166.336446 
L 114.00737 166.514506 
L 115.093171 175.605948 
L 116.178972 163.966235 
L 117.264773 163.097101 
L 118.350575 180.551457 
L 119.436376 179.441086 
L 120.522177 164.178503 
L 121.607978 167.474353 
L 122.693779 163.981577 
L 123.77958 171.848498 
L 124.865382 170.012216 
L 125.951183 164.705902 
L 127.036984 163.280689 
L 128.122785 189.03422 
L 129.208586 165.51081 
L 130.294387 165.975995 
L 131.380189 161.606319 
L 132.46599 161.341373 
L 133.551791 162.505369 
L 134.637592 160.098233 
L 135.723393 159.921941 
L 136.809194 167.931013 
L 137.894995 162.20914 
L 138.980797 163.976585 
L 140.066598 160.459461 
L 141.152399 163.251747 
L 142.2382 160.376965 
L 143.324001 163.082058 
L 144.409802 160.257331 
L 145.495604 162.562838 
L 146.581405 161.397875 
L 147.667206 160.985155 
L 148.753007 160.812852 
L 149.838808 165.078086 
L 150.924609 164.751519 
L 152.01041 159.82075 
L 153.096212 169.535734 
L 154.182013 158.98953 
L 155.267814 165.093399 
L 156.353615 161.906233 
L 157.439416 193.12124 
L 158.525217 159.777875 
L 159.611019 160.279042 
L 160.69682 159.081554 
L 161.782621 206.179825 
L 162.868422 158.805502 
L 163.954223 161.07103 
L 165.040024 159.531143 
L 166.125825 166.958954 
L 167.211627 158.911067 
L 168.297428 159.794909 
L 169.383229 160.101811 
L 170.46903 160.286387 
L 171.554831 163.851014 
L 172.640632 172.224225 
L 173.726434 160.725418 
L 174.812235 159.622302 
L 175.898036 160.224489 
L 176.983837 160.029432 
L 178.069638 159.436377 
L 179.155439 159.429027 
L 180.24124 162.815424 
L 181.327042 159.770407 
L 182.412843 165.891269 
L 183.498644 162.580833 
L 184.584445 161.326188 
L 185.670246 158.431003 
L 186.756047 158.499749 
L 187.841849 167.759004 
L 188.92765 169.447195 
L 190.013451 159.531494 
L 191.099252 157.916014 
L 192.185053 158.72943 
L 193.270854 164.73958 
L 194.356656 158.581101 
L 195.442457 177.092263 
L 196.528258 175.350182 
L 197.614059 162.812192 
L 198.69986 168.872665 
L 199.785661 173.684056 
L 200.871462 159.398309 
L 201.957264 159.573856 
L 203.043065 159.200402 
L 204.128866 166.186772 
L 205.214667 161.74142 
L 206.300468 158.215917 
L 207.386269 157.890563 
L 208.472071 157.962637 
L 209.557872 163.360957 
L 210.643673 162.891933 
L 211.729474 158.983775 
L 212.815275 158.351505 
L 213.901076 162.517251 
L 214.986877 158.6188 
L 216.072679 266.529222 
L 217.15848 162.359609 
L 218.244281 159.766313 
L 219.330082 158.205952 
L 220.415883 163.800053 
L 221.501684 158.972423 
L 222.587486 157.848145 
L 223.673287 159.662719 
L 224.759088 160.734996 
L 225.844889 161.287904 
L 226.93069 173.83091 
L 228.016491 159.238914 
L 229.102292 234.985311 
L 230.188094 178.702759 
L 231.273895 172.378607 
L 232.359696 199.978603 
L 233.445497 164.248854 
L 234.531298 166.670466 
L 235.617099 187.350677 
L 236.702901 215.350051 
L 237.788702 175.762759 
L 238.874503 166.528295 
L 239.960304 165.957918 
L 241.046105 167.754413 
L 242.131906 161.445232 
L 243.217708 168.031671 
L 244.303509 162.032278 
L 245.38931 165.194576 
L 246.475111 161.198879 
L 247.560912 167.744711 
L 248.646713 209.54516 
L 249.732514 173.398892 
L 250.818316 164.868301 
L 251.904117 161.500977 
L 252.989918 192.262642 
L 254.075719 158.287085 
L 255.16152 160.94027 
L 256.247321 166.625375 
L 257.333123 161.90934 
L 258.418924 163.235322 
L 259.504725 163.713361 
L 260.590526 158.406554 
L 261.676327 161.464576 
L 262.762128 160.776068 
L 263.847929 164.836297 
L 264.933731 162.060311 
L 266.019532 165.258359 
L 267.105333 159.355742 
L 268.191134 219.65106 
L 269.276935 157.106417 
L 270.362736 158.157013 
L 271.448538 160.886536 
L 272.534339 161.841804 
L 273.62014 160.784581 
L 274.705941 160.524921 
L 275.791742 196.329191 
L 276.877543 157.875952 
L 277.963344 158.235148 
L 279.049146 163.383093 
L 280.134947 166.336775 
L 281.220748 159.673765 
L 282.306549 167.164715 
L 283.39235 163.352565 
L 284.478151 295.488 
L 285.563953 162.58144 
L 286.649754 185.789465 
L 287.735555 163.896182 
L 288.821356 177.779856 
L 289.907157 160.46522 
L 290.992958 161.901244 
L 292.07876 167.693424 
L 293.164561 161.794684 
L 294.250362 165.910582 
L 295.336163 163.713817 
L 296.421964 160.622202 
L 297.507765 162.091617 
L 298.593566 164.062093 
L 299.679368 167.832407 
L 300.765169 185.426718 
L 301.85097 167.119444 
L 302.936771 162.037134 
L 304.022572 164.227604 
L 305.108373 164.963479 
L 306.194175 162.257337 
L 307.279976 162.5475 
L 308.365777 167.735736 
L 309.451578 165.422498 
L 310.537379 165.141859 
L 311.62318 163.49791 
L 312.708981 164.56961 
L 313.794783 164.48341 
L 314.880584 161.98964 
L 315.966385 166.302702 
L 317.052186 163.262021 
L 318.137987 163.978949 
L 319.223788 167.020423 
L 320.30959 162.464104 
L 321.395391 161.159001 
L 322.481192 168.342603 
L 323.566993 164.243199 
L 324.652794 161.745748 
L 325.738595 164.547609 
L 326.824396 185.351214 
L 327.910198 164.246533 
L 328.995999 171.078453 
L 330.0818 163.863447 
L 331.167601 161.850068 
L 332.253402 168.64038 
L 333.339203 164.963821 
L 334.425005 165.389288 
L 335.510806 166.141762 
L 336.596607 161.022956 
L 337.682408 161.644638 
L 338.768209 163.259966 
L 339.85401 165.885979 
L 340.939811 164.804916 
L 342.025613 162.094846 
L 343.111414 163.410567 
L 344.197215 165.289579 
L 345.283016 163.809408 
L 346.368817 161.084602 
L 347.454618 161.819967 
L 348.54042 170.082003 
L 349.626221 163.663442 
L 350.712022 165.888501 
L 351.797823 164.687984 
L 352.883624 161.894918 
L 353.969425 161.757807 
L 355.055227 178.912414 
L 356.141028 162.410205 
L 357.226829 161.195563 
L 358.31263 163.3936 
L 359.398431 162.516455 
L 360.484232 161.988239 
L 361.570033 161.728389 
L 362.655835 158.504745 
L 363.741636 165.80976 
L 364.827437 161.075197 
L 365.913238 162.843631 
L 366.999039 167.804438 
L 368.08484 164.313747 
L 369.170642 163.652895 
L 370.256443 162.656097 
L 371.342244 163.487174 
L 372.428045 161.199831 
L 373.513846 162.168972 
L 374.599647 161.79609 
L 375.685448 162.735747 
L 376.77125 160.535585 
L 377.857051 162.259993 
L 378.942852 163.108837 
L 380.028653 158.517912 
L 381.114454 163.666185 
L 382.200255 160.109191 
L 383.286057 160.353382 
L 384.371858 157.948654 
L 385.457659 162.494206 
L 386.54346 158.691833 
L 387.629261 159.458626 
L 388.715062 160.716206 
L 389.800863 158.587485 
L 390.886665 183.822811 
L 391.972466 162.46982 
L 393.058267 159.568406 
L 394.144068 161.768555 
L 395.229869 159.791721 
L 396.31567 160.627057 
L 397.401472 157.072581 
L 398.487273 158.414499 
L 398.487273 158.414499 
" clip-path="url(#p6cd8c9def3)" style="fill: none; stroke-dasharray: 9.6,2.4,1.5,2.4; stroke-dashoffset: 0; stroke: #008000; stroke-width: 1.5"/>
   </g>
   <g id="line2d_29">
    <path d="M 73.832727 156.700527 
L 74.918528 154.241939 
L 76.00433 141.080327 
L 77.090131 154.638508 
L 78.175932 155.695716 
L 79.261733 148.469963 
L 80.347534 143.251123 
L 81.433335 150.304651 
L 82.519137 143.340996 
L 83.604938 155.023451 
L 84.690739 154.704378 
L 86.862341 147.379365 
L 87.948142 152.410975 
L 89.033943 151.781604 
L 90.119745 156.961813 
L 91.205546 150.441915 
L 92.291347 152.638972 
L 93.377148 156.852314 
L 94.462949 156.577604 
L 95.54875 153.77813 
L 96.634552 156.736416 
L 97.720353 155.57021 
L 98.806154 151.469528 
L 99.891955 156.838193 
L 100.977756 154.62915 
L 102.063557 156.961499 
L 104.23516 153.73366 
L 105.320961 155.506171 
L 106.406762 156.400062 
L 107.492563 152.489873 
L 108.578364 152.618932 
L 109.664165 149.276996 
L 110.749967 154.472719 
L 111.835768 149.952525 
L 112.921569 154.006689 
L 114.00737 154.646108 
L 115.093171 149.35935 
L 116.178972 155.495133 
L 117.264773 155.996522 
L 118.350575 145.633243 
L 119.436376 146.243058 
L 120.522177 155.491414 
L 121.607978 153.451574 
L 122.693779 155.771994 
L 123.77958 151.016569 
L 124.865382 154.646628 
L 125.951183 154.419316 
L 127.036984 155.967243 
L 128.122785 139.728437 
L 129.208586 153.946863 
L 130.294387 154.60753 
L 131.380189 154.802517 
L 132.46599 153.868747 
L 133.551791 154.336318 
L 134.637592 154.12191 
L 135.723393 154.386308 
L 136.809194 149.563183 
L 137.894995 153.551787 
L 138.980797 152.423158 
L 140.066598 154.284538 
L 141.152399 154.2193 
L 142.2382 154.719542 
L 143.324001 152.288142 
L 144.409802 154.713727 
L 145.495604 153.535766 
L 146.581405 154.384977 
L 147.667206 154.737793 
L 148.753007 154.206074 
L 149.838808 152.405621 
L 150.924609 151.714927 
L 152.01041 154.904258 
L 153.096212 149.529616 
L 154.182013 154.685288 
L 155.267814 152.501199 
L 156.353615 153.954653 
L 157.439416 130.154103 
L 158.525217 154.367398 
L 159.611019 154.289856 
L 160.69682 155.057016 
L 161.782621 120.403721 
L 162.868422 154.760408 
L 163.954223 154.230165 
L 165.040024 154.317748 
L 166.125825 150.031782 
L 167.211627 154.974574 
L 168.297428 154.474879 
L 169.383229 154.595086 
L 170.46903 154.552049 
L 171.554831 153.06159 
L 172.640632 146.566803 
L 173.726434 154.159224 
L 175.898036 154.24815 
L 176.983837 154.049521 
L 178.069638 154.35429 
L 179.155439 154.198472 
L 180.24124 152.915373 
L 181.327042 154.123763 
L 182.412843 149.413744 
L 183.498644 152.581858 
L 184.584445 153.038901 
L 185.670246 154.887964 
L 186.756047 154.724695 
L 187.841849 149.239242 
L 188.92765 148.083088 
L 190.013451 154.151208 
L 191.099252 154.973475 
L 192.185053 154.404065 
L 193.270854 151.823583 
L 194.356656 154.468369 
L 195.442457 142.024433 
L 196.528258 146.167939 
L 197.614059 152.420826 
L 198.69986 147.536589 
L 199.785661 145.941267 
L 200.871462 154.613306 
L 203.043065 154.018617 
L 204.128866 148.419464 
L 205.214667 152.145351 
L 206.300468 154.726022 
L 207.386269 154.637086 
L 208.472071 154.884728 
L 209.557872 151.528111 
L 210.643673 152.018473 
L 211.729474 154.612343 
L 212.815275 154.735703 
L 213.901076 152.454989 
L 214.986877 154.572618 
L 216.072679 75.214286 
L 217.15848 152.342086 
L 218.244281 154.125408 
L 219.330082 154.912766 
L 220.415883 150.862594 
L 221.501684 154.20537 
L 222.587486 154.849041 
L 223.673287 153.731426 
L 224.759088 153.754794 
L 225.844889 153.310796 
L 226.93069 143.972563 
L 228.016491 154.377893 
L 229.102292 109.919566 
L 230.188094 145.569597 
L 231.273895 147.289725 
L 232.359696 130.932205 
L 233.445497 152.368549 
L 234.531298 152.258349 
L 235.617099 139.874398 
L 236.702901 120.474424 
L 237.788702 145.669323 
L 238.874503 152.17559 
L 239.960304 151.662788 
L 241.046105 150.724717 
L 242.131906 152.788161 
L 243.217708 149.435928 
L 244.303509 151.741341 
L 245.38931 151.465499 
L 246.475111 152.850843 
L 247.560912 149.540006 
L 248.646713 116.678627 
L 249.732514 142.800253 
L 250.818316 150.14167 
L 251.904117 150.66729 
L 252.989918 131.396235 
L 254.075719 153.07522 
L 255.16152 152.27351 
L 256.247321 147.964732 
L 257.333123 151.553351 
L 258.418924 151.412128 
L 259.504725 150.443316 
L 260.590526 153.204451 
L 262.762128 152.012 
L 263.847929 151.059345 
L 264.933731 152.929028 
L 266.019532 151.809717 
L 267.105333 152.501945 
L 268.191134 110.297217 
L 269.276935 153.495971 
L 270.362736 152.92568 
L 271.448538 151.73392 
L 272.534339 151.956914 
L 273.62014 151.714518 
L 274.705941 152.366325 
L 275.791742 126.657792 
L 276.877543 152.689341 
L 277.963344 152.654636 
L 279.049146 150.841797 
L 280.134947 147.858054 
L 281.220748 152.219163 
L 282.306549 150.139208 
L 283.39235 152.572555 
L 284.478151 53.568 
L 285.563953 151.418951 
L 286.649754 137.116805 
L 287.735555 150.139826 
L 288.821356 140.897736 
L 289.907157 152.003411 
L 292.07876 150.555804 
L 293.164561 151.351864 
L 294.250362 151.240873 
L 295.336163 149.955559 
L 296.421964 151.217886 
L 297.507765 150.505279 
L 298.593566 150.098741 
L 299.679368 149.176794 
L 300.765169 133.712312 
L 301.85097 149.386609 
L 302.936771 151.095627 
L 304.022572 150.230052 
L 305.108373 149.945776 
L 306.194175 149.909984 
L 307.279976 151.405783 
L 308.365777 149.293154 
L 309.451578 150.281459 
L 310.537379 150.466997 
L 311.62318 149.822405 
L 312.708981 149.324938 
L 313.794783 150.2392 
L 314.880584 150.036136 
L 315.966385 149.405656 
L 317.052186 149.366312 
L 318.137987 150.894632 
L 319.223788 149.208602 
L 321.395391 151.016611 
L 322.481192 149.721625 
L 323.566993 150.884689 
L 324.652794 150.403847 
L 325.738595 149.239452 
L 326.824396 141.639295 
L 327.910198 150.404958 
L 328.995999 147.994975 
L 330.0818 150.16029 
L 331.167601 150.168078 
L 332.253402 146.637635 
L 333.339203 150.266097 
L 334.425005 148.923162 
L 335.510806 149.956662 
L 336.596607 149.913177 
L 337.682408 151.277474 
L 338.768209 148.943009 
L 339.85401 150.249089 
L 340.939811 149.050414 
L 343.111414 150.72575 
L 344.197215 148.810099 
L 345.283016 148.956283 
L 346.368817 150.503918 
L 347.454618 150.309906 
L 348.54042 150.404871 
L 349.626221 150.65086 
L 350.712022 148.540996 
L 351.797823 149.42283 
L 352.883624 151.102561 
L 353.969425 150.163921 
L 355.055227 137.221742 
L 356.141028 150.000057 
L 358.31263 150.030962 
L 359.398431 151.027978 
L 360.484232 150.101594 
L 361.570033 150.15466 
L 362.655835 150.772984 
L 364.827437 149.72964 
L 365.913238 149.985199 
L 366.999039 149.024889 
L 368.08484 150.880724 
L 369.170642 151.038957 
L 370.256443 150.145015 
L 371.342244 150.663721 
L 372.428045 150.759401 
L 373.513846 150.407669 
L 374.599647 149.397892 
L 375.685448 150.048355 
L 376.77125 150.391228 
L 377.857051 149.503438 
L 378.942852 149.778605 
L 380.028653 151.163929 
L 381.114454 149.863931 
L 382.200255 150.216213 
L 383.286057 149.443837 
L 384.371858 150.921312 
L 385.457659 149.638889 
L 386.54346 150.679472 
L 387.629261 149.932281 
L 388.715062 150.50681 
L 389.800863 149.588261 
L 390.886665 133.152113 
L 391.972466 150.230027 
L 393.058267 148.497883 
L 394.144068 147.927004 
L 395.229869 149.571134 
L 396.31567 150.165776 
L 397.401472 151.429046 
L 398.487273 150.4618 
L 398.487273 150.4618 
" clip-path="url(#p6cd8c9def3)" style="fill: none; stroke-dasharray: 9.6,2.4,1.5,2.4; stroke-dashoffset: 0; stroke: #008000; stroke-width: 1.5"/>
   </g>
   <g id="line2d_30">
    <path d="M 73.832727 156.052179 
L 76.00433 156.819418 
L 77.090131 156.471016 
L 78.175932 156.849692 
L 79.261733 156.849483 
L 80.347534 157.017885 
L 81.433335 156.783707 
L 82.519137 157.046536 
L 83.604938 156.775153 
L 84.690739 156.668105 
L 85.77654 157.180437 
L 86.862341 156.343669 
L 87.948142 156.863868 
L 89.033943 156.848605 
L 90.119745 157.155383 
L 91.205546 156.637612 
L 92.291347 156.725045 
L 93.377148 156.999965 
L 94.462949 156.627389 
L 97.720353 156.587962 
L 98.806154 157.165727 
L 99.891955 156.448776 
L 100.977756 156.634316 
L 102.063557 157.145339 
L 103.149358 156.860546 
L 104.23516 156.914351 
L 105.320961 156.31759 
L 106.406762 156.698369 
L 107.492563 156.459681 
L 108.578364 156.53257 
L 109.664165 156.750293 
L 111.835768 156.229061 
L 112.921569 155.841469 
L 114.00737 156.088182 
L 115.093171 156.192363 
L 116.178972 156.487449 
L 117.264773 155.749358 
L 119.436376 156.525187 
L 120.522177 156.133052 
L 121.607978 156.38335 
L 122.693779 156.282373 
L 123.77958 156.843735 
L 125.951183 155.869727 
L 127.036984 155.980367 
L 128.122785 155.929092 
L 130.294387 155.359874 
L 131.380189 155.354375 
L 132.46599 155.225946 
L 133.551791 155.465631 
L 134.637592 155.245844 
L 137.894995 155.422404 
L 138.980797 155.241417 
L 140.066598 155.469469 
L 142.2382 155.469933 
L 143.324001 155.592894 
L 145.495604 155.150288 
L 146.581405 155.505189 
L 147.667206 155.391562 
L 148.753007 155.44427 
L 149.838808 155.27997 
L 153.096212 155.473333 
L 154.182013 155.156498 
L 158.525217 155.465567 
L 159.611019 155.214186 
L 160.69682 155.363891 
L 161.782621 155.21185 
L 162.868422 155.417103 
L 163.954223 155.389455 
L 165.040024 155.141573 
L 167.211627 155.393143 
L 169.383229 155.369833 
L 170.46903 155.56942 
L 173.726434 155.354653 
L 174.812235 155.196286 
L 175.898036 155.332888 
L 176.983837 155.190376 
L 178.069638 155.437036 
L 179.155439 155.09199 
L 180.24124 155.361427 
L 181.327042 154.934445 
L 182.412843 155.148684 
L 183.498644 155.153709 
L 184.584445 155.348354 
L 185.670246 155.368936 
L 186.756047 155.043507 
L 187.841849 155.074717 
L 188.92765 155.328766 
L 190.013451 155.310973 
L 191.099252 155.094221 
L 192.185053 155.14563 
L 193.270854 155.348934 
L 194.356656 155.223335 
L 195.442457 154.980598 
L 196.528258 153.942392 
L 197.614059 155.226446 
L 198.69986 154.37396 
L 199.785661 155.035381 
L 201.957264 155.071061 
L 203.043065 155.302648 
L 204.128866 155.230643 
L 205.214667 155.029659 
L 206.300468 155.362363 
L 208.472071 155.008116 
L 209.557872 155.25343 
L 210.643673 155.087895 
L 211.729474 155.127064 
L 213.901076 155.346505 
L 214.986877 155.195027 
L 216.072679 155.276614 
L 218.244281 155.130999 
L 219.330082 155.324707 
L 220.415883 155.278108 
L 221.501684 155.018264 
L 224.759088 155.234509 
L 225.844889 155.227744 
L 226.93069 153.331195 
L 228.016491 152.88429 
L 229.102292 153.050982 
L 230.188094 152.677058 
L 231.273895 154.362764 
L 232.359696 153.525743 
L 233.445497 152.407796 
L 234.531298 154.444934 
L 235.617099 152.771119 
L 236.702901 153.365122 
L 237.788702 153.707009 
L 238.874503 153.850065 
L 239.960304 153.405346 
L 241.046105 153.370628 
L 242.131906 152.673999 
L 243.217708 152.946067 
L 244.303509 151.979082 
L 245.38931 152.358271 
L 246.475111 152.087354 
L 247.560912 151.654946 
L 248.646713 152.53738 
L 249.732514 150.896414 
L 250.818316 151.729726 
L 251.904117 152.11853 
L 255.16152 151.621447 
L 256.247321 152.336778 
L 257.333123 152.210929 
L 258.418924 152.757288 
L 259.504725 151.714353 
L 260.590526 152.149331 
L 261.676327 151.623007 
L 262.762128 151.884642 
L 263.847929 151.724226 
L 264.933731 151.42226 
L 267.105333 152.635671 
L 269.276935 151.707837 
L 270.362736 151.495126 
L 271.448538 149.039509 
L 272.534339 152.20431 
L 273.62014 152.026263 
L 274.705941 150.996135 
L 275.791742 151.747982 
L 277.963344 151.446339 
L 279.049146 152.060567 
L 280.134947 152.008567 
L 281.220748 149.535198 
L 282.306549 151.603053 
L 283.39235 151.342459 
L 284.478151 151.28156 
L 286.649754 151.773759 
L 287.735555 150.645968 
L 288.821356 151.652327 
L 289.907157 150.539484 
L 290.992958 151.255716 
L 292.07876 151.066895 
L 293.164561 149.039509 
L 294.250362 150.288469 
L 295.336163 150.465627 
L 296.421964 150.780355 
L 297.507765 151.675601 
L 298.593566 151.769613 
L 299.679368 151.245771 
L 300.765169 151.513714 
L 301.85097 150.859633 
L 302.936771 151.824609 
L 304.022572 151.797728 
L 307.279976 151.183411 
L 308.365777 150.550429 
L 309.451578 151.526516 
L 310.537379 151.3266 
L 311.62318 152.094077 
L 312.708981 151.197865 
L 313.794783 151.994379 
L 314.880584 151.154316 
L 315.966385 151.414453 
L 317.052186 150.928417 
L 318.137987 151.723584 
L 319.223788 150.507037 
L 320.30959 151.419118 
L 321.395391 150.215446 
L 322.481192 151.512842 
L 323.566993 151.391905 
L 325.738595 151.51241 
L 326.824396 150.896298 
L 327.910198 149.039509 
L 328.995999 150.884978 
L 330.0818 149.661218 
L 331.167601 150.680786 
L 332.253402 151.38192 
L 333.339203 151.671189 
L 334.425005 150.785254 
L 335.510806 150.893043 
L 336.596607 149.039509 
L 337.682408 150.341094 
L 338.768209 149.039509 
L 339.85401 149.039509 
L 340.939811 151.541374 
L 342.025613 150.018468 
L 343.111414 151.488783 
L 345.283016 151.101606 
L 346.368817 150.148707 
L 347.454618 149.039509 
L 348.54042 151.306041 
L 349.626221 150.765739 
L 350.712022 151.168463 
L 351.797823 150.804278 
L 352.883624 151.071024 
L 353.969425 150.562895 
L 355.055227 150.531099 
L 356.141028 151.401244 
L 357.226829 149.039509 
L 358.31263 151.08361 
L 359.398431 149.929637 
L 360.484232 150.898001 
L 361.570033 150.772573 
L 362.655835 151.091841 
L 363.741636 150.996935 
L 364.827437 151.377445 
L 365.913238 150.88251 
L 369.170642 151.310427 
L 371.342244 150.678693 
L 372.428045 151.268079 
L 373.513846 150.167688 
L 374.599647 151.410101 
L 375.685448 150.7093 
L 376.77125 149.189032 
L 377.857051 149.942621 
L 378.942852 151.292781 
L 380.028653 149.039509 
L 381.114454 151.099922 
L 382.200255 151.328707 
L 383.286057 150.529777 
L 384.371858 150.77956 
L 385.457659 151.239402 
L 386.54346 150.779164 
L 387.629261 150.530186 
L 388.715062 149.876578 
L 389.800863 150.893662 
L 390.886665 150.728424 
L 391.972466 151.911524 
L 393.058267 150.119491 
L 394.144068 149.437197 
L 395.229869 149.638229 
L 396.31567 150.210009 
L 397.401472 151.009858 
L 398.487273 151.082197 
L 398.487273 151.082197 
" clip-path="url(#p6cd8c9def3)" style="fill: none; stroke: #ff0000; stroke-width: 1.5; stroke-linecap: square"/>
   </g>
   <g id="patch_3">
    <path d="M 57.6 307.584 
L 57.6 41.472 
" style="fill: none; stroke: #000000; stroke-width: 0.8; stroke-linejoin: miter; stroke-linecap: square"/>
   </g>
   <g id="patch_4">
    <path d="M 414.72 307.584 
L 414.72 41.472 
" style="fill: none; stroke: #000000; stroke-width: 0.8; stroke-linejoin: miter; stroke-linecap: square"/>
   </g>
   <g id="patch_5">
    <path d="M 57.6 307.584 
L 414.72 307.584 
" style="fill: none; stroke: #000000; stroke-width: 0.8; stroke-linejoin: miter; stroke-linecap: square"/>
   </g>
   <g id="patch_6">
    <path d="M 57.6 41.472 
L 414.72 41.472 
" style="fill: none; stroke: #000000; stroke-width: 0.8; stroke-linejoin: miter; stroke-linecap: square"/>
   </g>
   <g id="text_16">
    <!-- Population's average and best fitness -->
    <g transform="translate(123.529687 35.472)scale(0.12 -0.12)">
     <defs>
      <path id="DejaVuSans-50" d="M 1259 4147 
L 1259 2394 
L 2053 2394 
Q 2494 2394 2734 2622 
Q 2975 2850 2975 3272 
Q 2975 3691 2734 3919 
Q 2494 4147 2053 4147 
L 1259 4147 
z
M 628 4666 
L 2053 4666 
Q 2838 4666 3239 4311 
Q 3641 3956 3641 3272 
Q 3641 2581 3239 2228 
Q 2838 1875 2053 1875 
L 1259 1875 
L 1259 0 
L 628 0 
L 628 4666 
z
" transform="scale(0.015625)"/>
      <path id="DejaVuSans-70" d="M 1159 525 
L 1159 -1331 
L 581 -1331 
L 581 3500 
L 1159 3500 
L 1159 2969 
Q 1341 3281 1617 3432 
Q 1894 3584 2278 3584 
Q 2916 3584 3314 3078 
Q 3713 2572 3713 1747 
Q 3713 922 3314 415 
Q 2916 -91 2278 -91 
Q 1894 -91 1617 61 
Q 1341 213 1159 525 
z
M 3116 1747 
Q 3116 2381 2855 2742 
Q 2594 3103 2138 3103 
Q 1681 3103 1420 2742 
Q 1159 2381 1159 1747 
Q 1159 1113 1420 752 
Q 1681 391 2138 391 
Q 2594 391 2855 752 
Q 3116 1113 3116 1747 
z
" transform="scale(0.015625)"/>
      <path id="DejaVuSans-75" d="M 544 1381 
L 544 3500 
L 1119 3500 
L 1119 1403 
Q 1119 906 1312 657 
Q 1506 409 1894 409 
Q 2359 409 2629 706 
Q 2900 1003 2900 1516 
L 2900 3500 
L 3475 3500 
L 3475 0 
L 2900 0 
L 2900 538 
Q 2691 219 2414 64 
Q 2138 -91 1772 -91 
Q 1169 -91 856 284 
Q 544 659 544 1381 
z
M 1991 3584 
L 1991 3584 
z
" transform="scale(0.015625)"/>
      <path id="DejaVuSans-6c" d="M 603 4863 
L 1178 4863 
L 1178 0 
L 603 0 
L 603 4863 
z
" transform="scale(0.015625)"/>
      <path id="DejaVuSans-27" d="M 1147 4666 
L 1147 2931 
L 616 2931 
L 616 4666 
L 1147 4666 
z
" transform="scale(0.015625)"/>
      <path id="DejaVuSans-20" transform="scale(0.015625)"/>
      <path id="DejaVuSans-76" d="M 191 3500 
L 800 3500 
L 1894 563 
L 2988 3500 
L 3597 3500 
L 2284 0 
L 1503 0 
L 191 3500 
z
" transform="scale(0.015625)"/>
      <path id="DejaVuSans-67" d="M 2906 1791 
Q 2906 2416 2648 2759 
Q 2391 3103 1925 3103 
Q 1463 3103 1205 2759 
Q 947 2416 947 1791 
Q 947 1169 1205 825 
Q 1463 481 1925 481 
Q 2391 481 2648 825 
Q 2906 1169 2906 1791 
z
M 3481 434 
Q 3481 -459 3084 -895 
Q 2688 -1331 1869 -1331 
Q 1566 -1331 1297 -1286 
Q 1028 -1241 775 -1147 
L 775 -588 
Q 1028 -725 1275 -790 
Q 1522 -856 1778 -856 
Q 2344 -856 2625 -561 
Q 2906 -266 2906 331 
L 2906 616 
Q 2728 306 2450 153 
Q 2172 0 1784 0 
Q 1141 0 747 490 
Q 353 981 353 1791 
Q 353 2603 747 3093 
Q 1141 3584 1784 3584 
Q 2172 3584 2450 3431 
Q 2728 3278 2906 2969 
L 2906 3500 
L 3481 3500 
L 3481 434 
z
" transform="scale(0.015625)"/>
      <path id="DejaVuSans-64" d="M 2906 2969 
L 2906 4863 
L 3481 4863 
L 3481 0 
L 2906 0 
L 2906 525 
Q 2725 213 2448 61 
Q 2172 -91 1784 -91 
Q 1150 -91 751 415 
Q 353 922 353 1747 
Q 353 2572 751 3078 
Q 1150 3584 1784 3584 
Q 2172 3584 2448 3432 
Q 2725 3281 2906 2969 
z
M 947 1747 
Q 947 1113 1208 752 
Q 1469 391 1925 391 
Q 2381 391 2643 752 
Q 2906 1113 2906 1747 
Q 2906 2381 2643 2742 
Q 2381 3103 1925 3103 
Q 1469 3103 1208 2742 
Q 947 2381 947 1747 
z
" transform="scale(0.015625)"/>
      <path id="DejaVuSans-62" d="M 3116 1747 
Q 3116 2381 2855 2742 
Q 2594 3103 2138 3103 
Q 1681 3103 1420 2742 
Q 1159 2381 1159 1747 
Q 1159 1113 1420 752 
Q 1681 391 2138 391 
Q 2594 391 2855 752 
Q 3116 1113 3116 1747 
z
M 1159 2969 
Q 1341 3281 1617 3432 
Q 1894 3584 2278 3584 
Q 2916 3584 3314 3078 
Q 3713 2572 3713 1747 
Q 3713 922 3314 415 
Q 2916 -91 2278 -91 
Q 1894 -91 1617 61 
Q 1341 213 1159 525 
L 1159 0 
L 581 0 
L 581 4863 
L 1159 4863 
L 1159 2969 
z
" transform="scale(0.015625)"/>
      <path id="DejaVuSans-66" d="M 2375 4863 
L 2375 4384 
L 1825 4384 
Q 1516 4384 1395 4259 
Q 1275 4134 1275 3809 
L 1275 3500 
L 2222 3500 
L 2222 3053 
L 1275 3053 
L 1275 0 
L 697 0 
L 697 3053 
L 147 3053 
L 147 3500 
L 697 3500 
L 697 3744 
Q 697 4328 969 4595 
Q 1241 4863 1831 4863 
L 2375 4863 
z
" transform="scale(0.015625)"/>
     </defs>
     <use xlink:href="#DejaVuSans-50"/>
     <use xlink:href="#DejaVuSans-6f" x="56.677734"/>
     <use xlink:href="#DejaVuSans-70" x="117.859375"/>
     <use xlink:href="#DejaVuSans-75" x="181.335938"/>
     <use xlink:href="#DejaVuSans-6c" x="244.714844"/>
     <use xlink:href="#DejaVuSans-61" x="272.498047"/>
     <use xlink:href="#DejaVuSans-74" x="333.777344"/>
     <use xlink:href="#DejaVuSans-69" x="372.986328"/>
     <use xlink:href="#DejaVuSans-6f" x="400.769531"/>
     <use xlink:href="#DejaVuSans-6e" x="461.951172"/>
     <use xlink:href="#DejaVuSans-27" x="525.330078"/>
     <use xlink:href="#DejaVuSans-73" x="552.820312"/>
     <use xlink:href="#DejaVuSans-20" x="604.919922"/>
     <use xlink:href="#DejaVuSans-61" x="636.707031"/>
     <use xlink:href="#DejaVuSans-76" x="697.986328"/>
     <use xlink:href="#DejaVuSans-65" x="757.166016"/>
     <use xlink:href="#DejaVuSans-72" x="818.689453"/>
     <use xlink:href="#DejaVuSans-61" x="859.802734"/>
     <use xlink:href="#DejaVuSans-67" x="921.082031"/>
     <use xlink:href="#DejaVuSans-65" x="984.558594"/>
     <use xlink:href="#DejaVuSans-20" x="1046.082031"/>
     <use xlink:href="#DejaVuSans-61" x="1077.869141"/>
     <use xlink:href="#DejaVuSans-6e" x="1139.148438"/>
     <use xlink:href="#DejaVuSans-64" x="1202.527344"/>
     <use xlink:href="#DejaVuSans-20" x="1266.003906"/>
     <use xlink:href="#DejaVuSans-62" x="1297.791016"/>
     <use xlink:href="#DejaVuSans-65" x="1361.267578"/>
     <use xlink:href="#DejaVuSans-73" x="1422.791016"/>
     <use xlink:href="#DejaVuSans-74" x="1474.890625"/>
     <use xlink:href="#DejaVuSans-20" x="1514.099609"/>
     <use xlink:href="#DejaVuSans-66" x="1545.886719"/>
     <use xlink:href="#DejaVuSans-69" x="1581.091797"/>
     <use xlink:href="#DejaVuSans-74" x="1608.875"/>
     <use xlink:href="#DejaVuSans-6e" x="1648.083984"/>
     <use xlink:href="#DejaVuSans-65" x="1711.462891"/>
     <use xlink:href="#DejaVuSans-73" x="1772.986328"/>
     <use xlink:href="#DejaVuSans-73" x="1825.085938"/>
    </g>
   </g>
   <g id="legend_1">
    <g id="patch_7">
     <path d="M 334.779375 108.1845 
L 407.72 108.1845 
Q 409.72 108.1845 409.72 106.1845 
L 409.72 48.472 
Q 409.72 46.472 407.72 46.472 
L 334.779375 46.472 
Q 332.779375 46.472 332.779375 48.472 
L 332.779375 106.1845 
Q 332.779375 108.1845 334.779375 108.1845 
z
" style="fill: #ffffff; opacity: 0.8; stroke: #cccccc; stroke-linejoin: miter"/>
    </g>
    <g id="line2d_31">
     <path d="M 336.779375 54.570438 
L 346.779375 54.570438 
L 356.779375 54.570438 
" style="fill: none; stroke: #0000ff; stroke-width: 1.5; stroke-linecap: square"/>
    </g>
    <g id="text_17">
     <!-- average -->
     <g transform="translate(364.779375 58.070438)scale(0.1 -0.1)">
      <use xlink:href="#DejaVuSans-61"/>
      <use xlink:href="#DejaVuSans-76" x="61.279297"/>
      <use xlink:href="#DejaVuSans-65" x="120.458984"/>
      <use xlink:href="#DejaVuSans-72" x="181.982422"/>
      <use xlink:href="#DejaVuSans-61" x="223.095703"/>
      <use xlink:href="#DejaVuSans-67" x="284.375"/>
      <use xlink:href="#DejaVuSans-65" x="347.851562"/>
     </g>
    </g>
    <g id="line2d_32">
     <path d="M 336.779375 69.248563 
L 346.779375 69.248563 
L 356.779375 69.248563 
" style="fill: none; stroke-dasharray: 9.6,2.4,1.5,2.4; stroke-dashoffset: 0; stroke: #008000; stroke-width: 1.5"/>
    </g>
    <g id="text_18">
     <!-- -1 sd -->
     <g transform="translate(364.779375 72.748563)scale(0.1 -0.1)">
      <defs>
       <path id="DejaVuSans-2d" d="M 313 2009 
L 1997 2009 
L 1997 1497 
L 313 1497 
L 313 2009 
z
" transform="scale(0.015625)"/>
      </defs>
      <use xlink:href="#DejaVuSans-2d"/>
      <use xlink:href="#DejaVuSans-31" x="36.083984"/>
      <use xlink:href="#DejaVuSans-20" x="99.707031"/>
      <use xlink:href="#DejaVuSans-73" x="131.494141"/>
      <use xlink:href="#DejaVuSans-64" x="183.59375"/>
     </g>
    </g>
    <g id="line2d_33">
     <path d="M 336.779375 83.926688 
L 346.779375 83.926688 
L 356.779375 83.926688 
" style="fill: none; stroke-dasharray: 9.6,2.4,1.5,2.4; stroke-dashoffset: 0; stroke: #008000; stroke-width: 1.5"/>
    </g>
    <g id="text_19">
     <!-- +1 sd -->
     <g transform="translate(364.779375 87.426688)scale(0.1 -0.1)">
      <defs>
       <path id="DejaVuSans-2b" d="M 2944 4013 
L 2944 2272 
L 4684 2272 
L 4684 1741 
L 2944 1741 
L 2944 0 
L 2419 0 
L 2419 1741 
L 678 1741 
L 678 2272 
L 2419 2272 
L 2419 4013 
L 2944 4013 
z
" transform="scale(0.015625)"/>
      </defs>
      <use xlink:href="#DejaVuSans-2b"/>
      <use xlink:href="#DejaVuSans-31" x="83.789062"/>
      <use xlink:href="#DejaVuSans-20" x="147.412109"/>
      <use xlink:href="#DejaVuSans-73" x="179.199219"/>
      <use xlink:href="#DejaVuSans-64" x="231.298828"/>
     </g>
    </g>
    <g id="line2d_34">
     <path d="M 336.779375 98.604813 
L 346.779375 98.604813 
L 356.779375 98.604813 
" style="fill: none; stroke: #ff0000; stroke-width: 1.5; stroke-linecap: square"/>
    </g>
    <g id="text_20">
     <!-- best -->
     <g transform="translate(364.779375 102.104813)scale(0.1 -0.1)">
      <use xlink:href="#DejaVuSans-62"/>
      <use xlink:href="#DejaVuSans-65" x="63.476562"/>
      <use xlink:href="#DejaVuSans-73" x="125"/>
      <use xlink:href="#DejaVuSans-74" x="177.099609"/>
     </g>
    </g>
   </g>
  </g>
 </g>
 <defs>
  <clipPath id="p6cd8c9def3">
   <rect x="57.6" y="41.472" width="357.12" height="266.112"/>
  </clipPath>
 </defs>
</svg>
