<?xml version="1.0" encoding="UTF-8" standalone="no"?>
<!DOCTYPE svg PUBLIC "-//W3C//DTD SVG 1.1//EN"
 "http://www.w3.org/Graphics/SVG/1.1/DTD/svg11.dtd">
<!-- Generated by graphviz version 9.0.0 (20230911.1827)
 -->
<!-- Pages: 1 -->
<svg width="1297pt" height="102pt"
 viewBox="0.00 0.00 1297.25 101.98" xmlns="http://www.w3.org/2000/svg" xmlns:xlink="http://www.w3.org/1999/xlink">
<g id="graph0" class="graph" transform="scale(1 1) rotate(0) translate(4 97.98)">
<polygon fill="white" stroke="none" points="-4,4 -4,-97.98 1293.25,-97.98 1293.25,4 -4,4"/>
<!-- &#45;1 -->
<g id="node1" class="node">
<title>&#45;1</title>
<polygon fill="lightgray" stroke="black" points="23.5,-89.11 0,-89.11 0,-69.86 23.5,-69.86 23.5,-89.11"/>
<text text-anchor="middle" x="11.75" y="-76.56" font-family="Times New Roman,serif" font-size="9.00">&#45;1</text>
</g>
<!-- &#45;2 -->
<g id="node2" class="node">
<title>&#45;2</title>
<polygon fill="lightgray" stroke="black" points="65.5,-89.11 42,-89.11 42,-69.86 65.5,-69.86 65.5,-89.11"/>
<text text-anchor="middle" x="53.75" y="-76.56" font-family="Times New Roman,serif" font-size="9.00">&#45;2</text>
</g>
<!-- &#45;3 -->
<g id="node3" class="node">
<title>&#45;3</title>
<polygon fill="lightgray" stroke="black" points="107.5,-89.11 84,-89.11 84,-69.86 107.5,-69.86 107.5,-89.11"/>
<text text-anchor="middle" x="95.75" y="-76.56" font-family="Times New Roman,serif" font-size="9.00">&#45;3</text>
</g>
<!-- &#45;4 -->
<g id="node4" class="node">
<title>&#45;4</title>
<polygon fill="lightgray" stroke="black" points="149.5,-89.11 126,-89.11 126,-69.86 149.5,-69.86 149.5,-89.11"/>
<text text-anchor="middle" x="137.75" y="-76.56" font-family="Times New Roman,serif" font-size="9.00">&#45;4</text>
</g>
<!-- &#45;5 -->
<g id="node5" class="node">
<title>&#45;5</title>
<polygon fill="lightgray" stroke="black" points="191.5,-89.11 168,-89.11 168,-69.86 191.5,-69.86 191.5,-89.11"/>
<text text-anchor="middle" x="179.75" y="-76.56" font-family="Times New Roman,serif" font-size="9.00">&#45;5</text>
</g>
<!-- &#45;6 -->
<g id="node6" class="node">
<title>&#45;6</title>
<polygon fill="lightgray" stroke="black" points="233.5,-89.11 210,-89.11 210,-69.86 233.5,-69.86 233.5,-89.11"/>
<text text-anchor="middle" x="221.75" y="-76.56" font-family="Times New Roman,serif" font-size="9.00">&#45;6</text>
</g>
<!-- 5 -->
<g id="node30" class="node">
<title>5</title>
<ellipse fill="lightblue" stroke="black" cx="243.75" cy="-14.5" rx="14.5" ry="14.5"/>
<text text-anchor="middle" x="243.75" y="-11.57" font-family="Times New Roman,serif" font-size="9.00">5</text>
</g>
<!-- &#45;6&#45;&gt;5 -->
<g id="edge1" class="edge">
<title>&#45;6&#45;&gt;5</title>
<path fill="none" stroke="red" stroke-width="0.16" d="M224.9,-69.46C227.78,-61.23 232.14,-48.73 235.95,-37.83"/>
<polygon fill="red" stroke="red" stroke-width="0.16" points="239.16,-39.26 239.15,-28.67 232.55,-36.95 239.16,-39.26"/>
</g>
<!-- &#45;7 -->
<g id="node7" class="node">
<title>&#45;7</title>
<polygon fill="lightgray" stroke="black" points="321.5,-89.11 298,-89.11 298,-69.86 321.5,-69.86 321.5,-89.11"/>
<text text-anchor="middle" x="309.75" y="-76.56" font-family="Times New Roman,serif" font-size="9.00">&#45;7</text>
</g>
<!-- &#45;8 -->
<g id="node8" class="node">
<title>&#45;8</title>
<polygon fill="lightgray" stroke="black" points="363.5,-89.11 340,-89.11 340,-69.86 363.5,-69.86 363.5,-89.11"/>
<text text-anchor="middle" x="351.75" y="-76.56" font-family="Times New Roman,serif" font-size="9.00">&#45;8</text>
</g>
<!-- 3 -->
<g id="node28" class="node">
<title>3</title>
<ellipse fill="lightblue" stroke="black" cx="351.75" cy="-14.5" rx="14.5" ry="14.5"/>
<text text-anchor="middle" x="351.75" y="-11.57" font-family="Times New Roman,serif" font-size="9.00">3</text>
</g>
<!-- &#45;8&#45;&gt;3 -->
<g id="edge2" class="edge">
<title>&#45;8&#45;&gt;3</title>
<path fill="none" stroke="green" stroke-width="0.5" d="M351.75,-69.46C351.75,-61.77 351.75,-50.34 351.75,-39.98"/>
<polygon fill="green" stroke="green" stroke-width="0.5" points="355.25,-40.14 351.75,-30.14 348.25,-40.14 355.25,-40.14"/>
</g>
<!-- &#45;9 -->
<g id="node9" class="node">
<title>&#45;9</title>
<polygon fill="lightgray" stroke="black" points="410.5,-89.11 387,-89.11 387,-69.86 410.5,-69.86 410.5,-89.11"/>
<text text-anchor="middle" x="398.75" y="-76.56" font-family="Times New Roman,serif" font-size="9.00">&#45;9</text>
</g>
<!-- 2 -->
<g id="node27" class="node">
<title>2</title>
<ellipse fill="lightblue" stroke="black" cx="398.75" cy="-14.5" rx="14.5" ry="14.5"/>
<text text-anchor="middle" x="398.75" y="-11.57" font-family="Times New Roman,serif" font-size="9.00">2</text>
</g>
<!-- &#45;9&#45;&gt;2 -->
<g id="edge4" class="edge">
<title>&#45;9&#45;&gt;2</title>
<path fill="none" stroke="red" stroke-width="1.6" d="M398.75,-69.46C398.75,-62.18 398.75,-51.54 398.75,-41.64"/>
<polygon fill="red" stroke="red" stroke-width="1.6" points="402.25,-41.8 398.75,-31.8 395.25,-41.8 402.25,-41.8"/>
</g>
<!-- &#45;10 -->
<g id="node10" class="node">
<title>&#45;10</title>
<polygon fill="lightgray" stroke="black" points="456.75,-89.11 428.75,-89.11 428.75,-69.86 456.75,-69.86 456.75,-89.11"/>
<text text-anchor="middle" x="442.75" y="-76.56" font-family="Times New Roman,serif" font-size="9.00">&#45;10</text>
</g>
<!-- &#45;11 -->
<g id="node11" class="node">
<title>&#45;11</title>
<polygon fill="lightgray" stroke="black" points="502.75,-89.11 474.75,-89.11 474.75,-69.86 502.75,-69.86 502.75,-89.11"/>
<text text-anchor="middle" x="488.75" y="-76.56" font-family="Times New Roman,serif" font-size="9.00">&#45;11</text>
</g>
<!-- &#45;12 -->
<g id="node12" class="node">
<title>&#45;12</title>
<polygon fill="lightgray" stroke="black" points="548.75,-89.11 520.75,-89.11 520.75,-69.86 548.75,-69.86 548.75,-89.11"/>
<text text-anchor="middle" x="534.75" y="-76.56" font-family="Times New Roman,serif" font-size="9.00">&#45;12</text>
</g>
<!-- &#45;13 -->
<g id="node13" class="node">
<title>&#45;13</title>
<polygon fill="lightgray" stroke="black" points="594.75,-89.11 566.75,-89.11 566.75,-69.86 594.75,-69.86 594.75,-89.11"/>
<text text-anchor="middle" x="580.75" y="-76.56" font-family="Times New Roman,serif" font-size="9.00">&#45;13</text>
</g>
<!-- &#45;14 -->
<g id="node14" class="node">
<title>&#45;14</title>
<polygon fill="lightgray" stroke="black" points="279.75,-89.11 251.75,-89.11 251.75,-69.86 279.75,-69.86 279.75,-89.11"/>
<text text-anchor="middle" x="265.75" y="-76.56" font-family="Times New Roman,serif" font-size="9.00">&#45;14</text>
</g>
<!-- &#45;14&#45;&gt;5 -->
<g id="edge3" class="edge">
<title>&#45;14&#45;&gt;5</title>
<path fill="none" stroke="green" stroke-width="0.99" d="M262.6,-69.46C259.84,-61.57 255.71,-49.74 252.02,-39.17"/>
<polygon fill="green" stroke="green" stroke-width="0.99" points="255.37,-38.14 248.77,-29.86 248.76,-40.45 255.37,-38.14"/>
</g>
<!-- &#45;15 -->
<g id="node15" class="node">
<title>&#45;15</title>
<polygon fill="lightgray" stroke="black" points="640.75,-89.11 612.75,-89.11 612.75,-69.86 640.75,-69.86 640.75,-89.11"/>
<text text-anchor="middle" x="626.75" y="-76.56" font-family="Times New Roman,serif" font-size="9.00">&#45;15</text>
</g>
<!-- &#45;16 -->
<g id="node16" class="node">
<title>&#45;16</title>
<polygon fill="lightgray" stroke="black" points="686.75,-89.11 658.75,-89.11 658.75,-69.86 686.75,-69.86 686.75,-89.11"/>
<text text-anchor="middle" x="672.75" y="-76.56" font-family="Times New Roman,serif" font-size="9.00">&#45;16</text>
</g>
<!-- &#45;17 -->
<g id="node17" class="node">
<title>&#45;17</title>
<polygon fill="lightgray" stroke="black" points="732.75,-89.11 704.75,-89.11 704.75,-69.86 732.75,-69.86 732.75,-89.11"/>
<text text-anchor="middle" x="718.75" y="-76.56" font-family="Times New Roman,serif" font-size="9.00">&#45;17</text>
</g>
<!-- &#45;18 -->
<g id="node18" class="node">
<title>&#45;18</title>
<polygon fill="lightgray" stroke="black" points="778.75,-89.11 750.75,-89.11 750.75,-69.86 778.75,-69.86 778.75,-89.11"/>
<text text-anchor="middle" x="764.75" y="-76.56" font-family="Times New Roman,serif" font-size="9.00">&#45;18</text>
</g>
<!-- &#45;19 -->
<g id="node19" class="node">
<title>&#45;19</title>
<polygon fill="lightgray" stroke="black" points="824.75,-89.11 796.75,-89.11 796.75,-69.86 824.75,-69.86 824.75,-89.11"/>
<text text-anchor="middle" x="810.75" y="-76.56" font-family="Times New Roman,serif" font-size="9.00">&#45;19</text>
</g>
<!-- &#45;20 -->
<g id="node20" class="node">
<title>&#45;20</title>
<polygon fill="lightgray" stroke="black" points="870.75,-89.11 842.75,-89.11 842.75,-69.86 870.75,-69.86 870.75,-89.11"/>
<text text-anchor="middle" x="856.75" y="-76.56" font-family="Times New Roman,serif" font-size="9.00">&#45;20</text>
</g>
<!-- &#45;21 -->
<g id="node21" class="node">
<title>&#45;21</title>
<polygon fill="lightgray" stroke="black" points="916.75,-89.11 888.75,-89.11 888.75,-69.86 916.75,-69.86 916.75,-89.11"/>
<text text-anchor="middle" x="902.75" y="-76.56" font-family="Times New Roman,serif" font-size="9.00">&#45;21</text>
</g>
<!-- &#45;22 -->
<g id="node22" class="node">
<title>&#45;22</title>
<polygon fill="lightgray" stroke="black" points="962.75,-89.11 934.75,-89.11 934.75,-69.86 962.75,-69.86 962.75,-89.11"/>
<text text-anchor="middle" x="948.75" y="-76.56" font-family="Times New Roman,serif" font-size="9.00">&#45;22</text>
</g>
<!-- &#45;23 -->
<g id="node23" class="node">
<title>&#45;23</title>
<polygon fill="lightgray" stroke="black" points="1008.75,-89.11 980.75,-89.11 980.75,-69.86 1008.75,-69.86 1008.75,-89.11"/>
<text text-anchor="middle" x="994.75" y="-76.56" font-family="Times New Roman,serif" font-size="9.00">&#45;23</text>
</g>
<!-- &#45;24 -->
<g id="node24" class="node">
<title>&#45;24</title>
<polygon fill="lightgray" stroke="black" points="1054.75,-89.11 1026.75,-89.11 1026.75,-69.86 1054.75,-69.86 1054.75,-89.11"/>
<text text-anchor="middle" x="1040.75" y="-76.56" font-family="Times New Roman,serif" font-size="9.00">&#45;24</text>
</g>
<!-- 0 -->
<g id="node25" class="node">
<title>0</title>
<ellipse fill="lightblue" stroke="black" cx="1086.75" cy="-79.49" rx="14.5" ry="14.5"/>
<text text-anchor="middle" x="1086.75" y="-76.56" font-family="Times New Roman,serif" font-size="9.00">0</text>
</g>
<!-- 1 -->
<g id="node26" class="node">
<title>1</title>
<ellipse fill="lightblue" stroke="black" cx="1133.75" cy="-79.49" rx="14.5" ry="14.5"/>
<text text-anchor="middle" x="1133.75" y="-76.56" font-family="Times New Roman,serif" font-size="9.00">1</text>
</g>
<!-- 4 -->
<g id="node29" class="node">
<title>4</title>
<ellipse fill="lightblue" stroke="black" cx="1180.75" cy="-79.49" rx="14.5" ry="14.5"/>
<text text-anchor="middle" x="1180.75" y="-76.56" font-family="Times New Roman,serif" font-size="9.00">4</text>
</g>
<!-- 6 -->
<g id="node31" class="node">
<title>6</title>
<ellipse fill="lightblue" stroke="black" cx="1227.75" cy="-79.49" rx="14.5" ry="14.5"/>
<text text-anchor="middle" x="1227.75" y="-76.56" font-family="Times New Roman,serif" font-size="9.00">6</text>
</g>
<!-- 7 -->
<g id="node32" class="node">
<title>7</title>
<ellipse fill="lightblue" stroke="black" cx="1274.75" cy="-79.49" rx="14.5" ry="14.5"/>
<text text-anchor="middle" x="1274.75" y="-76.56" font-family="Times New Roman,serif" font-size="9.00">7</text>
</g>
</g>
</svg>
