<?xml version="1.0" encoding="UTF-8" standalone="no"?>
<!DOCTYPE svg PUBLIC "-//W3C//DTD SVG 1.1//EN"
 "http://www.w3.org/Graphics/SVG/1.1/DTD/svg11.dtd">
<!-- Generated by graphviz version 9.0.0 (20230911.1827)
 -->
<!-- Pages: 1 -->
<svg width="358pt" height="448pt"
 viewBox="0.00 0.00 357.75 447.67" xmlns="http://www.w3.org/2000/svg" xmlns:xlink="http://www.w3.org/1999/xlink">
<g id="graph0" class="graph" transform="scale(1 1) rotate(0) translate(4 443.67)">
<polygon fill="white" stroke="none" points="-4,4 -4,-443.67 353.75,-443.67 353.75,4 -4,4"/>
<!-- &#45;1 -->
<g id="node1" class="node">
<title>&#45;1</title>
<polygon fill="lightgray" stroke="black" points="89.75,-439.67 66.25,-439.67 66.25,-420.42 89.75,-420.42 89.75,-439.67"/>
<text text-anchor="middle" x="78" y="-427.12" font-family="Times New Roman,serif" font-size="9.00">&#45;1</text>
</g>
<!-- 1 -->
<g id="node10" class="node">
<title>1</title>
<ellipse fill="lightblue" stroke="black" cx="102" cy="-24.04" rx="14.5" ry="14.5"/>
<text text-anchor="middle" x="102" y="-21.12" font-family="Times New Roman,serif" font-size="9.00">1</text>
</g>
<!-- &#45;1&#45;&gt;1 -->
<g id="edge3" class="edge">
<title>&#45;1&#45;&gt;1</title>
<path fill="none" stroke="green" stroke-width="0.11" d="M69.35,-419.95C49.05,-397.61 0,-337.42 0,-277.29 0,-277.29 0,-277.29 0,-191.21 0,-127.82 54.58,-68.25 83.89,-40.84"/>
<polygon fill="green" stroke="green" stroke-width="0.11" points="85.93,-43.71 90.97,-34.39 81.22,-38.54 85.93,-43.71"/>
</g>
<!-- 3075 -->
<g id="node11" class="node">
<title>3075</title>
<ellipse fill="white" stroke="black" cx="170" cy="-360.37" rx="24.04" ry="24.04"/>
<text text-anchor="middle" x="170" y="-357.45" font-family="Times New Roman,serif" font-size="9.00">3075</text>
</g>
<!-- &#45;1&#45;&gt;3075 -->
<g id="edge18" class="edge">
<title>&#45;1&#45;&gt;3075</title>
<path fill="none" stroke="green" stroke-width="0.3" d="M90.03,-420.2C103.34,-410.41 125.22,-394.31 142.74,-381.43"/>
<polygon fill="green" stroke="green" stroke-width="0.3" points="144.57,-384.42 150.56,-375.68 140.43,-378.78 144.57,-384.42"/>
</g>
<!-- 2665 -->
<g id="node12" class="node">
<title>2665</title>
<ellipse fill="white" stroke="black" cx="128" cy="-108.12" rx="24.04" ry="24.04"/>
<text text-anchor="middle" x="128" y="-105.2" font-family="Times New Roman,serif" font-size="9.00">2665</text>
</g>
<!-- &#45;1&#45;&gt;2665 -->
<g id="edge4" class="edge">
<title>&#45;1&#45;&gt;2665</title>
<path fill="none" stroke="green" stroke-width="0.41" stroke-dasharray="1,5" d="M74.89,-420.11C66.22,-394.02 43.33,-315.7 57,-252.25 66.24,-209.37 91.15,-164.86 108.85,-137.09"/>
<polygon fill="green" stroke="green" stroke-width="0.41" points="111.69,-139.15 114.21,-128.86 105.82,-135.33 111.69,-139.15"/>
</g>
<!-- 2872 -->
<g id="node15" class="node">
<title>2872</title>
<ellipse fill="white" stroke="black" cx="175" cy="-192.21" rx="24.04" ry="24.04"/>
<text text-anchor="middle" x="175" y="-189.28" font-family="Times New Roman,serif" font-size="9.00">2872</text>
</g>
<!-- &#45;1&#45;&gt;2872 -->
<g id="edge6" class="edge">
<title>&#45;1&#45;&gt;2872</title>
<path fill="none" stroke="green" stroke-width="0.16" stroke-dasharray="1,5" d="M81.68,-420.08C94.85,-388.08 139.94,-278.44 162.27,-224.16"/>
<polygon fill="green" stroke="green" stroke-width="0.16" points="165.5,-225.51 166.07,-214.93 159.03,-222.84 165.5,-225.51"/>
</g>
<!-- &#45;2 -->
<g id="node2" class="node">
<title>&#45;2</title>
<polygon fill="lightgray" stroke="black" points="181.75,-439.67 158.25,-439.67 158.25,-420.42 181.75,-420.42 181.75,-439.67"/>
<text text-anchor="middle" x="170" y="-427.12" font-family="Times New Roman,serif" font-size="9.00">&#45;2</text>
</g>
<!-- &#45;2&#45;&gt;3075 -->
<g id="edge11" class="edge">
<title>&#45;2&#45;&gt;3075</title>
<path fill="none" stroke="red" stroke-width="1.02" d="M170,-420.2C170,-413.97 170,-405.19 170,-396.31"/>
<polygon fill="red" stroke="red" stroke-width="1.02" points="173.5,-396.33 170,-386.33 166.5,-396.33 173.5,-396.33"/>
</g>
<!-- &#45;3 -->
<g id="node3" class="node">
<title>&#45;3</title>
<polygon fill="lightgray" stroke="black" points="223.75,-439.67 200.25,-439.67 200.25,-420.42 223.75,-420.42 223.75,-439.67"/>
<text text-anchor="middle" x="212" y="-427.12" font-family="Times New Roman,serif" font-size="9.00">&#45;3</text>
</g>
<!-- &#45;4 -->
<g id="node4" class="node">
<title>&#45;4</title>
<polygon fill="lightgray" stroke="black" points="265.75,-439.67 242.25,-439.67 242.25,-420.42 265.75,-420.42 265.75,-439.67"/>
<text text-anchor="middle" x="254" y="-427.12" font-family="Times New Roman,serif" font-size="9.00">&#45;4</text>
</g>
<!-- &#45;5 -->
<g id="node5" class="node">
<title>&#45;5</title>
<polygon fill="lightgray" stroke="black" points="307.75,-439.67 284.25,-439.67 284.25,-420.42 307.75,-420.42 307.75,-439.67"/>
<text text-anchor="middle" x="296" y="-427.12" font-family="Times New Roman,serif" font-size="9.00">&#45;5</text>
</g>
<!-- &#45;6 -->
<g id="node6" class="node">
<title>&#45;6</title>
<polygon fill="lightgray" stroke="black" points="240.75,-201.83 217.25,-201.83 217.25,-182.58 240.75,-182.58 240.75,-201.83"/>
<text text-anchor="middle" x="229" y="-189.28" font-family="Times New Roman,serif" font-size="9.00">&#45;6</text>
</g>
<!-- &#45;6&#45;&gt;1 -->
<g id="edge1" class="edge">
<title>&#45;6&#45;&gt;1</title>
<path fill="none" stroke="green" stroke-width="1.49" d="M224.15,-182.16C213.77,-163.13 188.13,-117.95 161,-84.08 148.99,-69.09 133.6,-53.79 121.55,-42.53"/>
<polygon fill="green" stroke="green" stroke-width="1.49" points="124.12,-40.14 114.39,-35.96 119.39,-45.3 124.12,-40.14"/>
</g>
<!-- 3093 -->
<g id="node14" class="node">
<title>3093</title>
<ellipse fill="white" stroke="black" cx="218" cy="-24.04" rx="24.04" ry="24.04"/>
<text text-anchor="middle" x="218" y="-21.12" font-family="Times New Roman,serif" font-size="9.00">3093</text>
</g>
<!-- &#45;6&#45;&gt;3093 -->
<g id="edge12" class="edge">
<title>&#45;6&#45;&gt;3093</title>
<path fill="none" stroke="green" stroke-width="0.58" stroke-dasharray="1,5" d="M228.41,-182.27C226.9,-159.45 222.83,-98.06 220.25,-59.08"/>
<polygon fill="green" stroke="green" stroke-width="0.58" points="223.75,-58.89 219.6,-49.14 216.76,-59.35 223.75,-58.89"/>
</g>
<!-- 3932 -->
<g id="node16" class="node">
<title>3932</title>
<ellipse fill="white" stroke="black" cx="270" cy="-108.12" rx="24.04" ry="24.04"/>
<text text-anchor="middle" x="270" y="-105.2" font-family="Times New Roman,serif" font-size="9.00">3932</text>
</g>
<!-- &#45;6&#45;&gt;3932 -->
<g id="edge14" class="edge">
<title>&#45;6&#45;&gt;3932</title>
<path fill="none" stroke="green" stroke-width="0.4" d="M233.54,-182.11C238.69,-171.81 247.34,-154.48 254.93,-139.3"/>
<polygon fill="green" stroke="green" stroke-width="0.4" points="257.87,-141.25 259.21,-130.74 251.61,-138.12 257.87,-141.25"/>
</g>
<!-- &#45;7 -->
<g id="node7" class="node">
<title>&#45;7</title>
<polygon fill="lightgray" stroke="black" points="349.75,-439.67 326.25,-439.67 326.25,-420.42 349.75,-420.42 349.75,-439.67"/>
<text text-anchor="middle" x="338" y="-427.12" font-family="Times New Roman,serif" font-size="9.00">&#45;7</text>
</g>
<!-- &#45;8 -->
<g id="node8" class="node">
<title>&#45;8</title>
<polygon fill="lightgray" stroke="black" points="89.75,-285.92 66.25,-285.92 66.25,-266.67 89.75,-266.67 89.75,-285.92"/>
<text text-anchor="middle" x="78" y="-273.37" font-family="Times New Roman,serif" font-size="9.00">&#45;8</text>
</g>
<!-- &#45;8&#45;&gt;1 -->
<g id="edge2" class="edge">
<title>&#45;8&#45;&gt;1</title>
<path fill="none" stroke="green" stroke-width="0.63" d="M78.69,-266.52C80.84,-239.37 87.71,-154.36 95,-84.08 96.19,-72.62 97.67,-59.93 98.97,-49.26"/>
<polygon fill="green" stroke="green" stroke-width="0.63" points="102.41,-49.93 100.16,-39.58 95.46,-49.07 102.41,-49.93"/>
</g>
<!-- &#45;8&#45;&gt;2872 -->
<g id="edge13" class="edge">
<title>&#45;8&#45;&gt;2872</title>
<path fill="none" stroke="red" stroke-width="0.1" d="M88.06,-266.24C92.86,-261.97 98.69,-256.81 104,-252.25 118.85,-239.5 135.67,-225.49 149.22,-214.32"/>
<polygon fill="red" stroke="red" stroke-width="0.1" points="151.16,-217.25 156.66,-208.2 146.71,-211.85 151.16,-217.25"/>
</g>
<!-- 0 -->
<g id="node9" class="node">
<title>0</title>
<ellipse fill="lightblue" stroke="black" cx="118" cy="-192.21" rx="14.5" ry="14.5"/>
<text text-anchor="middle" x="118" y="-189.28" font-family="Times New Roman,serif" font-size="9.00">0</text>
</g>
<!-- 0&#45;&gt;2665 -->
<g id="edge10" class="edge">
<title>0&#45;&gt;2665</title>
<path fill="none" stroke="red" stroke-width="0.22" d="M119.65,-177.65C120.82,-168.05 122.44,-154.73 123.95,-142.38"/>
<polygon fill="red" stroke="red" stroke-width="0.22" points="127.4,-143.03 125.13,-132.68 120.45,-142.18 127.4,-143.03"/>
</g>
<!-- 4081 -->
<g id="node13" class="node">
<title>4081</title>
<ellipse fill="white" stroke="black" cx="215" cy="-276.29" rx="24.04" ry="24.04"/>
<text text-anchor="middle" x="215" y="-273.37" font-family="Times New Roman,serif" font-size="9.00">4081</text>
</g>
<!-- 3075&#45;&gt;4081 -->
<g id="edge16" class="edge">
<title>3075&#45;&gt;4081</title>
<path fill="none" stroke="green" stroke-width="0.26" d="M181.36,-338.66C186.63,-329.04 193,-317.42 198.77,-306.89"/>
<polygon fill="green" stroke="green" stroke-width="0.26" points="201.72,-308.79 203.46,-298.34 195.59,-305.42 201.72,-308.79"/>
</g>
<!-- 3075&#45;&gt;2872 -->
<g id="edge8" class="edge">
<title>3075&#45;&gt;2872</title>
<path fill="none" stroke="red" stroke-width="0.41" stroke-dasharray="1,5" d="M170.71,-335.92C171.56,-307.47 173.01,-259.29 173.99,-226.88"/>
<polygon fill="red" stroke="red" stroke-width="0.41" points="177.48,-227.27 174.28,-217.17 170.48,-227.06 177.48,-227.27"/>
</g>
<!-- 2665&#45;&gt;1 -->
<g id="edge5" class="edge">
<title>2665&#45;&gt;1</title>
<path fill="none" stroke="red" stroke-width="0.17" stroke-dasharray="1,5" d="M120.9,-84.7C117.26,-73.21 112.84,-59.26 109.19,-47.74"/>
<polygon fill="red" stroke="red" stroke-width="0.17" points="112.53,-46.7 106.17,-38.22 105.86,-48.81 112.53,-46.7"/>
</g>
<!-- 2665&#45;&gt;3093 -->
<g id="edge9" class="edge">
<title>2665&#45;&gt;3093</title>
<path fill="none" stroke="green" stroke-width="1.29" stroke-dasharray="1,5" d="M145.35,-91.3C158.47,-79.34 176.69,-62.71 191.61,-49.11"/>
<polygon fill="green" stroke="green" stroke-width="1.29" points="193.92,-51.74 198.95,-42.41 189.2,-46.57 193.92,-51.74"/>
</g>
<!-- 4081&#45;&gt;2872 -->
<g id="edge17" class="edge">
<title>4081&#45;&gt;2872</title>
<path fill="none" stroke="red" stroke-width="0.12" d="M204.7,-254.15C200.13,-244.77 194.66,-233.56 189.67,-223.32"/>
<polygon fill="red" stroke="red" stroke-width="0.12" points="192.87,-221.89 185.34,-214.43 186.58,-224.96 192.87,-221.89"/>
</g>
<!-- 2872&#45;&gt;2665 -->
<g id="edge7" class="edge">
<title>2872&#45;&gt;2665</title>
<path fill="none" stroke="green" stroke-width="0.1" d="M163.38,-170.92C157.73,-161.05 150.84,-149.02 144.65,-138.19"/>
<polygon fill="green" stroke="green" stroke-width="0.1" points="147.73,-136.54 139.72,-129.6 141.65,-140.02 147.73,-136.54"/>
</g>
<!-- 3932&#45;&gt;3093 -->
<g id="edge15" class="edge">
<title>3932&#45;&gt;3093</title>
<path fill="none" stroke="green" stroke-width="0.47" d="M257.41,-87.25C251.07,-77.25 243.27,-64.93 236.28,-53.9"/>
<polygon fill="green" stroke="green" stroke-width="0.47" points="239.35,-52.2 231.04,-45.62 233.43,-55.94 239.35,-52.2"/>
</g>
</g>
</svg>
