<?xml version="1.0" encoding="UTF-8" standalone="no"?>
<!DOCTYPE svg PUBLIC "-//W3C//DTD SVG 1.1//EN"
 "http://www.w3.org/Graphics/SVG/1.1/DTD/svg11.dtd">
<!-- Generated by graphviz version 9.0.0 (20230911.1827)
 -->
<!-- Pages: 1 -->
<svg width="326pt" height="92pt"
 viewBox="0.00 0.00 325.50 92.24" xmlns="http://www.w3.org/2000/svg" xmlns:xlink="http://www.w3.org/1999/xlink">
<g id="graph0" class="graph" transform="scale(1 1) rotate(0) translate(4 88.24)">
<polygon fill="white" stroke="none" points="-4,4 -4,-88.24 321.5,-88.24 321.5,4 -4,4"/>
<!-- &#45;1 -->
<g id="node1" class="node">
<title>&#45;1</title>
<polygon fill="lightgray" stroke="black" points="107.5,-84.24 84,-84.24 84,-64.99 107.5,-64.99 107.5,-84.24"/>
<text text-anchor="middle" x="95.75" y="-71.69" font-family="Times New Roman,serif" font-size="9.00">&#45;1</text>
</g>
<!-- 0 -->
<g id="node9" class="node">
<title>0</title>
<ellipse fill="lightblue" stroke="black" cx="53.75" cy="-14.5" rx="14.5" ry="14.5"/>
<text text-anchor="middle" x="53.75" y="-11.57" font-family="Times New Roman,serif" font-size="9.00">0</text>
</g>
<!-- &#45;1&#45;&gt;0 -->
<g id="edge9" class="edge">
<title>&#45;1&#45;&gt;0</title>
<path fill="none" stroke="red" stroke-width="0.2" stroke-dasharray="1,5" d="M89.19,-64.54C83.48,-56.63 75.01,-44.91 67.78,-34.91"/>
<polygon fill="red" stroke="red" stroke-width="0.2" points="70.72,-33 62.02,-26.95 65.04,-37.1 70.72,-33"/>
</g>
<!-- 1 -->
<g id="node10" class="node">
<title>1</title>
<ellipse fill="lightblue" stroke="black" cx="200.75" cy="-14.5" rx="14.5" ry="14.5"/>
<text text-anchor="middle" x="200.75" y="-11.57" font-family="Times New Roman,serif" font-size="9.00">1</text>
</g>
<!-- &#45;1&#45;&gt;1 -->
<g id="edge8" class="edge">
<title>&#45;1&#45;&gt;1</title>
<path fill="none" stroke="red" stroke-width="0.26" stroke-dasharray="1,5" d="M107.79,-66.95C125.17,-57.33 157.55,-39.41 179.13,-27.46"/>
<polygon fill="red" stroke="red" stroke-width="0.26" points="180.8,-30.54 187.86,-22.63 177.41,-24.41 180.8,-30.54"/>
</g>
<!-- 2 -->
<g id="node11" class="node">
<title>2</title>
<ellipse fill="lightblue" stroke="black" cx="100.75" cy="-14.5" rx="14.5" ry="14.5"/>
<text text-anchor="middle" x="100.75" y="-11.57" font-family="Times New Roman,serif" font-size="9.00">2</text>
</g>
<!-- &#45;1&#45;&gt;2 -->
<g id="edge1" class="edge">
<title>&#45;1&#45;&gt;2</title>
<path fill="none" stroke="green" stroke-width="0.41" stroke-dasharray="1,5" d="M96.53,-64.54C97.1,-57.89 97.91,-48.54 98.66,-39.79"/>
<polygon fill="green" stroke="green" stroke-width="0.41" points="102.14,-40.15 99.51,-29.88 95.17,-39.55 102.14,-40.15"/>
</g>
<!-- &#45;2 -->
<g id="node2" class="node">
<title>&#45;2</title>
<polygon fill="lightgray" stroke="black" points="23.5,-84.24 0,-84.24 0,-64.99 23.5,-64.99 23.5,-84.24"/>
<text text-anchor="middle" x="11.75" y="-71.69" font-family="Times New Roman,serif" font-size="9.00">&#45;2</text>
</g>
<!-- &#45;2&#45;&gt;0 -->
<g id="edge13" class="edge">
<title>&#45;2&#45;&gt;0</title>
<path fill="none" stroke="red" stroke-width="0.35" stroke-dasharray="1,5" d="M18.31,-64.54C23.96,-56.71 32.32,-45.15 39.5,-35.21"/>
<polygon fill="red" stroke="red" stroke-width="0.35" points="42.33,-37.28 45.35,-27.13 36.65,-33.18 42.33,-37.28"/>
</g>
<!-- &#45;2&#45;&gt;2 -->
<g id="edge3" class="edge">
<title>&#45;2&#45;&gt;2</title>
<path fill="none" stroke="green" stroke-width="0.82" stroke-dasharray="1,5" d="M23.75,-65.78C38.03,-56.45 62.13,-40.72 79.56,-29.33"/>
<polygon fill="green" stroke="green" stroke-width="0.82" points="81.44,-32.28 87.9,-23.89 77.62,-26.42 81.44,-32.28"/>
</g>
<!-- &#45;3 -->
<g id="node3" class="node">
<title>&#45;3</title>
<polygon fill="lightgray" stroke="black" points="275.5,-84.24 252,-84.24 252,-64.99 275.5,-64.99 275.5,-84.24"/>
<text text-anchor="middle" x="263.75" y="-71.69" font-family="Times New Roman,serif" font-size="9.00">&#45;3</text>
</g>
<!-- &#45;3&#45;&gt;1 -->
<g id="edge7" class="edge">
<title>&#45;3&#45;&gt;1</title>
<path fill="none" stroke="green" stroke-width="2.58" d="M253.91,-64.54C245.19,-56.49 232.17,-44.48 221.2,-34.37"/>
<polygon fill="green" stroke="green" stroke-width="2.58" points="223.75,-31.95 214.02,-27.74 219,-37.09 223.75,-31.95"/>
</g>
<!-- &#45;4 -->
<g id="node4" class="node">
<title>&#45;4</title>
<polygon fill="lightgray" stroke="black" points="65.5,-84.24 42,-84.24 42,-64.99 65.5,-64.99 65.5,-84.24"/>
<text text-anchor="middle" x="53.75" y="-71.69" font-family="Times New Roman,serif" font-size="9.00">&#45;4</text>
</g>
<!-- &#45;4&#45;&gt;0 -->
<g id="edge11" class="edge">
<title>&#45;4&#45;&gt;0</title>
<path fill="none" stroke="red" stroke-width="1.29" d="M53.75,-64.54C53.75,-58.19 53.75,-49.37 53.75,-40.96"/>
<polygon fill="red" stroke="red" stroke-width="1.29" points="57.25,-41.22 53.75,-31.22 50.25,-41.22 57.25,-41.22"/>
</g>
<!-- &#45;4&#45;&gt;2 -->
<g id="edge12" class="edge">
<title>&#45;4&#45;&gt;2</title>
<path fill="none" stroke="green" stroke-width="0.23" stroke-dasharray="1,5" d="M61.09,-64.54C67.63,-56.45 77.39,-44.38 85.6,-34.23"/>
<polygon fill="green" stroke="green" stroke-width="0.23" points="88.23,-36.54 91.8,-26.56 82.79,-32.14 88.23,-36.54"/>
</g>
<!-- &#45;5 -->
<g id="node5" class="node">
<title>&#45;5</title>
<polygon fill="lightgray" stroke="black" points="191.5,-84.24 168,-84.24 168,-64.99 191.5,-64.99 191.5,-84.24"/>
<text text-anchor="middle" x="179.75" y="-71.69" font-family="Times New Roman,serif" font-size="9.00">&#45;5</text>
</g>
<!-- &#45;5&#45;&gt;1 -->
<g id="edge5" class="edge">
<title>&#45;5&#45;&gt;1</title>
<path fill="none" stroke="red" stroke-width="0.7" d="M183.03,-64.54C185.52,-57.63 189.07,-47.82 192.34,-38.79"/>
<polygon fill="red" stroke="red" stroke-width="0.7" points="195.62,-39.99 195.73,-29.39 189.04,-37.61 195.62,-39.99"/>
</g>
<!-- &#45;5&#45;&gt;2 -->
<g id="edge4" class="edge">
<title>&#45;5&#45;&gt;2</title>
<path fill="none" stroke="green" stroke-width="2.36" d="M167.75,-64.79C155.83,-56.02 137.28,-42.37 122.71,-31.65"/>
<polygon fill="green" stroke="green" stroke-width="2.36" points="125.09,-29.06 114.96,-25.95 120.94,-34.7 125.09,-29.06"/>
</g>
<!-- &#45;6 -->
<g id="node6" class="node">
<title>&#45;6</title>
<polygon fill="lightgray" stroke="black" points="149.5,-84.24 126,-84.24 126,-64.99 149.5,-64.99 149.5,-84.24"/>
<text text-anchor="middle" x="137.75" y="-71.69" font-family="Times New Roman,serif" font-size="9.00">&#45;6</text>
</g>
<!-- &#45;6&#45;&gt;0 -->
<g id="edge15" class="edge">
<title>&#45;6&#45;&gt;0</title>
<path fill="none" stroke="green" stroke-width="0.5" d="M125.71,-65.29C112.29,-56 90.34,-40.82 74.21,-29.65"/>
<polygon fill="green" stroke="green" stroke-width="0.5" points="76.33,-26.86 66.12,-24.05 72.35,-32.62 76.33,-26.86"/>
</g>
<!-- &#45;6&#45;&gt;1 -->
<g id="edge2" class="edge">
<title>&#45;6&#45;&gt;1</title>
<path fill="none" stroke="red" d="M147.59,-64.54C156.77,-56.07 170.7,-43.22 181.99,-32.8"/>
<polygon fill="red" stroke="red" points="184.26,-35.47 189.23,-26.12 179.51,-30.33 184.26,-35.47"/>
</g>
<!-- &#45;7 -->
<g id="node7" class="node">
<title>&#45;7</title>
<polygon fill="lightgray" stroke="black" points="317.5,-84.24 294,-84.24 294,-64.99 317.5,-64.99 317.5,-84.24"/>
<text text-anchor="middle" x="305.75" y="-71.69" font-family="Times New Roman,serif" font-size="9.00">&#45;7</text>
</g>
<!-- &#45;7&#45;&gt;1 -->
<g id="edge10" class="edge">
<title>&#45;7&#45;&gt;1</title>
<path fill="none" stroke="green" stroke-width="0.32" stroke-dasharray="1,5" d="M293.71,-66.95C276.33,-57.33 243.95,-39.41 222.37,-27.46"/>
<polygon fill="green" stroke="green" stroke-width="0.32" points="224.18,-24.46 213.73,-22.68 220.79,-30.59 224.18,-24.46"/>
</g>
<!-- &#45;8 -->
<g id="node8" class="node">
<title>&#45;8</title>
<polygon fill="lightgray" stroke="black" points="233.5,-84.24 210,-84.24 210,-64.99 233.5,-64.99 233.5,-84.24"/>
<text text-anchor="middle" x="221.75" y="-71.69" font-family="Times New Roman,serif" font-size="9.00">&#45;8</text>
</g>
<!-- &#45;8&#45;&gt;1 -->
<g id="edge14" class="edge">
<title>&#45;8&#45;&gt;1</title>
<path fill="none" stroke="green" stroke-width="0.33" d="M218.47,-64.54C215.92,-57.48 212.27,-47.39 208.95,-38.19"/>
<polygon fill="green" stroke="green" stroke-width="0.33" points="212.27,-37.08 205.58,-28.87 205.69,-39.46 212.27,-37.08"/>
</g>
<!-- &#45;8&#45;&gt;2 -->
<g id="edge6" class="edge">
<title>&#45;8&#45;&gt;2</title>
<path fill="none" stroke="green" stroke-width="0.11" d="M209.71,-67.83C189.46,-58.11 148.31,-38.34 122.78,-26.08"/>
<polygon fill="green" stroke="green" stroke-width="0.11" points="124.51,-23.03 113.98,-21.85 121.48,-29.34 124.51,-23.03"/>
</g>
</g>
</svg>
