<?xml version="1.0" encoding="UTF-8" standalone="no"?>
<!DOCTYPE svg PUBLIC "-//W3C//DTD SVG 1.1//EN"
 "http://www.w3.org/Graphics/SVG/1.1/DTD/svg11.dtd">
<!-- Generated by graphviz version 9.0.0 (20230911.1827)
 -->
<!-- Pages: 1 -->
<svg width="1219pt" height="192pt"
 viewBox="0.00 0.00 1218.99 192.43" xmlns="http://www.w3.org/2000/svg" xmlns:xlink="http://www.w3.org/1999/xlink">
<g id="graph0" class="graph" transform="scale(1 1) rotate(0) translate(4 188.43)">
<polygon fill="white" stroke="none" points="-4,4 -4,-188.43 1214.99,-188.43 1214.99,4 -4,4"/>
<!-- &#45;1 -->
<g id="node1" class="node">
<title>&#45;1</title>
<polygon fill="lightgray" stroke="black" points="67.25,-179.56 43.75,-179.56 43.75,-160.31 67.25,-160.31 67.25,-179.56"/>
<text text-anchor="middle" x="55.5" y="-167.01" font-family="Times New Roman,serif" font-size="9.00">&#45;1</text>
</g>
<!-- &#45;2 -->
<g id="node2" class="node">
<title>&#45;2</title>
<polygon fill="lightgray" stroke="black" points="109.25,-179.56 85.75,-179.56 85.75,-160.31 109.25,-160.31 109.25,-179.56"/>
<text text-anchor="middle" x="97.5" y="-167.01" font-family="Times New Roman,serif" font-size="9.00">&#45;2</text>
</g>
<!-- 0 -->
<g id="node25" class="node">
<title>0</title>
<ellipse fill="lightblue" stroke="black" cx="14.5" cy="-98.58" rx="14.5" ry="14.5"/>
<text text-anchor="middle" x="14.5" y="-95.65" font-family="Times New Roman,serif" font-size="9.00">0</text>
</g>
<!-- &#45;2&#45;&gt;0 -->
<g id="edge1" class="edge">
<title>&#45;2&#45;&gt;0</title>
<path fill="none" stroke="green" stroke-width="0.95" d="M86.38,-159.89C74.28,-150.02 54.42,-133.72 37.5,-119.44 36.24,-118.38 34.94,-117.28 33.64,-116.16"/>
<polygon fill="green" stroke="green" stroke-width="0.95" points="36.17,-113.73 26.31,-109.86 31.61,-119.04 36.17,-113.73"/>
</g>
<!-- 351 -->
<g id="node33" class="node">
<title>351</title>
<ellipse fill="white" stroke="black" cx="67.5" cy="-98.58" rx="20.86" ry="20.86"/>
<text text-anchor="middle" x="67.5" y="-95.65" font-family="Times New Roman,serif" font-size="9.00">351</text>
</g>
<!-- &#45;2&#45;&gt;351 -->
<g id="edge10" class="edge">
<title>&#45;2&#45;&gt;351</title>
<path fill="none" stroke="red" stroke-width="0.24" d="M93.57,-159.87C90.02,-151.66 84.61,-139.14 79.63,-127.63"/>
<polygon fill="red" stroke="red" stroke-width="0.24" points="82.93,-126.44 75.74,-118.65 76.5,-129.22 82.93,-126.44"/>
</g>
<!-- 249 -->
<g id="node34" class="node">
<title>249</title>
<ellipse fill="white" stroke="black" cx="127.5" cy="-98.58" rx="20.86" ry="20.86"/>
<text text-anchor="middle" x="127.5" y="-95.65" font-family="Times New Roman,serif" font-size="9.00">249</text>
</g>
<!-- &#45;2&#45;&gt;249 -->
<g id="edge6" class="edge">
<title>&#45;2&#45;&gt;249</title>
<path fill="none" stroke="green" stroke-width="0.36" stroke-dasharray="1,5" d="M101.42,-159.87C104.93,-151.75 110.28,-139.39 115.21,-127.97"/>
<polygon fill="green" stroke="green" stroke-width="0.36" points="118.42,-129.37 119.18,-118.8 112,-126.59 118.42,-129.37"/>
</g>
<!-- 287 -->
<g id="node35" class="node">
<title>287</title>
<ellipse fill="white" stroke="black" cx="172.5" cy="-20.86" rx="20.86" ry="20.86"/>
<text text-anchor="middle" x="172.5" y="-17.93" font-family="Times New Roman,serif" font-size="9.00">287</text>
</g>
<!-- &#45;2&#45;&gt;287 -->
<g id="edge8" class="edge">
<title>&#45;2&#45;&gt;287</title>
<path fill="none" stroke="green" stroke-width="0.34" d="M109.42,-162.69C123.42,-154.67 146.15,-139.4 157.5,-119.44 169.12,-98.98 172.59,-72.39 173.31,-52.14"/>
<polygon fill="green" stroke="green" stroke-width="0.34" points="176.81,-52.46 173.46,-42.41 169.81,-52.36 176.81,-52.46"/>
</g>
<!-- &#45;3 -->
<g id="node3" class="node">
<title>&#45;3</title>
<polygon fill="lightgray" stroke="black" points="203.25,-179.56 179.75,-179.56 179.75,-160.31 203.25,-160.31 203.25,-179.56"/>
<text text-anchor="middle" x="191.5" y="-167.01" font-family="Times New Roman,serif" font-size="9.00">&#45;3</text>
</g>
<!-- &#45;4 -->
<g id="node4" class="node">
<title>&#45;4</title>
<polygon fill="lightgray" stroke="black" points="305.25,-179.56 281.75,-179.56 281.75,-160.31 305.25,-160.31 305.25,-179.56"/>
<text text-anchor="middle" x="293.5" y="-167.01" font-family="Times New Roman,serif" font-size="9.00">&#45;4</text>
</g>
<!-- 1 -->
<g id="node26" class="node">
<title>1</title>
<ellipse fill="lightblue" stroke="black" cx="315.5" cy="-98.58" rx="14.5" ry="14.5"/>
<text text-anchor="middle" x="315.5" y="-95.65" font-family="Times New Roman,serif" font-size="9.00">1</text>
</g>
<!-- &#45;4&#45;&gt;1 -->
<g id="edge13" class="edge">
<title>&#45;4&#45;&gt;1</title>
<path fill="none" stroke="red" stroke-width="0.19" d="M296.37,-159.87C299.37,-150.42 304.18,-135.25 308.23,-122.49"/>
<polygon fill="red" stroke="red" stroke-width="0.19" points="311.49,-123.8 311.17,-113.21 304.81,-121.68 311.49,-123.8"/>
</g>
<!-- &#45;5 -->
<g id="node5" class="node">
<title>&#45;5</title>
<polygon fill="lightgray" stroke="black" points="393.25,-179.56 369.75,-179.56 369.75,-160.31 393.25,-160.31 393.25,-179.56"/>
<text text-anchor="middle" x="381.5" y="-167.01" font-family="Times New Roman,serif" font-size="9.00">&#45;5</text>
</g>
<!-- &#45;6 -->
<g id="node6" class="node">
<title>&#45;6</title>
<polygon fill="lightgray" stroke="black" points="234.25,-108.2 210.75,-108.2 210.75,-88.95 234.25,-88.95 234.25,-108.2"/>
<text text-anchor="middle" x="222.5" y="-95.65" font-family="Times New Roman,serif" font-size="9.00">&#45;6</text>
</g>
<!-- 4 -->
<g id="node29" class="node">
<title>4</title>
<ellipse fill="lightblue" stroke="black" cx="225.5" cy="-20.86" rx="14.5" ry="14.5"/>
<text text-anchor="middle" x="225.5" y="-17.93" font-family="Times New Roman,serif" font-size="9.00">4</text>
</g>
<!-- &#45;6&#45;&gt;4 -->
<g id="edge14" class="edge">
<title>&#45;6&#45;&gt;4</title>
<path fill="none" stroke="green" stroke-width="0.16" d="M222.85,-88.6C223.27,-78.07 223.98,-60.2 224.55,-45.61"/>
<polygon fill="green" stroke="green" stroke-width="0.16" points="228.04,-46.07 224.94,-35.94 221.04,-45.79 228.04,-46.07"/>
</g>
<!-- &#45;6&#45;&gt;287 -->
<g id="edge9" class="edge">
<title>&#45;6&#45;&gt;287</title>
<path fill="none" stroke="green" stroke-width="0.59" d="M216.56,-88.6C209.94,-78.57 198.93,-61.89 189.57,-47.72"/>
<polygon fill="green" stroke="green" stroke-width="0.59" points="192.65,-46.02 184.22,-39.61 186.81,-49.88 192.65,-46.02"/>
</g>
<!-- &#45;7 -->
<g id="node7" class="node">
<title>&#45;7</title>
<polygon fill="lightgray" stroke="black" points="435.25,-179.56 411.75,-179.56 411.75,-160.31 435.25,-160.31 435.25,-179.56"/>
<text text-anchor="middle" x="423.5" y="-167.01" font-family="Times New Roman,serif" font-size="9.00">&#45;7</text>
</g>
<!-- &#45;8 -->
<g id="node8" class="node">
<title>&#45;8</title>
<polygon fill="lightgray" stroke="black" points="477.25,-179.56 453.75,-179.56 453.75,-160.31 477.25,-160.31 477.25,-179.56"/>
<text text-anchor="middle" x="465.5" y="-167.01" font-family="Times New Roman,serif" font-size="9.00">&#45;8</text>
</g>
<!-- 6 -->
<g id="node31" class="node">
<title>6</title>
<ellipse fill="lightblue" stroke="black" cx="487.5" cy="-98.58" rx="14.5" ry="14.5"/>
<text text-anchor="middle" x="487.5" y="-95.65" font-family="Times New Roman,serif" font-size="9.00">6</text>
</g>
<!-- &#45;8&#45;&gt;6 -->
<g id="edge12" class="edge">
<title>&#45;8&#45;&gt;6</title>
<path fill="none" stroke="green" stroke-width="0.24" stroke-dasharray="1,5" d="M468.37,-159.87C471.37,-150.42 476.18,-135.25 480.23,-122.49"/>
<polygon fill="green" stroke="green" stroke-width="0.24" points="483.46,-123.87 483.15,-113.28 476.79,-121.75 483.46,-123.87"/>
</g>
<!-- &#45;9 -->
<g id="node9" class="node">
<title>&#45;9</title>
<polygon fill="lightgray" stroke="black" points="565.25,-179.56 541.75,-179.56 541.75,-160.31 565.25,-160.31 565.25,-179.56"/>
<text text-anchor="middle" x="553.5" y="-167.01" font-family="Times New Roman,serif" font-size="9.00">&#45;9</text>
</g>
<!-- &#45;10 -->
<g id="node10" class="node">
<title>&#45;10</title>
<polygon fill="lightgray" stroke="black" points="351.5,-179.56 323.5,-179.56 323.5,-160.31 351.5,-160.31 351.5,-179.56"/>
<text text-anchor="middle" x="337.5" y="-167.01" font-family="Times New Roman,serif" font-size="9.00">&#45;10</text>
</g>
<!-- &#45;10&#45;&gt;1 -->
<g id="edge4" class="edge">
<title>&#45;10&#45;&gt;1</title>
<path fill="none" stroke="green" stroke-width="0.45" d="M334.62,-159.87C331.65,-150.52 326.91,-135.55 322.88,-122.87"/>
<polygon fill="green" stroke="green" stroke-width="0.45" points="326.29,-122.04 319.93,-113.57 319.62,-124.16 326.29,-122.04"/>
</g>
<!-- &#45;11 -->
<g id="node11" class="node">
<title>&#45;11</title>
<polygon fill="lightgray" stroke="black" points="611.5,-179.56 583.5,-179.56 583.5,-160.31 611.5,-160.31 611.5,-179.56"/>
<text text-anchor="middle" x="597.5" y="-167.01" font-family="Times New Roman,serif" font-size="9.00">&#45;11</text>
</g>
<!-- &#45;12 -->
<g id="node12" class="node">
<title>&#45;12</title>
<polygon fill="lightgray" stroke="black" points="657.5,-179.56 629.5,-179.56 629.5,-160.31 657.5,-160.31 657.5,-179.56"/>
<text text-anchor="middle" x="643.5" y="-167.01" font-family="Times New Roman,serif" font-size="9.00">&#45;12</text>
</g>
<!-- &#45;13 -->
<g id="node13" class="node">
<title>&#45;13</title>
<polygon fill="lightgray" stroke="black" points="283.5,-108.2 255.5,-108.2 255.5,-88.95 283.5,-88.95 283.5,-108.2"/>
<text text-anchor="middle" x="269.5" y="-95.65" font-family="Times New Roman,serif" font-size="9.00">&#45;13</text>
</g>
<!-- 2 -->
<g id="node27" class="node">
<title>2</title>
<ellipse fill="lightblue" stroke="black" cx="272.5" cy="-20.86" rx="14.5" ry="14.5"/>
<text text-anchor="middle" x="272.5" y="-17.93" font-family="Times New Roman,serif" font-size="9.00">2</text>
</g>
<!-- &#45;13&#45;&gt;2 -->
<g id="edge5" class="edge">
<title>&#45;13&#45;&gt;2</title>
<path fill="none" stroke="green" stroke-width="0.2" d="M269.85,-88.6C270.27,-78.07 270.98,-60.2 271.55,-45.61"/>
<polygon fill="green" stroke="green" stroke-width="0.2" points="275.04,-46.14 271.94,-36.01 268.04,-45.86 275.04,-46.14"/>
</g>
<!-- &#45;13&#45;&gt;4 -->
<g id="edge7" class="edge">
<title>&#45;13&#45;&gt;4</title>
<path fill="none" stroke="red" stroke-width="0.17" d="M264.28,-88.6C257.72,-77.31 246.25,-57.58 237.49,-42.5"/>
<polygon fill="red" stroke="red" stroke-width="0.17" points="240.63,-40.93 232.57,-34.04 234.57,-44.45 240.63,-40.93"/>
</g>
<!-- &#45;14 -->
<g id="node14" class="node">
<title>&#45;14</title>
<polygon fill="lightgray" stroke="black" points="703.5,-179.56 675.5,-179.56 675.5,-160.31 703.5,-160.31 703.5,-179.56"/>
<text text-anchor="middle" x="689.5" y="-167.01" font-family="Times New Roman,serif" font-size="9.00">&#45;14</text>
</g>
<!-- 3 -->
<g id="node28" class="node">
<title>3</title>
<ellipse fill="lightblue" stroke="black" cx="689.5" cy="-98.58" rx="14.5" ry="14.5"/>
<text text-anchor="middle" x="689.5" y="-95.65" font-family="Times New Roman,serif" font-size="9.00">3</text>
</g>
<!-- &#45;14&#45;&gt;3 -->
<g id="edge2" class="edge">
<title>&#45;14&#45;&gt;3</title>
<path fill="none" stroke="green" stroke-width="0.96" d="M689.5,-159.87C689.5,-151 689.5,-137.08 689.5,-124.86"/>
<polygon fill="green" stroke="green" stroke-width="0.96" points="693,-124.89 689.5,-114.89 686,-124.89 693,-124.89"/>
</g>
<!-- &#45;15 -->
<g id="node15" class="node">
<title>&#45;15</title>
<polygon fill="lightgray" stroke="black" points="749.5,-179.56 721.5,-179.56 721.5,-160.31 749.5,-160.31 749.5,-179.56"/>
<text text-anchor="middle" x="735.5" y="-167.01" font-family="Times New Roman,serif" font-size="9.00">&#45;15</text>
</g>
<!-- &#45;16 -->
<g id="node16" class="node">
<title>&#45;16</title>
<polygon fill="lightgray" stroke="black" points="795.5,-179.56 767.5,-179.56 767.5,-160.31 795.5,-160.31 795.5,-179.56"/>
<text text-anchor="middle" x="781.5" y="-167.01" font-family="Times New Roman,serif" font-size="9.00">&#45;16</text>
</g>
<!-- &#45;17 -->
<g id="node17" class="node">
<title>&#45;17</title>
<polygon fill="lightgray" stroke="black" points="841.5,-179.56 813.5,-179.56 813.5,-160.31 841.5,-160.31 841.5,-179.56"/>
<text text-anchor="middle" x="827.5" y="-167.01" font-family="Times New Roman,serif" font-size="9.00">&#45;17</text>
</g>
<!-- &#45;18 -->
<g id="node18" class="node">
<title>&#45;18</title>
<polygon fill="lightgray" stroke="black" points="887.5,-179.56 859.5,-179.56 859.5,-160.31 887.5,-160.31 887.5,-179.56"/>
<text text-anchor="middle" x="873.5" y="-167.01" font-family="Times New Roman,serif" font-size="9.00">&#45;18</text>
</g>
<!-- &#45;19 -->
<g id="node19" class="node">
<title>&#45;19</title>
<polygon fill="lightgray" stroke="black" points="933.5,-179.56 905.5,-179.56 905.5,-160.31 933.5,-160.31 933.5,-179.56"/>
<text text-anchor="middle" x="919.5" y="-167.01" font-family="Times New Roman,serif" font-size="9.00">&#45;19</text>
</g>
<!-- &#45;20 -->
<g id="node20" class="node">
<title>&#45;20</title>
<polygon fill="lightgray" stroke="black" points="979.5,-179.56 951.5,-179.56 951.5,-160.31 979.5,-160.31 979.5,-179.56"/>
<text text-anchor="middle" x="965.5" y="-167.01" font-family="Times New Roman,serif" font-size="9.00">&#45;20</text>
</g>
<!-- &#45;21 -->
<g id="node21" class="node">
<title>&#45;21</title>
<polygon fill="lightgray" stroke="black" points="1025.5,-179.56 997.5,-179.56 997.5,-160.31 1025.5,-160.31 1025.5,-179.56"/>
<text text-anchor="middle" x="1011.5" y="-167.01" font-family="Times New Roman,serif" font-size="9.00">&#45;21</text>
</g>
<!-- &#45;22 -->
<g id="node22" class="node">
<title>&#45;22</title>
<polygon fill="lightgray" stroke="black" points="523.5,-179.56 495.5,-179.56 495.5,-160.31 523.5,-160.31 523.5,-179.56"/>
<text text-anchor="middle" x="509.5" y="-167.01" font-family="Times New Roman,serif" font-size="9.00">&#45;22</text>
</g>
<!-- &#45;22&#45;&gt;6 -->
<g id="edge3" class="edge">
<title>&#45;22&#45;&gt;6</title>
<path fill="none" stroke="red" stroke-width="0.41" d="M506.62,-159.87C503.65,-150.52 498.91,-135.55 494.88,-122.87"/>
<polygon fill="red" stroke="red" stroke-width="0.41" points="498.28,-121.99 491.92,-113.52 491.6,-124.11 498.28,-121.99"/>
</g>
<!-- &#45;23 -->
<g id="node23" class="node">
<title>&#45;23</title>
<polygon fill="lightgray" stroke="black" points="1071.5,-179.56 1043.5,-179.56 1043.5,-160.31 1071.5,-160.31 1071.5,-179.56"/>
<text text-anchor="middle" x="1057.5" y="-167.01" font-family="Times New Roman,serif" font-size="9.00">&#45;23</text>
</g>
<!-- &#45;24 -->
<g id="node24" class="node">
<title>&#45;24</title>
<polygon fill="lightgray" stroke="black" points="1117.5,-179.56 1089.5,-179.56 1089.5,-160.31 1117.5,-160.31 1117.5,-179.56"/>
<text text-anchor="middle" x="1103.5" y="-167.01" font-family="Times New Roman,serif" font-size="9.00">&#45;24</text>
</g>
<!-- 5 -->
<g id="node30" class="node">
<title>5</title>
<ellipse fill="lightblue" stroke="black" cx="1149.5" cy="-169.93" rx="14.5" ry="14.5"/>
<text text-anchor="middle" x="1149.5" y="-167.01" font-family="Times New Roman,serif" font-size="9.00">5</text>
</g>
<!-- 7 -->
<g id="node32" class="node">
<title>7</title>
<ellipse fill="lightblue" stroke="black" cx="1196.5" cy="-169.93" rx="14.5" ry="14.5"/>
<text text-anchor="middle" x="1196.5" y="-167.01" font-family="Times New Roman,serif" font-size="9.00">7</text>
</g>
<!-- 351&#45;&gt;287 -->
<g id="edge11" class="edge">
<title>351&#45;&gt;287</title>
<path fill="none" stroke="red" stroke-width="0.11" d="M83.9,-85.75C100.98,-73.43 127.95,-53.98 147.65,-39.78"/>
<polygon fill="red" stroke="red" stroke-width="0.11" points="149.66,-42.64 155.73,-33.95 145.57,-36.96 149.66,-42.64"/>
</g>
</g>
</svg>
