<?xml version="1.0" encoding="UTF-8" standalone="no"?>
<!DOCTYPE svg PUBLIC "-//W3C//DTD SVG 1.1//EN"
 "http://www.w3.org/Graphics/SVG/1.1/DTD/svg11.dtd">
<!-- Generated by graphviz version 9.0.0 (20230911.1827)
 -->
<!-- Pages: 1 -->
<svg width="1265pt" height="176pt"
 viewBox="0.00 0.00 1264.75 176.32" xmlns="http://www.w3.org/2000/svg" xmlns:xlink="http://www.w3.org/1999/xlink">
<g id="graph0" class="graph" transform="scale(1 1) rotate(0) translate(4 172.32)">
<polygon fill="white" stroke="none" points="-4,4 -4,-172.32 1260.75,-172.32 1260.75,4 -4,4"/>
<!-- &#45;1 -->
<g id="node1" class="node">
<title>&#45;1</title>
<polygon fill="lightgray" stroke="black" points="103.5,-98.66 80,-98.66 80,-79.41 103.5,-79.41 103.5,-98.66"/>
<text text-anchor="middle" x="91.75" y="-86.11" font-family="Times New Roman,serif" font-size="9.00">&#45;1</text>
</g>
<!-- 2 -->
<g id="node27" class="node">
<title>2</title>
<ellipse fill="lightblue" stroke="black" cx="112.75" cy="-14.5" rx="14.5" ry="14.5"/>
<text text-anchor="middle" x="112.75" y="-11.57" font-family="Times New Roman,serif" font-size="9.00">2</text>
</g>
<!-- &#45;1&#45;&gt;2 -->
<g id="edge13" class="edge">
<title>&#45;1&#45;&gt;2</title>
<path fill="none" stroke="green" stroke-width="0.97" d="M94.33,-79.14C97.17,-69.33 101.86,-53.12 105.79,-39.52"/>
<polygon fill="green" stroke="green" stroke-width="0.97" points="109.04,-40.9 108.46,-30.32 102.32,-38.95 109.04,-40.9"/>
</g>
<!-- &#45;2 -->
<g id="node2" class="node">
<title>&#45;2</title>
<polygon fill="lightgray" stroke="black" points="145.5,-98.66 122,-98.66 122,-79.41 145.5,-79.41 145.5,-98.66"/>
<text text-anchor="middle" x="133.75" y="-86.11" font-family="Times New Roman,serif" font-size="9.00">&#45;2</text>
</g>
<!-- 0 -->
<g id="node25" class="node">
<title>0</title>
<ellipse fill="lightblue" stroke="black" cx="263.75" cy="-14.5" rx="14.5" ry="14.5"/>
<text text-anchor="middle" x="263.75" y="-11.57" font-family="Times New Roman,serif" font-size="9.00">0</text>
</g>
<!-- &#45;2&#45;&gt;0 -->
<g id="edge4" class="edge">
<title>&#45;2&#45;&gt;0</title>
<path fill="none" stroke="red" stroke-width="0.56" stroke-dasharray="1,5" d="M140.41,-79.12C144.23,-74.47 149.32,-68.94 154.75,-64.99 181.45,-45.57 216.98,-31.19 240.1,-23.08"/>
<polygon fill="red" stroke="red" stroke-width="0.56" points="240.93,-26.49 249.28,-19.97 238.68,-19.87 240.93,-26.49"/>
</g>
<!-- &#45;2&#45;&gt;2 -->
<g id="edge28" class="edge">
<title>&#45;2&#45;&gt;2</title>
<path fill="none" stroke="red" stroke-width="0.12" d="M131.17,-79.14C128.25,-69.03 123.36,-52.14 119.35,-38.3"/>
<polygon fill="red" stroke="red" stroke-width="0.12" points="122.83,-37.72 116.68,-29.08 116.1,-39.66 122.83,-37.72"/>
</g>
<!-- &#45;3 -->
<g id="node3" class="node">
<title>&#45;3</title>
<polygon fill="lightgray" stroke="black" points="23.5,-98.66 0,-98.66 0,-79.41 23.5,-79.41 23.5,-98.66"/>
<text text-anchor="middle" x="11.75" y="-86.11" font-family="Times New Roman,serif" font-size="9.00">&#45;3</text>
</g>
<!-- &#45;3&#45;&gt;2 -->
<g id="edge10" class="edge">
<title>&#45;3&#45;&gt;2</title>
<path fill="none" stroke="red" stroke-width="0.23" d="M21.1,-79.16C25.94,-74.73 32.01,-69.4 37.75,-64.99 55.28,-51.55 76.37,-37.83 91.71,-28.26"/>
<polygon fill="red" stroke="red" stroke-width="0.23" points="93.47,-31.29 100.14,-23.06 89.79,-25.33 93.47,-31.29"/>
</g>
<!-- &#45;4 -->
<g id="node4" class="node">
<title>&#45;4</title>
<polygon fill="lightgray" stroke="black" points="279.5,-98.66 256,-98.66 256,-79.41 279.5,-79.41 279.5,-98.66"/>
<text text-anchor="middle" x="267.75" y="-86.11" font-family="Times New Roman,serif" font-size="9.00">&#45;4</text>
</g>
<!-- &#45;4&#45;&gt;2 -->
<g id="edge18" class="edge">
<title>&#45;4&#45;&gt;2</title>
<path fill="none" stroke="green" stroke-width="0.22" d="M261.2,-78.96C257.42,-74.26 252.32,-68.74 246.75,-64.99 212.1,-41.65 165.02,-27.59 136.88,-20.71"/>
<polygon fill="green" stroke="green" stroke-width="0.22" points="137.94,-17.36 127.41,-18.49 136.35,-24.18 137.94,-17.36"/>
</g>
<!-- 7 -->
<g id="node32" class="node">
<title>7</title>
<ellipse fill="lightblue" stroke="black" cx="351.75" cy="-14.5" rx="14.5" ry="14.5"/>
<text text-anchor="middle" x="351.75" y="-11.57" font-family="Times New Roman,serif" font-size="9.00">7</text>
</g>
<!-- &#45;4&#45;&gt;7 -->
<g id="edge34" class="edge">
<title>&#45;4&#45;&gt;7</title>
<path fill="none" stroke="green" stroke-width="0.13" stroke-dasharray="1,5" d="M275.21,-79.18C279.08,-74.75 283.99,-69.41 288.75,-64.99 302.49,-52.22 319.24,-39.17 332.01,-29.67"/>
<polygon fill="green" stroke="green" stroke-width="0.13" points="333.98,-32.57 339.98,-23.83 329.84,-26.93 333.98,-32.57"/>
</g>
<!-- &#45;5 -->
<g id="node5" class="node">
<title>&#45;5</title>
<polygon fill="lightgray" stroke="black" points="363.5,-98.66 340,-98.66 340,-79.41 363.5,-79.41 363.5,-98.66"/>
<text text-anchor="middle" x="351.75" y="-86.11" font-family="Times New Roman,serif" font-size="9.00">&#45;5</text>
</g>
<!-- 3 -->
<g id="node28" class="node">
<title>3</title>
<ellipse fill="lightblue" stroke="black" cx="454.75" cy="-14.5" rx="14.5" ry="14.5"/>
<text text-anchor="middle" x="454.75" y="-11.57" font-family="Times New Roman,serif" font-size="9.00">3</text>
</g>
<!-- &#45;5&#45;&gt;3 -->
<g id="edge3" class="edge">
<title>&#45;5&#45;&gt;3</title>
<path fill="none" stroke="red" stroke-width="0.27" d="M358.98,-78.92C362.8,-74.43 367.73,-69.11 372.75,-64.99 391.62,-49.5 415.81,-35.5 433.02,-26.37"/>
<polygon fill="red" stroke="red" stroke-width="0.27" points="434.16,-29.73 441.42,-22.01 430.93,-23.51 434.16,-29.73"/>
</g>
<!-- &#45;5&#45;&gt;7 -->
<g id="edge43" class="edge">
<title>&#45;5&#45;&gt;7</title>
<path fill="none" stroke="green" stroke-width="0.26" d="M351.75,-79.14C351.75,-69.35 351.75,-53.19 351.75,-39.61"/>
<polygon fill="green" stroke="green" stroke-width="0.26" points="355.25,-39.83 351.75,-29.83 348.25,-39.83 355.25,-39.83"/>
</g>
<!-- &#45;6 -->
<g id="node6" class="node">
<title>&#45;6</title>
<polygon fill="lightgray" stroke="black" points="1168.5,-168.32 1145,-168.32 1145,-149.07 1168.5,-149.07 1168.5,-168.32"/>
<text text-anchor="middle" x="1156.75" y="-155.77" font-family="Times New Roman,serif" font-size="9.00">&#45;6</text>
</g>
<!-- &#45;7 -->
<g id="node7" class="node">
<title>&#45;7</title>
<polygon fill="lightgray" stroke="black" points="555.5,-98.66 532,-98.66 532,-79.41 555.5,-79.41 555.5,-98.66"/>
<text text-anchor="middle" x="543.75" y="-86.11" font-family="Times New Roman,serif" font-size="9.00">&#45;7</text>
</g>
<!-- &#45;7&#45;&gt;3 -->
<g id="edge37" class="edge">
<title>&#45;7&#45;&gt;3</title>
<path fill="none" stroke="green" stroke-width="0.44" stroke-dasharray="1,5" d="M533.75,-78.92C528.96,-74.63 523.12,-69.47 517.75,-64.99 503.49,-53.09 486.96,-40.13 474.41,-30.46"/>
<polygon fill="green" stroke="green" stroke-width="0.44" points="476.66,-27.77 466.59,-24.47 472.4,-33.33 476.66,-27.77"/>
</g>
<!-- 4 -->
<g id="node29" class="node">
<title>4</title>
<ellipse fill="lightblue" stroke="black" cx="587.75" cy="-14.5" rx="14.5" ry="14.5"/>
<text text-anchor="middle" x="587.75" y="-11.57" font-family="Times New Roman,serif" font-size="9.00">4</text>
</g>
<!-- &#45;7&#45;&gt;4 -->
<g id="edge19" class="edge">
<title>&#45;7&#45;&gt;4</title>
<path fill="none" stroke="red" stroke-width="0.68" stroke-dasharray="1,5" d="M549.15,-79.14C555.56,-68.56 566.47,-50.57 575.07,-36.41"/>
<polygon fill="red" stroke="red" stroke-width="0.68" points="577.83,-38.6 580.02,-28.23 571.85,-34.97 577.83,-38.6"/>
</g>
<!-- &#45;8 -->
<g id="node8" class="node">
<title>&#45;8</title>
<polygon fill="lightgray" stroke="black" points="321.5,-98.66 298,-98.66 298,-79.41 321.5,-79.41 321.5,-98.66"/>
<text text-anchor="middle" x="309.75" y="-86.11" font-family="Times New Roman,serif" font-size="9.00">&#45;8</text>
</g>
<!-- &#45;8&#45;&gt;0 -->
<g id="edge20" class="edge">
<title>&#45;8&#45;&gt;0</title>
<path fill="none" stroke="green" stroke-width="0.12" d="M304.11,-79.14C297.28,-68.36 285.55,-49.87 276.5,-35.59"/>
<polygon fill="green" stroke="green" stroke-width="0.12" points="279.68,-34.08 271.37,-27.51 273.77,-37.83 279.68,-34.08"/>
</g>
<!-- &#45;8&#45;&gt;3 -->
<g id="edge6" class="edge">
<title>&#45;8&#45;&gt;3</title>
<path fill="none" stroke="green" stroke-width="0.12" d="M316.34,-79.02C320.13,-74.34 325.23,-68.81 330.75,-64.99 362.24,-43.18 404.74,-28.91 430.91,-21.53"/>
<polygon fill="green" stroke="green" stroke-width="0.12" points="431.82,-24.91 440.56,-18.91 429.99,-18.15 431.82,-24.91"/>
</g>
<!-- &#45;9 -->
<g id="node9" class="node">
<title>&#45;9</title>
<polygon fill="lightgray" stroke="black" points="1210.5,-168.32 1187,-168.32 1187,-149.07 1210.5,-149.07 1210.5,-168.32"/>
<text text-anchor="middle" x="1198.75" y="-155.77" font-family="Times New Roman,serif" font-size="9.00">&#45;9</text>
</g>
<!-- &#45;10 -->
<g id="node10" class="node">
<title>&#45;10</title>
<polygon fill="lightgray" stroke="black" points="861.75,-98.66 833.75,-98.66 833.75,-79.41 861.75,-79.41 861.75,-98.66"/>
<text text-anchor="middle" x="847.75" y="-86.11" font-family="Times New Roman,serif" font-size="9.00">&#45;10</text>
</g>
<!-- 1 -->
<g id="node26" class="node">
<title>1</title>
<ellipse fill="lightblue" stroke="black" cx="875.75" cy="-14.5" rx="14.5" ry="14.5"/>
<text text-anchor="middle" x="875.75" y="-11.57" font-family="Times New Roman,serif" font-size="9.00">1</text>
</g>
<!-- &#45;10&#45;&gt;1 -->
<g id="edge12" class="edge">
<title>&#45;10&#45;&gt;1</title>
<path fill="none" stroke="red" stroke-width="0.13" stroke-dasharray="1,5" d="M851.18,-79.14C855.13,-68.91 861.76,-51.74 867.14,-37.81"/>
<polygon fill="red" stroke="red" stroke-width="0.13" points="870.37,-39.15 870.71,-28.56 863.84,-36.63 870.37,-39.15"/>
</g>
<!-- 5 -->
<g id="node30" class="node">
<title>5</title>
<ellipse fill="lightblue" stroke="black" cx="755.75" cy="-14.5" rx="14.5" ry="14.5"/>
<text text-anchor="middle" x="755.75" y="-11.57" font-family="Times New Roman,serif" font-size="9.00">5</text>
</g>
<!-- &#45;10&#45;&gt;5 -->
<g id="edge5" class="edge">
<title>&#45;10&#45;&gt;5</title>
<path fill="none" stroke="green" stroke-width="0.57" d="M839.55,-79.15C835.3,-74.72 829.92,-69.38 824.75,-64.99 809.23,-51.81 790.37,-38.44 776.29,-28.93"/>
<polygon fill="green" stroke="green" stroke-width="0.57" points="778.39,-26.12 768.13,-23.48 774.51,-31.94 778.39,-26.12"/>
</g>
<!-- &#45;11 -->
<g id="node11" class="node">
<title>&#45;11</title>
<polygon fill="lightgray" stroke="black" points="237.75,-98.66 209.75,-98.66 209.75,-79.41 237.75,-79.41 237.75,-98.66"/>
<text text-anchor="middle" x="223.75" y="-86.11" font-family="Times New Roman,serif" font-size="9.00">&#45;11</text>
</g>
<!-- &#45;11&#45;&gt;0 -->
<g id="edge7" class="edge">
<title>&#45;11&#45;&gt;0</title>
<path fill="none" stroke="red" stroke-width="0.19" d="M228.65,-79.14C234.51,-68.53 244.48,-50.43 252.31,-36.25"/>
<polygon fill="red" stroke="red" stroke-width="0.19" points="255.17,-38.31 256.93,-27.86 249.04,-34.93 255.17,-38.31"/>
</g>
<!-- &#45;12 -->
<g id="node12" class="node">
<title>&#45;12</title>
<polygon fill="lightgray" stroke="black" points="815.75,-98.66 787.75,-98.66 787.75,-79.41 815.75,-79.41 815.75,-98.66"/>
<text text-anchor="middle" x="801.75" y="-86.11" font-family="Times New Roman,serif" font-size="9.00">&#45;12</text>
</g>
<!-- &#45;12&#45;&gt;1 -->
<g id="edge31" class="edge">
<title>&#45;12&#45;&gt;1</title>
<path fill="none" stroke="red" stroke-width="0.29" stroke-dasharray="1,5" d="M810.67,-79.03C814.92,-74.76 820.08,-69.59 824.75,-64.99 835.84,-54.05 848.4,-41.87 858.28,-32.32"/>
<polygon fill="red" stroke="red" stroke-width="0.29" points="860.46,-35.08 865.23,-25.61 855.6,-30.04 860.46,-35.08"/>
</g>
<!-- &#45;12&#45;&gt;3 -->
<g id="edge2" class="edge">
<title>&#45;12&#45;&gt;3</title>
<path fill="none" stroke="green" stroke-width="0.51" d="M795.09,-78.96C790.95,-74.02 785.2,-68.26 778.75,-64.99 765.35,-58.2 553.53,-28.93 479.81,-18.89"/>
<polygon fill="green" stroke="green" stroke-width="0.51" points="480.36,-15.43 469.98,-17.55 479.42,-22.37 480.36,-15.43"/>
</g>
<!-- &#45;12&#45;&gt;5 -->
<g id="edge1" class="edge">
<title>&#45;12&#45;&gt;5</title>
<path fill="none" stroke="green" stroke-width="0.39" d="M796.11,-79.14C789.34,-68.46 777.77,-50.22 768.75,-36"/>
<polygon fill="green" stroke="green" stroke-width="0.39" points="771.9,-34.42 763.58,-27.85 765.98,-38.17 771.9,-34.42"/>
</g>
<!-- &#45;13 -->
<g id="node13" class="node">
<title>&#45;13</title>
<polygon fill="lightgray" stroke="black" points="1256.75,-168.32 1228.75,-168.32 1228.75,-149.07 1256.75,-149.07 1256.75,-168.32"/>
<text text-anchor="middle" x="1242.75" y="-155.77" font-family="Times New Roman,serif" font-size="9.00">&#45;13</text>
</g>
<!-- &#45;14 -->
<g id="node14" class="node">
<title>&#45;14</title>
<polygon fill="lightgray" stroke="black" points="191.75,-98.66 163.75,-98.66 163.75,-79.41 191.75,-79.41 191.75,-98.66"/>
<text text-anchor="middle" x="177.75" y="-86.11" font-family="Times New Roman,serif" font-size="9.00">&#45;14</text>
</g>
<!-- &#45;14&#45;&gt;2 -->
<g id="edge24" class="edge">
<title>&#45;14&#45;&gt;2</title>
<path fill="none" stroke="green" stroke-width="0.62" d="M169.78,-79.14C159.69,-67.88 142.06,-48.21 129.07,-33.71"/>
<polygon fill="green" stroke="green" stroke-width="0.62" points="131.95,-31.68 122.67,-26.57 126.74,-36.35 131.95,-31.68"/>
</g>
<!-- &#45;14&#45;&gt;7 -->
<g id="edge26" class="edge">
<title>&#45;14&#45;&gt;7</title>
<path fill="none" stroke="red" stroke-width="0.36" d="M184.63,-79.36C188.84,-74.54 194.59,-68.78 200.75,-64.99 241.53,-39.91 296.41,-26.09 327.53,-19.79"/>
<polygon fill="red" stroke="red" stroke-width="0.36" points="327.8,-23.3 336.95,-17.97 326.47,-16.43 327.8,-23.3"/>
</g>
<!-- &#45;15 -->
<g id="node15" class="node">
<title>&#45;15</title>
<polygon fill="lightgray" stroke="black" points="892.75,-168.32 864.75,-168.32 864.75,-149.07 892.75,-149.07 892.75,-168.32"/>
<text text-anchor="middle" x="878.75" y="-155.77" font-family="Times New Roman,serif" font-size="9.00">&#45;15</text>
</g>
<!-- &#45;15&#45;&gt;4 -->
<g id="edge27" class="edge">
<title>&#45;15&#45;&gt;4</title>
<path fill="none" stroke="red" stroke-width="0.24" d="M864.32,-157C831,-154.84 747.01,-146.25 686.75,-113.07 651.1,-93.45 619.47,-57.34 602.02,-34.98"/>
<polygon fill="red" stroke="red" stroke-width="0.24" points="604.91,-33 596.07,-27.17 599.34,-37.24 604.91,-33"/>
</g>
<!-- 6 -->
<g id="node31" class="node">
<title>6</title>
<ellipse fill="lightblue" stroke="black" cx="1089.75" cy="-89.03" rx="14.5" ry="14.5"/>
<text text-anchor="middle" x="1089.75" y="-86.11" font-family="Times New Roman,serif" font-size="9.00">6</text>
</g>
<!-- &#45;15&#45;&gt;6 -->
<g id="edge21" class="edge">
<title>&#45;15&#45;&gt;6</title>
<path fill="none" stroke="red" stroke-width="0.42" stroke-dasharray="1,5" d="M892.9,-156.96C925.56,-154.72 1007.89,-145.97 1066.75,-113.07 1069.34,-111.63 1071.84,-109.8 1074.17,-107.82"/>
<polygon fill="red" stroke="red" stroke-width="0.42" points="1076.21,-110.72 1080.9,-101.22 1071.31,-105.72 1076.21,-110.72"/>
</g>
<!-- &#45;16 -->
<g id="node16" class="node">
<title>&#45;16</title>
<polygon fill="lightgray" stroke="black" points="475.75,-98.66 447.75,-98.66 447.75,-79.41 475.75,-79.41 475.75,-98.66"/>
<text text-anchor="middle" x="461.75" y="-86.11" font-family="Times New Roman,serif" font-size="9.00">&#45;16</text>
</g>
<!-- &#45;16&#45;&gt;5 -->
<g id="edge29" class="edge">
<title>&#45;16&#45;&gt;5</title>
<path fill="none" stroke="green" stroke-width="0.93" d="M476.08,-81.91C488.31,-76.86 506.46,-69.77 522.75,-64.99 596.95,-43.23 687.06,-26.85 730.25,-19.6"/>
<polygon fill="green" stroke="green" stroke-width="0.93" points="730.7,-23.08 739.99,-17.99 729.56,-16.17 730.7,-23.08"/>
</g>
<!-- &#45;16&#45;&gt;7 -->
<g id="edge30" class="edge">
<title>&#45;16&#45;&gt;7</title>
<path fill="none" stroke="green" stroke-width="0.13" stroke-dasharray="1,5" d="M453.74,-78.92C449.53,-74.43 444.14,-69.11 438.75,-64.99 418.04,-49.19 391.76,-34.93 373.53,-25.82"/>
<polygon fill="green" stroke="green" stroke-width="0.13" points="375.5,-22.88 364.98,-21.62 372.42,-29.17 375.5,-22.88"/>
</g>
<!-- &#45;17 -->
<g id="node17" class="node">
<title>&#45;17</title>
<polygon fill="lightgray" stroke="black" points="1080.75,-168.32 1052.75,-168.32 1052.75,-149.07 1080.75,-149.07 1080.75,-168.32"/>
<text text-anchor="middle" x="1066.75" y="-155.77" font-family="Times New Roman,serif" font-size="9.00">&#45;17</text>
</g>
<!-- &#45;17&#45;&gt;6 -->
<g id="edge42" class="edge">
<title>&#45;17&#45;&gt;6</title>
<path fill="none" stroke="green" stroke-width="0.11" d="M1069.76,-148.85C1072.87,-139.69 1077.86,-125.02 1082.07,-112.62"/>
<polygon fill="green" stroke="green" stroke-width="0.11" points="1085.28,-114.05 1085.19,-103.46 1078.65,-111.8 1085.28,-114.05"/>
</g>
<!-- &#45;18 -->
<g id="node18" class="node">
<title>&#45;18</title>
<polygon fill="lightgray" stroke="black" points="1011.75,-98.66 983.75,-98.66 983.75,-79.41 1011.75,-79.41 1011.75,-98.66"/>
<text text-anchor="middle" x="997.75" y="-86.11" font-family="Times New Roman,serif" font-size="9.00">&#45;18</text>
</g>
<!-- &#45;18&#45;&gt;1 -->
<g id="edge14" class="edge">
<title>&#45;18&#45;&gt;1</title>
<path fill="none" stroke="green" stroke-width="0.22" d="M987.77,-78.97C982.59,-74.5 976.04,-69.17 969.75,-64.99 946.47,-49.52 917.8,-35.01 898.29,-25.76"/>
<polygon fill="green" stroke="green" stroke-width="0.22" points="899.84,-22.62 889.29,-21.56 896.87,-28.96 899.84,-22.62"/>
</g>
<!-- &#45;19 -->
<g id="node19" class="node">
<title>&#45;19</title>
<polygon fill="lightgray" stroke="black" points="723.75,-98.66 695.75,-98.66 695.75,-79.41 723.75,-79.41 723.75,-98.66"/>
<text text-anchor="middle" x="709.75" y="-86.11" font-family="Times New Roman,serif" font-size="9.00">&#45;19</text>
</g>
<!-- &#45;19&#45;&gt;1 -->
<g id="edge15" class="edge">
<title>&#45;19&#45;&gt;1</title>
<path fill="none" stroke="red" stroke-width="0.17" d="M717.05,-78.94C721.23,-74.24 726.81,-68.71 732.75,-64.99 770.82,-41.14 821.83,-27.07 851.51,-20.35"/>
<polygon fill="red" stroke="red" stroke-width="0.17" points="852.13,-23.8 861.16,-18.26 850.65,-16.96 852.13,-23.8"/>
</g>
<!-- &#45;19&#45;&gt;7 -->
<g id="edge32" class="edge">
<title>&#45;19&#45;&gt;7</title>
<path fill="none" stroke="red" stroke-width="0.31" d="M695.36,-84.49C676.13,-79.81 640.96,-71.39 610.75,-64.99 524.9,-46.81 422.4,-28.1 376.32,-19.85"/>
<polygon fill="red" stroke="red" stroke-width="0.31" points="377.04,-16.43 366.58,-18.12 375.81,-23.32 377.04,-16.43"/>
</g>
<!-- &#45;20 -->
<g id="node20" class="node">
<title>&#45;20</title>
<polygon fill="lightgray" stroke="black" points="1057.75,-98.66 1029.75,-98.66 1029.75,-79.41 1057.75,-79.41 1057.75,-98.66"/>
<text text-anchor="middle" x="1043.75" y="-86.11" font-family="Times New Roman,serif" font-size="9.00">&#45;20</text>
</g>
<!-- &#45;20&#45;&gt;1 -->
<g id="edge11" class="edge">
<title>&#45;20&#45;&gt;1</title>
<path fill="none" stroke="red" stroke-width="0.35" d="M1036.45,-78.93C1032.28,-74.22 1026.7,-68.7 1020.75,-64.99 982.15,-40.92 930.42,-26.92 900.33,-20.28"/>
<polygon fill="red" stroke="red" stroke-width="0.35" points="901.31,-16.91 890.8,-18.27 899.86,-23.76 901.31,-16.91"/>
</g>
<!-- &#45;21 -->
<g id="node21" class="node">
<title>&#45;21</title>
<polygon fill="lightgray" stroke="black" points="1126.75,-168.32 1098.75,-168.32 1098.75,-149.07 1126.75,-149.07 1126.75,-168.32"/>
<text text-anchor="middle" x="1112.75" y="-155.77" font-family="Times New Roman,serif" font-size="9.00">&#45;21</text>
</g>
<!-- &#45;21&#45;&gt;6 -->
<g id="edge35" class="edge">
<title>&#45;21&#45;&gt;6</title>
<path fill="none" stroke="red" stroke-width="0.36" d="M1109.74,-148.85C1106.66,-139.79 1101.74,-125.31 1097.55,-112.98"/>
<polygon fill="red" stroke="red" stroke-width="0.36" points="1100.97,-112.16 1094.44,-103.82 1094.34,-114.42 1100.97,-112.16"/>
</g>
<!-- &#45;22 -->
<g id="node22" class="node">
<title>&#45;22</title>
<polygon fill="lightgray" stroke="black" points="769.75,-98.66 741.75,-98.66 741.75,-79.41 769.75,-79.41 769.75,-98.66"/>
<text text-anchor="middle" x="755.75" y="-86.11" font-family="Times New Roman,serif" font-size="9.00">&#45;22</text>
</g>
<!-- &#45;22&#45;&gt;5 -->
<g id="edge22" class="edge">
<title>&#45;22&#45;&gt;5</title>
<path fill="none" stroke="green" stroke-width="0.22" d="M755.75,-79.14C755.75,-69.35 755.75,-53.19 755.75,-39.61"/>
<polygon fill="green" stroke="green" stroke-width="0.22" points="759.25,-39.77 755.75,-29.77 752.25,-39.77 759.25,-39.77"/>
</g>
<!-- &#45;23 -->
<g id="node23" class="node">
<title>&#45;23</title>
<polygon fill="lightgray" stroke="black" points="601.75,-98.66 573.75,-98.66 573.75,-79.41 601.75,-79.41 601.75,-98.66"/>
<text text-anchor="middle" x="587.75" y="-86.11" font-family="Times New Roman,serif" font-size="9.00">&#45;23</text>
</g>
<!-- &#45;23&#45;&gt;0 -->
<g id="edge25" class="edge">
<title>&#45;23&#45;&gt;0</title>
<path fill="none" stroke="green" stroke-width="0.51" stroke-dasharray="1,5" d="M581.09,-78.96C576.95,-74.02 571.2,-68.26 564.75,-64.99 470.1,-17.05 433.17,-47.78 328.75,-28.99 315.29,-26.57 300.34,-23.49 288.18,-20.89"/>
<polygon fill="green" stroke="green" stroke-width="0.51" points="289.18,-17.52 278.66,-18.83 287.69,-24.37 289.18,-17.52"/>
</g>
<!-- &#45;23&#45;&gt;1 -->
<g id="edge8" class="edge">
<title>&#45;23&#45;&gt;1</title>
<path fill="none" stroke="red" stroke-width="0.31" d="M602.03,-84.44C648.2,-72.81 793.79,-36.14 851.67,-21.56"/>
<polygon fill="red" stroke="red" stroke-width="0.31" points="852.43,-24.98 861.27,-19.14 850.72,-18.19 852.43,-24.98"/>
</g>
<!-- &#45;23&#45;&gt;4 -->
<g id="edge33" class="edge">
<title>&#45;23&#45;&gt;4</title>
<path fill="none" stroke="green" stroke-width="1.12" d="M587.75,-79.14C587.75,-69.64 587.75,-54.15 587.75,-40.83"/>
<polygon fill="green" stroke="green" stroke-width="1.12" points="591.25,-41.13 587.75,-31.13 584.25,-41.13 591.25,-41.13"/>
</g>
<!-- &#45;24 -->
<g id="node24" class="node">
<title>&#45;24</title>
<polygon fill="lightgray" stroke="black" points="681.75,-168.32 653.75,-168.32 653.75,-149.07 681.75,-149.07 681.75,-168.32"/>
<text text-anchor="middle" x="667.75" y="-155.77" font-family="Times New Roman,serif" font-size="9.00">&#45;24</text>
</g>
<!-- &#45;24&#45;&gt;1 -->
<g id="edge23" class="edge">
<title>&#45;24&#45;&gt;1</title>
<path fill="none" stroke="red" stroke-width="0.22" stroke-dasharray="1,5" d="M681.91,-157.64C732.56,-157.1 903.46,-152.34 936.75,-113.07 950.57,-96.77 945.94,-84.28 936.75,-64.99 928.62,-47.92 911.41,-34.83 897.33,-26.4"/>
<polygon fill="red" stroke="red" stroke-width="0.22" points="899.38,-23.54 888.95,-21.71 895.96,-29.65 899.38,-23.54"/>
</g>
<!-- &#45;24&#45;&gt;2 -->
<g id="edge16" class="edge">
<title>&#45;24&#45;&gt;2</title>
<path fill="none" stroke="green" stroke-width="0.23" stroke-dasharray="1,5" d="M653.52,-157.76C566.78,-158.01 111.67,-157.17 70.75,-113.07 56.21,-97.41 63.39,-85.05 70.75,-64.99 75.5,-52.06 85.28,-40.2 94.21,-31.33"/>
<polygon fill="green" stroke="green" stroke-width="0.23" points="96.52,-33.97 101.44,-24.59 91.74,-28.85 96.52,-33.97"/>
</g>
<!-- &#45;24&#45;&gt;3 -->
<g id="edge17" class="edge">
<title>&#45;24&#45;&gt;3</title>
<path fill="none" stroke="green" stroke-width="0.59" d="M653.62,-156.41C626.01,-153.29 564.03,-143.19 522.75,-113.07 508.39,-102.6 482.6,-62.09 467.24,-36.67"/>
<polygon fill="green" stroke="green" stroke-width="0.59" points="470.32,-35.01 462.18,-28.22 464.31,-38.6 470.32,-35.01"/>
</g>
<!-- &#45;24&#45;&gt;5 -->
<g id="edge9" class="edge">
<title>&#45;24&#45;&gt;5</title>
<path fill="none" stroke="red" stroke-width="0.12" d="M667.5,-148.73C667.44,-131.19 669.41,-91.73 686.75,-64.99 698.11,-47.48 718.01,-34.19 733.54,-25.82"/>
<polygon fill="red" stroke="red" stroke-width="0.12" points="735.03,-28.99 742.35,-21.33 731.85,-22.75 735.03,-28.99"/>
</g>
<!-- &#45;24&#45;&gt;6 -->
<g id="edge36" class="edge">
<title>&#45;24&#45;&gt;6</title>
<path fill="none" stroke="red" stroke-width="0.51" d="M682.02,-157.36C744.81,-155.67 996.57,-146.87 1066.75,-113.07 1069.25,-111.87 1071.63,-110.29 1073.85,-108.51"/>
<polygon fill="red" stroke="red" stroke-width="0.51" points="1076.2,-111.1 1080.96,-101.64 1071.34,-106.07 1076.2,-111.1"/>
</g>
<!-- 2407 -->
<g id="node33" class="node">
<title>2407</title>
<ellipse fill="white" stroke="black" cx="405.75" cy="-89.03" rx="24.04" ry="24.04"/>
<text text-anchor="middle" x="405.75" y="-86.11" font-family="Times New Roman,serif" font-size="9.00">2407</text>
</g>
<!-- &#45;24&#45;&gt;2407 -->
<g id="edge40" class="edge">
<title>&#45;24&#45;&gt;2407</title>
<path fill="none" stroke="green" stroke-width="0.16" d="M653.48,-156.97C616.55,-154.65 515.38,-145.57 438.75,-113.07 436.71,-112.21 434.67,-111.21 432.66,-110.11"/>
<polygon fill="green" stroke="green" stroke-width="0.16" points="434.71,-107.26 424.36,-105 431.04,-113.22 434.71,-107.26"/>
</g>
<!-- 1790 -->
<g id="node34" class="node">
<title>1790</title>
<ellipse fill="white" stroke="black" cx="903.75" cy="-89.03" rx="24.04" ry="24.04"/>
<text text-anchor="middle" x="903.75" y="-86.11" font-family="Times New Roman,serif" font-size="9.00">1790</text>
</g>
<!-- &#45;24&#45;&gt;1790 -->
<g id="edge38" class="edge">
<title>&#45;24&#45;&gt;1790</title>
<path fill="none" stroke="red" stroke-width="0.25" d="M682.12,-156.49C716.19,-153.2 803.99,-142.33 870.75,-113.07 872.78,-112.19 874.81,-111.16 876.81,-110.06"/>
<polygon fill="red" stroke="red" stroke-width="0.25" points="878.33,-113.23 884.99,-104.99 874.65,-107.28 878.33,-113.23"/>
</g>
<!-- 2407&#45;&gt;3 -->
<g id="edge41" class="edge">
<title>2407&#45;&gt;3</title>
<path fill="none" stroke="green" stroke-width="0.32" d="M418.88,-68.59C425.81,-58.34 434.3,-45.77 441.28,-35.44"/>
<polygon fill="green" stroke="green" stroke-width="0.32" points="443.97,-37.7 446.67,-27.46 438.17,-33.78 443.97,-37.7"/>
</g>
<!-- 1790&#45;&gt;1 -->
<g id="edge39" class="edge">
<title>1790&#45;&gt;1</title>
<path fill="none" stroke="green" stroke-width="0.29" d="M895.35,-66.27C891.88,-57.29 887.87,-46.9 884.38,-37.86"/>
<polygon fill="green" stroke="green" stroke-width="0.29" points="887.75,-36.87 880.88,-28.8 881.22,-39.39 887.75,-36.87"/>
</g>
</g>
</svg>
