<?xml version="1.0" encoding="UTF-8" standalone="no"?>
<!DOCTYPE svg PUBLIC "-//W3C//DTD SVG 1.1//EN"
 "http://www.w3.org/Graphics/SVG/1.1/DTD/svg11.dtd">
<!-- Generated by graphviz version 9.0.0 (20230911.1827)
 -->
<!-- Pages: 1 -->
<svg width="1107pt" height="257pt"
 viewBox="0.00 0.00 1107.36 257.42" xmlns="http://www.w3.org/2000/svg" xmlns:xlink="http://www.w3.org/1999/xlink">
<g id="graph0" class="graph" transform="scale(1 1) rotate(0) translate(4 253.42)">
<polygon fill="white" stroke="none" points="-4,4 -4,-253.42 1103.36,-253.42 1103.36,4 -4,4"/>
<!-- &#45;1 -->
<g id="node1" class="node">
<title>&#45;1</title>
<polygon fill="lightgray" stroke="black" points="56.61,-244.55 33.11,-244.55 33.11,-225.3 56.61,-225.3 56.61,-244.55"/>
<text text-anchor="middle" x="44.86" y="-232" font-family="Times New Roman,serif" font-size="9.00">&#45;1</text>
</g>
<!-- 4 -->
<g id="node29" class="node">
<title>4</title>
<ellipse fill="lightblue" stroke="black" cx="97.86" cy="-163.57" rx="14.5" ry="14.5"/>
<text text-anchor="middle" x="97.86" y="-160.65" font-family="Times New Roman,serif" font-size="9.00">4</text>
</g>
<!-- &#45;1&#45;&gt;4 -->
<g id="edge1" class="edge">
<title>&#45;1&#45;&gt;4</title>
<path fill="none" stroke="red" stroke-width="0.12" d="M51.79,-224.86C59.78,-214.4 73.14,-196.91 83.42,-183.46"/>
<polygon fill="red" stroke="red" stroke-width="0.12" points="85.95,-185.92 89.24,-175.85 80.38,-181.67 85.95,-185.92"/>
</g>
<!-- 201 -->
<g id="node33" class="node">
<title>201</title>
<ellipse fill="white" stroke="black" cx="20.86" cy="-85.85" rx="20.86" ry="20.86"/>
<text text-anchor="middle" x="20.86" y="-82.93" font-family="Times New Roman,serif" font-size="9.00">201</text>
</g>
<!-- &#45;1&#45;&gt;201 -->
<g id="edge10" class="edge">
<title>&#45;1&#45;&gt;201</title>
<path fill="none" stroke="green" stroke-width="0.16" stroke-dasharray="1,5" d="M37.47,-225.15C30.09,-215.76 19.24,-200.11 14.86,-184.43 8.63,-162.12 10.74,-135.87 14.08,-116.21"/>
<polygon fill="green" stroke="green" stroke-width="0.16" points="17.49,-117.04 15.91,-106.56 10.61,-115.74 17.49,-117.04"/>
</g>
<!-- 205 -->
<g id="node34" class="node">
<title>205</title>
<ellipse fill="white" stroke="black" cx="44.86" cy="-163.57" rx="20.86" ry="20.86"/>
<text text-anchor="middle" x="44.86" y="-160.65" font-family="Times New Roman,serif" font-size="9.00">205</text>
</g>
<!-- &#45;1&#45;&gt;205 -->
<g id="edge13" class="edge">
<title>&#45;1&#45;&gt;205</title>
<path fill="none" stroke="red" stroke-width="0.17" stroke-dasharray="1,5" d="M44.86,-224.86C44.86,-217.18 44.86,-205.71 44.86,-194.84"/>
<polygon fill="red" stroke="red" stroke-width="0.17" points="48.36,-194.99 44.86,-184.99 41.36,-194.99 48.36,-194.99"/>
</g>
<!-- &#45;2 -->
<g id="node2" class="node">
<title>&#45;2</title>
<polygon fill="lightgray" stroke="black" points="198.61,-244.55 175.11,-244.55 175.11,-225.3 198.61,-225.3 198.61,-244.55"/>
<text text-anchor="middle" x="186.86" y="-232" font-family="Times New Roman,serif" font-size="9.00">&#45;2</text>
</g>
<!-- &#45;3 -->
<g id="node3" class="node">
<title>&#45;3</title>
<polygon fill="lightgray" stroke="black" points="156.61,-244.55 133.11,-244.55 133.11,-225.3 156.61,-225.3 156.61,-244.55"/>
<text text-anchor="middle" x="144.86" y="-232" font-family="Times New Roman,serif" font-size="9.00">&#45;3</text>
</g>
<!-- 5 -->
<g id="node30" class="node">
<title>5</title>
<ellipse fill="lightblue" stroke="black" cx="144.86" cy="-163.57" rx="14.5" ry="14.5"/>
<text text-anchor="middle" x="144.86" y="-160.65" font-family="Times New Roman,serif" font-size="9.00">5</text>
</g>
<!-- &#45;3&#45;&gt;5 -->
<g id="edge4" class="edge">
<title>&#45;3&#45;&gt;5</title>
<path fill="none" stroke="green" stroke-width="0.32" d="M144.86,-224.86C144.86,-215.71 144.86,-201.2 144.86,-188.71"/>
<polygon fill="green" stroke="green" stroke-width="0.32" points="148.36,-188.91 144.86,-178.91 141.36,-188.91 148.36,-188.91"/>
</g>
<!-- &#45;4 -->
<g id="node4" class="node">
<title>&#45;4</title>
<polygon fill="lightgray" stroke="black" points="240.61,-244.55 217.11,-244.55 217.11,-225.3 240.61,-225.3 240.61,-244.55"/>
<text text-anchor="middle" x="228.86" y="-232" font-family="Times New Roman,serif" font-size="9.00">&#45;4</text>
</g>
<!-- 0 -->
<g id="node25" class="node">
<title>0</title>
<ellipse fill="lightblue" stroke="black" cx="228.86" cy="-163.57" rx="14.5" ry="14.5"/>
<text text-anchor="middle" x="228.86" y="-160.65" font-family="Times New Roman,serif" font-size="9.00">0</text>
</g>
<!-- &#45;4&#45;&gt;0 -->
<g id="edge7" class="edge">
<title>&#45;4&#45;&gt;0</title>
<path fill="none" stroke="red" stroke-width="0.51" d="M228.86,-224.86C228.86,-215.81 228.86,-201.49 228.86,-189.09"/>
<polygon fill="red" stroke="red" stroke-width="0.51" points="232.36,-189.2 228.86,-179.2 225.36,-189.2 232.36,-189.2"/>
</g>
<!-- &#45;5 -->
<g id="node5" class="node">
<title>&#45;5</title>
<polygon fill="lightgray" stroke="black" points="282.61,-244.55 259.11,-244.55 259.11,-225.3 282.61,-225.3 282.61,-244.55"/>
<text text-anchor="middle" x="270.86" y="-232" font-family="Times New Roman,serif" font-size="9.00">&#45;5</text>
</g>
<!-- &#45;6 -->
<g id="node6" class="node">
<title>&#45;6</title>
<polygon fill="lightgray" stroke="black" points="324.61,-244.55 301.11,-244.55 301.11,-225.3 324.61,-225.3 324.61,-244.55"/>
<text text-anchor="middle" x="312.86" y="-232" font-family="Times New Roman,serif" font-size="9.00">&#45;6</text>
</g>
<!-- &#45;7 -->
<g id="node7" class="node">
<title>&#45;7</title>
<polygon fill="lightgray" stroke="black" points="366.61,-244.55 343.11,-244.55 343.11,-225.3 366.61,-225.3 366.61,-244.55"/>
<text text-anchor="middle" x="354.86" y="-232" font-family="Times New Roman,serif" font-size="9.00">&#45;7</text>
</g>
<!-- &#45;8 -->
<g id="node8" class="node">
<title>&#45;8</title>
<polygon fill="lightgray" stroke="black" points="408.61,-244.55 385.11,-244.55 385.11,-225.3 408.61,-225.3 408.61,-244.55"/>
<text text-anchor="middle" x="396.86" y="-232" font-family="Times New Roman,serif" font-size="9.00">&#45;8</text>
</g>
<!-- &#45;9 -->
<g id="node9" class="node">
<title>&#45;9</title>
<polygon fill="lightgray" stroke="black" points="83.61,-95.48 60.11,-95.48 60.11,-76.23 83.61,-76.23 83.61,-95.48"/>
<text text-anchor="middle" x="71.86" y="-82.93" font-family="Times New Roman,serif" font-size="9.00">&#45;9</text>
</g>
<!-- 2 -->
<g id="node27" class="node">
<title>2</title>
<ellipse fill="lightblue" stroke="black" cx="45.86" cy="-14.5" rx="14.5" ry="14.5"/>
<text text-anchor="middle" x="45.86" y="-11.57" font-family="Times New Roman,serif" font-size="9.00">2</text>
</g>
<!-- &#45;9&#45;&gt;2 -->
<g id="edge2" class="edge">
<title>&#45;9&#45;&gt;2</title>
<path fill="none" stroke="red" stroke-width="0.19" stroke-dasharray="1,5" d="M68.46,-75.78C64.9,-66.28 59.16,-50.98 54.36,-38.17"/>
<polygon fill="red" stroke="red" stroke-width="0.19" points="57.66,-37 50.87,-28.86 51.1,-39.46 57.66,-37"/>
</g>
<!-- &#45;10 -->
<g id="node10" class="node">
<title>&#45;10</title>
<polygon fill="lightgray" stroke="black" points="454.86,-244.55 426.86,-244.55 426.86,-225.3 454.86,-225.3 454.86,-244.55"/>
<text text-anchor="middle" x="440.86" y="-232" font-family="Times New Roman,serif" font-size="9.00">&#45;10</text>
</g>
<!-- &#45;11 -->
<g id="node11" class="node">
<title>&#45;11</title>
<polygon fill="lightgray" stroke="black" points="500.86,-244.55 472.86,-244.55 472.86,-225.3 500.86,-225.3 500.86,-244.55"/>
<text text-anchor="middle" x="486.86" y="-232" font-family="Times New Roman,serif" font-size="9.00">&#45;11</text>
</g>
<!-- &#45;12 -->
<g id="node12" class="node">
<title>&#45;12</title>
<polygon fill="lightgray" stroke="black" points="546.86,-244.55 518.86,-244.55 518.86,-225.3 546.86,-225.3 546.86,-244.55"/>
<text text-anchor="middle" x="532.86" y="-232" font-family="Times New Roman,serif" font-size="9.00">&#45;12</text>
</g>
<!-- &#45;13 -->
<g id="node13" class="node">
<title>&#45;13</title>
<polygon fill="lightgray" stroke="black" points="592.86,-244.55 564.86,-244.55 564.86,-225.3 592.86,-225.3 592.86,-244.55"/>
<text text-anchor="middle" x="578.86" y="-232" font-family="Times New Roman,serif" font-size="9.00">&#45;13</text>
</g>
<!-- &#45;14 -->
<g id="node14" class="node">
<title>&#45;14</title>
<polygon fill="lightgray" stroke="black" points="638.86,-244.55 610.86,-244.55 610.86,-225.3 638.86,-225.3 638.86,-244.55"/>
<text text-anchor="middle" x="624.86" y="-232" font-family="Times New Roman,serif" font-size="9.00">&#45;14</text>
</g>
<!-- &#45;15 -->
<g id="node15" class="node">
<title>&#45;15</title>
<polygon fill="lightgray" stroke="black" points="684.86,-244.55 656.86,-244.55 656.86,-225.3 684.86,-225.3 684.86,-244.55"/>
<text text-anchor="middle" x="670.86" y="-232" font-family="Times New Roman,serif" font-size="9.00">&#45;15</text>
</g>
<!-- &#45;16 -->
<g id="node16" class="node">
<title>&#45;16</title>
<polygon fill="lightgray" stroke="black" points="730.86,-244.55 702.86,-244.55 702.86,-225.3 730.86,-225.3 730.86,-244.55"/>
<text text-anchor="middle" x="716.86" y="-232" font-family="Times New Roman,serif" font-size="9.00">&#45;16</text>
</g>
<!-- 6 -->
<g id="node31" class="node">
<title>6</title>
<ellipse fill="lightblue" stroke="black" cx="715.86" cy="-85.85" rx="14.5" ry="14.5"/>
<text text-anchor="middle" x="715.86" y="-82.93" font-family="Times New Roman,serif" font-size="9.00">6</text>
</g>
<!-- &#45;16&#45;&gt;6 -->
<g id="edge3" class="edge">
<title>&#45;16&#45;&gt;6</title>
<path fill="none" stroke="green" stroke-width="0.26" stroke-dasharray="1,5" d="M715.42,-224.83C713.94,-214.93 711.72,-198.6 710.86,-184.43 709.34,-159.26 711.27,-130.42 713.16,-110.66"/>
<polygon fill="green" stroke="green" stroke-width="0.26" points="716.63,-111.12 714.17,-100.82 709.66,-110.41 716.63,-111.12"/>
</g>
<!-- 186 -->
<g id="node35" class="node">
<title>186</title>
<ellipse fill="white" stroke="black" cx="740.86" cy="-163.57" rx="20.86" ry="20.86"/>
<text text-anchor="middle" x="740.86" y="-160.65" font-family="Times New Roman,serif" font-size="9.00">186</text>
</g>
<!-- &#45;16&#45;&gt;186 -->
<g id="edge8" class="edge">
<title>&#45;16&#45;&gt;186</title>
<path fill="none" stroke="red" stroke-width="0.16" d="M720,-224.86C722.79,-216.79 727.02,-204.55 730.95,-193.2"/>
<polygon fill="red" stroke="red" stroke-width="0.16" points="734.24,-194.41 734.2,-183.82 727.62,-192.12 734.24,-194.41"/>
</g>
<!-- &#45;17 -->
<g id="node17" class="node">
<title>&#45;17</title>
<polygon fill="lightgray" stroke="black" points="112.86,-244.55 84.86,-244.55 84.86,-225.3 112.86,-225.3 112.86,-244.55"/>
<text text-anchor="middle" x="98.86" y="-232" font-family="Times New Roman,serif" font-size="9.00">&#45;17</text>
</g>
<!-- &#45;17&#45;&gt;4 -->
<g id="edge15" class="edge">
<title>&#45;17&#45;&gt;4</title>
<path fill="none" stroke="red" stroke-width="0.24" d="M98.73,-224.86C98.6,-215.71 98.39,-201.2 98.21,-188.71"/>
<polygon fill="red" stroke="red" stroke-width="0.24" points="101.71,-188.74 98.06,-178.79 94.71,-188.84 101.71,-188.74"/>
</g>
<!-- &#45;17&#45;&gt;5 -->
<g id="edge12" class="edge">
<title>&#45;17&#45;&gt;5</title>
<path fill="none" stroke="green" stroke-width="0.46" d="M104.87,-224.86C111.54,-214.81 122.5,-198.29 131.26,-185.08"/>
<polygon fill="green" stroke="green" stroke-width="0.46" points="134.16,-187.03 136.77,-176.76 128.33,-183.16 134.16,-187.03"/>
</g>
<!-- &#45;18 -->
<g id="node18" class="node">
<title>&#45;18</title>
<polygon fill="lightgray" stroke="black" points="776.86,-244.55 748.86,-244.55 748.86,-225.3 776.86,-225.3 776.86,-244.55"/>
<text text-anchor="middle" x="762.86" y="-232" font-family="Times New Roman,serif" font-size="9.00">&#45;18</text>
</g>
<!-- &#45;19 -->
<g id="node19" class="node">
<title>&#45;19</title>
<polygon fill="lightgray" stroke="black" points="822.86,-244.55 794.86,-244.55 794.86,-225.3 822.86,-225.3 822.86,-244.55"/>
<text text-anchor="middle" x="808.86" y="-232" font-family="Times New Roman,serif" font-size="9.00">&#45;19</text>
</g>
<!-- &#45;20 -->
<g id="node20" class="node">
<title>&#45;20</title>
<polygon fill="lightgray" stroke="black" points="868.86,-244.55 840.86,-244.55 840.86,-225.3 868.86,-225.3 868.86,-244.55"/>
<text text-anchor="middle" x="854.86" y="-232" font-family="Times New Roman,serif" font-size="9.00">&#45;20</text>
</g>
<!-- 7 -->
<g id="node32" class="node">
<title>7</title>
<ellipse fill="lightblue" stroke="black" cx="854.86" cy="-163.57" rx="14.5" ry="14.5"/>
<text text-anchor="middle" x="854.86" y="-160.65" font-family="Times New Roman,serif" font-size="9.00">7</text>
</g>
<!-- &#45;20&#45;&gt;7 -->
<g id="edge6" class="edge">
<title>&#45;20&#45;&gt;7</title>
<path fill="none" stroke="red" stroke-width="0.41" d="M854.86,-224.86C854.86,-215.71 854.86,-201.2 854.86,-188.71"/>
<polygon fill="red" stroke="red" stroke-width="0.41" points="858.36,-189.04 854.86,-179.04 851.36,-189.04 858.36,-189.04"/>
</g>
<!-- &#45;21 -->
<g id="node21" class="node">
<title>&#45;21</title>
<polygon fill="lightgray" stroke="black" points="914.86,-244.55 886.86,-244.55 886.86,-225.3 914.86,-225.3 914.86,-244.55"/>
<text text-anchor="middle" x="900.86" y="-232" font-family="Times New Roman,serif" font-size="9.00">&#45;21</text>
</g>
<!-- &#45;22 -->
<g id="node22" class="node">
<title>&#45;22</title>
<polygon fill="lightgray" stroke="black" points="960.86,-244.55 932.86,-244.55 932.86,-225.3 960.86,-225.3 960.86,-244.55"/>
<text text-anchor="middle" x="946.86" y="-232" font-family="Times New Roman,serif" font-size="9.00">&#45;22</text>
</g>
<!-- 1 -->
<g id="node26" class="node">
<title>1</title>
<ellipse fill="lightblue" stroke="black" cx="946.86" cy="-163.57" rx="14.5" ry="14.5"/>
<text text-anchor="middle" x="946.86" y="-160.65" font-family="Times New Roman,serif" font-size="9.00">1</text>
</g>
<!-- &#45;22&#45;&gt;1 -->
<g id="edge5" class="edge">
<title>&#45;22&#45;&gt;1</title>
<path fill="none" stroke="red" stroke-width="0.33" d="M946.86,-224.86C946.86,-215.71 946.86,-201.2 946.86,-188.71"/>
<polygon fill="red" stroke="red" stroke-width="0.33" points="950.36,-188.93 946.86,-178.93 943.36,-188.93 950.36,-188.93"/>
</g>
<!-- &#45;23 -->
<g id="node23" class="node">
<title>&#45;23</title>
<polygon fill="lightgray" stroke="black" points="1006.86,-244.55 978.86,-244.55 978.86,-225.3 1006.86,-225.3 1006.86,-244.55"/>
<text text-anchor="middle" x="992.86" y="-232" font-family="Times New Roman,serif" font-size="9.00">&#45;23</text>
</g>
<!-- &#45;24 -->
<g id="node24" class="node">
<title>&#45;24</title>
<polygon fill="lightgray" stroke="black" points="1052.86,-244.55 1024.86,-244.55 1024.86,-225.3 1052.86,-225.3 1052.86,-244.55"/>
<text text-anchor="middle" x="1038.86" y="-232" font-family="Times New Roman,serif" font-size="9.00">&#45;24</text>
</g>
<!-- 3 -->
<g id="node28" class="node">
<title>3</title>
<ellipse fill="lightblue" stroke="black" cx="1084.86" cy="-234.93" rx="14.5" ry="14.5"/>
<text text-anchor="middle" x="1084.86" y="-232" font-family="Times New Roman,serif" font-size="9.00">3</text>
</g>
<!-- 201&#45;&gt;2 -->
<g id="edge11" class="edge">
<title>201&#45;&gt;2</title>
<path fill="none" stroke="green" stroke-width="0.46" d="M27.69,-65.9C30.77,-57.37 34.42,-47.22 37.65,-38.28"/>
<polygon fill="green" stroke="green" stroke-width="0.46" points="40.84,-39.75 40.94,-29.16 34.25,-37.38 40.84,-39.75"/>
</g>
<!-- 205&#45;&gt;201 -->
<g id="edge14" class="edge">
<title>205&#45;&gt;201</title>
<path fill="none" stroke="red" stroke-width="0.21" d="M38.8,-143.46C36.15,-135.1 32.98,-125.1 30.05,-115.85"/>
<polygon fill="red" stroke="red" stroke-width="0.21" points="33.45,-114.99 27.09,-106.51 26.78,-117.1 33.45,-114.99"/>
</g>
<!-- 186&#45;&gt;6 -->
<g id="edge9" class="edge">
<title>186&#45;&gt;6</title>
<path fill="none" stroke="red" stroke-width="0.52" d="M734.55,-143.46C731.17,-133.21 726.97,-120.51 723.41,-109.73"/>
<polygon fill="red" stroke="red" stroke-width="0.52" points="726.83,-108.91 720.37,-100.51 720.18,-111.1 726.83,-108.91"/>
</g>
</g>
</svg>
