<?xml version="1.0" encoding="UTF-8" standalone="no"?>
<!DOCTYPE svg PUBLIC "-//W3C//DTD SVG 1.1//EN"
 "http://www.w3.org/Graphics/SVG/1.1/DTD/svg11.dtd">
<!-- Generated by graphviz version 9.0.0 (20230911.1827)
 -->
<!-- Pages: 1 -->
<svg width="406pt" height="389pt"
 viewBox="0.00 0.00 405.97 389.04" xmlns="http://www.w3.org/2000/svg" xmlns:xlink="http://www.w3.org/1999/xlink">
<g id="graph0" class="graph" transform="scale(1 1) rotate(0) translate(4 385.04)">
<polygon fill="white" stroke="none" points="-4,4 -4,-385.04 401.97,-385.04 401.97,4 -4,4"/>
<!-- &#45;1 -->
<g id="node1" class="node">
<title>&#45;1</title>
<polygon fill="lightgray" stroke="black" points="167.97,-308.19 144.47,-308.19 144.47,-288.94 167.97,-288.94 167.97,-308.19"/>
<text text-anchor="middle" x="156.22" y="-295.64" font-family="Times New Roman,serif" font-size="9.00">&#45;1</text>
</g>
<!-- 43808 -->
<g id="node11" class="node">
<title>43808</title>
<ellipse fill="white" stroke="black" cx="124.22" cy="-27.22" rx="27.22" ry="27.22"/>
<text text-anchor="middle" x="124.22" y="-24.3" font-family="Times New Roman,serif" font-size="9.00">43808</text>
</g>
<!-- &#45;1&#45;&gt;43808 -->
<g id="edge7" class="edge">
<title>&#45;1&#45;&gt;43808</title>
<path fill="none" stroke="red" stroke-width="0.41" d="M155.25,-288.48C153.14,-268.85 147.95,-220.97 143.22,-180.89 138.55,-141.27 132.86,-95.9 128.93,-64.99"/>
<polygon fill="red" stroke="red" stroke-width="0.41" points="132.44,-64.79 127.7,-55.31 125.49,-65.67 132.44,-64.79"/>
</g>
<!-- 44716 -->
<g id="node15" class="node">
<title>44716</title>
<ellipse fill="white" stroke="black" cx="239.22" cy="-208.12" rx="27.22" ry="27.22"/>
<text text-anchor="middle" x="239.22" y="-205.19" font-family="Times New Roman,serif" font-size="9.00">44716</text>
</g>
<!-- &#45;1&#45;&gt;44716 -->
<g id="edge13" class="edge">
<title>&#45;1&#45;&gt;44716</title>
<path fill="none" stroke="green" stroke-width="0.26" d="M162.99,-288.63C167,-283.46 172.25,-276.91 177.22,-271.34 188.29,-258.96 201.16,-245.86 212.29,-234.89"/>
<polygon fill="green" stroke="green" stroke-width="0.26" points="214.69,-237.43 219.4,-227.94 209.8,-232.43 214.69,-237.43"/>
</g>
<!-- &#45;2 -->
<g id="node2" class="node">
<title>&#45;2</title>
<polygon fill="lightgray" stroke="black" points="95.97,-127.3 72.47,-127.3 72.47,-108.05 95.97,-108.05 95.97,-127.3"/>
<text text-anchor="middle" x="84.22" y="-114.75" font-family="Times New Roman,serif" font-size="9.00">&#45;2</text>
</g>
<!-- &#45;2&#45;&gt;43808 -->
<g id="edge4" class="edge">
<title>&#45;2&#45;&gt;43808</title>
<path fill="none" stroke="red" stroke-width="1.12" stroke-dasharray="1,5" d="M88.21,-107.87C92.94,-97.4 101.13,-79.3 108.5,-62.99"/>
<polygon fill="red" stroke="red" stroke-width="1.12" points="111.56,-64.73 112.49,-54.18 105.18,-61.84 111.56,-64.73"/>
</g>
<!-- &#45;3 -->
<g id="node3" class="node">
<title>&#45;3</title>
<polygon fill="lightgray" stroke="black" points="211.97,-381.04 188.47,-381.04 188.47,-361.79 211.97,-361.79 211.97,-381.04"/>
<text text-anchor="middle" x="200.22" y="-368.49" font-family="Times New Roman,serif" font-size="9.00">&#45;3</text>
</g>
<!-- 1 -->
<g id="node10" class="node">
<title>1</title>
<ellipse fill="lightblue" stroke="black" cx="200.22" cy="-298.57" rx="14.5" ry="14.5"/>
<text text-anchor="middle" x="200.22" y="-295.64" font-family="Times New Roman,serif" font-size="9.00">1</text>
</g>
<!-- &#45;3&#45;&gt;1 -->
<g id="edge10" class="edge">
<title>&#45;3&#45;&gt;1</title>
<path fill="none" stroke="red" stroke-width="0.55" d="M200.22,-361.44C200.22,-352.05 200.22,-336.9 200.22,-323.95"/>
<polygon fill="red" stroke="red" stroke-width="0.55" points="203.72,-324.15 200.22,-314.15 196.72,-324.15 203.72,-324.15"/>
</g>
<!-- &#45;4 -->
<g id="node4" class="node">
<title>&#45;4</title>
<polygon fill="lightgray" stroke="black" points="313.97,-381.04 290.47,-381.04 290.47,-361.79 313.97,-361.79 313.97,-381.04"/>
<text text-anchor="middle" x="302.22" y="-368.49" font-family="Times New Roman,serif" font-size="9.00">&#45;4</text>
</g>
<!-- &#45;5 -->
<g id="node5" class="node">
<title>&#45;5</title>
<polygon fill="lightgray" stroke="black" points="146.97,-381.04 123.47,-381.04 123.47,-361.79 146.97,-361.79 146.97,-381.04"/>
<text text-anchor="middle" x="135.22" y="-368.49" font-family="Times New Roman,serif" font-size="9.00">&#45;5</text>
</g>
<!-- 0 -->
<g id="node9" class="node">
<title>0</title>
<ellipse fill="lightblue" stroke="black" cx="107.22" cy="-298.57" rx="14.5" ry="14.5"/>
<text text-anchor="middle" x="107.22" y="-295.64" font-family="Times New Roman,serif" font-size="9.00">0</text>
</g>
<!-- &#45;5&#45;&gt;0 -->
<g id="edge16" class="edge">
<title>&#45;5&#45;&gt;0</title>
<path fill="none" stroke="green" stroke-width="0.13" d="M131.68,-361.44C127.75,-351.49 121.26,-335.08 115.95,-321.66"/>
<polygon fill="green" stroke="green" stroke-width="0.13" points="119.36,-320.75 112.43,-312.73 112.85,-323.32 119.36,-320.75"/>
</g>
<!-- &#45;5&#45;&gt;1 -->
<g id="edge5" class="edge">
<title>&#45;5&#45;&gt;1</title>
<path fill="none" stroke="green" stroke-width="0.17" d="M143.68,-361.61C152.23,-352.67 165.78,-338.39 177.22,-325.79 179.66,-323.11 182.21,-320.25 184.7,-317.44"/>
<polygon fill="green" stroke="green" stroke-width="0.17" points="187.22,-319.87 191.18,-310.05 181.95,-315.26 187.22,-319.87"/>
</g>
<!-- &#45;6 -->
<g id="node6" class="node">
<title>&#45;6</title>
<polygon fill="lightgray" stroke="black" points="271.97,-381.04 248.47,-381.04 248.47,-361.79 271.97,-361.79 271.97,-381.04"/>
<text text-anchor="middle" x="260.22" y="-368.49" font-family="Times New Roman,serif" font-size="9.00">&#45;6</text>
</g>
<!-- &#45;6&#45;&gt;1 -->
<g id="edge1" class="edge">
<title>&#45;6&#45;&gt;1</title>
<path fill="none" stroke="green" stroke-width="1.05" d="M252.62,-361.44C243.61,-350.79 228.31,-332.73 216.57,-318.87"/>
<polygon fill="green" stroke="green" stroke-width="1.05" points="219.29,-316.66 210.15,-311.29 213.94,-321.18 219.29,-316.66"/>
</g>
<!-- 41696 -->
<g id="node12" class="node">
<title>41696</title>
<ellipse fill="white" stroke="black" cx="332.22" cy="-298.57" rx="27.22" ry="27.22"/>
<text text-anchor="middle" x="332.22" y="-295.64" font-family="Times New Roman,serif" font-size="9.00">41696</text>
</g>
<!-- &#45;6&#45;&gt;41696 -->
<g id="edge2" class="edge">
<title>&#45;6&#45;&gt;41696</title>
<path fill="none" stroke="green" stroke-width="0.23" stroke-dasharray="1,5" d="M269.34,-361.44C278.52,-352.41 293.1,-338.06 305.91,-325.46"/>
<polygon fill="green" stroke="green" stroke-width="0.23" points="308.28,-328.04 312.95,-318.53 303.37,-323.05 308.28,-328.04"/>
</g>
<!-- 42661 -->
<g id="node13" class="node">
<title>42661</title>
<ellipse fill="white" stroke="black" cx="260.22" cy="-298.57" rx="27.22" ry="27.22"/>
<text text-anchor="middle" x="260.22" y="-295.64" font-family="Times New Roman,serif" font-size="9.00">42661</text>
</g>
<!-- &#45;6&#45;&gt;42661 -->
<g id="edge3" class="edge">
<title>&#45;6&#45;&gt;42661</title>
<path fill="none" stroke="red" stroke-width="0.43" stroke-dasharray="1,5" d="M260.22,-361.44C260.22,-355 260.22,-345.85 260.22,-336.56"/>
<polygon fill="red" stroke="red" stroke-width="0.43" points="263.72,-336.8 260.22,-326.8 256.72,-336.8 263.72,-336.8"/>
</g>
<!-- &#45;7 -->
<g id="node7" class="node">
<title>&#45;7</title>
<polygon fill="lightgray" stroke="black" points="355.97,-381.04 332.47,-381.04 332.47,-361.79 355.97,-361.79 355.97,-381.04"/>
<text text-anchor="middle" x="344.22" y="-368.49" font-family="Times New Roman,serif" font-size="9.00">&#45;7</text>
</g>
<!-- &#45;8 -->
<g id="node8" class="node">
<title>&#45;8</title>
<polygon fill="lightgray" stroke="black" points="397.97,-381.04 374.47,-381.04 374.47,-361.79 397.97,-361.79 397.97,-381.04"/>
<text text-anchor="middle" x="386.22" y="-368.49" font-family="Times New Roman,serif" font-size="9.00">&#45;8</text>
</g>
<!-- 44202 -->
<g id="node14" class="node">
<title>44202</title>
<ellipse fill="white" stroke="black" cx="107.22" cy="-208.12" rx="27.22" ry="27.22"/>
<text text-anchor="middle" x="107.22" y="-205.19" font-family="Times New Roman,serif" font-size="9.00">44202</text>
</g>
<!-- 0&#45;&gt;44202 -->
<g id="edge8" class="edge">
<title>0&#45;&gt;44202</title>
<path fill="none" stroke="red" stroke-width="0.32" d="M107.22,-283.75C107.22,-273.62 107.22,-259.39 107.22,-246.06"/>
<polygon fill="red" stroke="red" stroke-width="0.32" points="110.72,-246.14 107.22,-236.14 103.72,-246.14 110.72,-246.14"/>
</g>
<!-- 44022 -->
<g id="node17" class="node">
<title>44022</title>
<ellipse fill="white" stroke="black" cx="35.22" cy="-208.12" rx="27.22" ry="27.22"/>
<text text-anchor="middle" x="35.22" y="-205.19" font-family="Times New Roman,serif" font-size="9.00">44022</text>
</g>
<!-- 0&#45;&gt;44022 -->
<g id="edge9" class="edge">
<title>0&#45;&gt;44022</title>
<path fill="none" stroke="green" stroke-width="0.25" d="M98.39,-286.72C88.52,-274.59 72.12,-254.45 58.51,-237.73"/>
<polygon fill="green" stroke="green" stroke-width="0.25" points="61.36,-235.68 52.33,-230.13 55.93,-240.1 61.36,-235.68"/>
</g>
<!-- 42661&#45;&gt;44716 -->
<g id="edge14" class="edge">
<title>42661&#45;&gt;44716</title>
<path fill="none" stroke="green" stroke-width="0.19" d="M254.15,-271.98C252.14,-263.53 249.87,-253.97 247.72,-244.9"/>
<polygon fill="green" stroke="green" stroke-width="0.19" points="251.14,-244.15 245.42,-235.23 244.33,-245.76 251.14,-244.15"/>
</g>
<!-- 44656 -->
<g id="node16" class="node">
<title>44656</title>
<ellipse fill="white" stroke="black" cx="27.22" cy="-117.67" rx="27.22" ry="27.22"/>
<text text-anchor="middle" x="27.22" y="-114.75" font-family="Times New Roman,serif" font-size="9.00">44656</text>
</g>
<!-- 44656&#45;&gt;43808 -->
<g id="edge12" class="edge">
<title>44656&#45;&gt;43808</title>
<path fill="none" stroke="red" stroke-width="0.31" stroke-dasharray="1,5" d="M46.85,-98.77C61.22,-85.67 80.9,-67.73 96.82,-53.21"/>
<polygon fill="red" stroke="red" stroke-width="0.31" points="98.92,-56.04 103.95,-46.71 94.2,-50.86 98.92,-56.04"/>
</g>
<!-- 44022&#45;&gt;43808 -->
<g id="edge6" class="edge">
<title>44022&#45;&gt;43808</title>
<path fill="none" stroke="red" stroke-width="0.45" stroke-dasharray="1,5" d="M56.48,-190.86C74.77,-176.42 99.15,-155.94 105.22,-144.89 118.6,-120.57 123.15,-89.37 124.46,-65.36"/>
<polygon fill="red" stroke="red" stroke-width="0.45" points="127.95,-65.68 124.83,-55.56 120.95,-65.42 127.95,-65.68"/>
</g>
<!-- 44022&#45;&gt;44656 -->
<g id="edge11" class="edge">
<title>44022&#45;&gt;44656</title>
<path fill="none" stroke="green" stroke-width="0.4" d="M32.82,-180.58C32.11,-172.71 31.32,-163.94 30.56,-155.54"/>
<polygon fill="green" stroke="green" stroke-width="0.4" points="34.06,-155.43 29.68,-145.79 27.09,-156.06 34.06,-155.43"/>
</g>
<!-- 44726 -->
<g id="node18" class="node">
<title>44726</title>
<ellipse fill="white" stroke="black" cx="217.22" cy="-117.67" rx="27.22" ry="27.22"/>
<text text-anchor="middle" x="217.22" y="-114.75" font-family="Times New Roman,serif" font-size="9.00">44726</text>
</g>
<!-- 44726&#45;&gt;43808 -->
<g id="edge15" class="edge">
<title>44726&#45;&gt;43808</title>
<path fill="none" stroke="green" stroke-width="0.28" d="M197.95,-98.34C184.45,-85.5 166.22,-68.17 151.27,-53.94"/>
<polygon fill="green" stroke="green" stroke-width="0.28" points="153.75,-51.47 144.09,-47.12 148.92,-56.55 153.75,-51.47"/>
</g>
</g>
</svg>
