<?xml version="1.0" encoding="UTF-8" standalone="no"?>
<!DOCTYPE svg PUBLIC "-//W3C//DTD SVG 1.1//EN"
 "http://www.w3.org/Graphics/SVG/1.1/DTD/svg11.dtd">
<!-- Generated by graphviz version 9.0.0 (20230911.1827)
 -->
<!-- Pages: 1 -->
<svg width="257pt" height="235pt"
 viewBox="0.00 0.00 257.25 234.95" xmlns="http://www.w3.org/2000/svg" xmlns:xlink="http://www.w3.org/1999/xlink">
<g id="graph0" class="graph" transform="scale(1 1) rotate(0) translate(4 230.95)">
<polygon fill="white" stroke="none" points="-4,4 -4,-230.95 253.25,-230.95 253.25,4 -4,4"/>
<!-- &#45;1 -->
<g id="node1" class="node">
<title>&#45;1</title>
<polygon fill="lightgray" stroke="black" points="23.5,-226.95 0,-226.95 0,-207.7 23.5,-207.7 23.5,-226.95"/>
<text text-anchor="middle" x="11.75" y="-214.4" font-family="Times New Roman,serif" font-size="9.00">&#45;1</text>
</g>
<!-- &#45;2 -->
<g id="node2" class="node">
<title>&#45;2</title>
<polygon fill="lightgray" stroke="black" points="111.5,-226.95 88,-226.95 88,-207.7 111.5,-207.7 111.5,-226.95"/>
<text text-anchor="middle" x="99.75" y="-214.4" font-family="Times New Roman,serif" font-size="9.00">&#45;2</text>
</g>
<!-- 0 -->
<g id="node9" class="node">
<title>0</title>
<ellipse fill="lightblue" stroke="black" cx="53.75" cy="-154.02" rx="14.5" ry="14.5"/>
<text text-anchor="middle" x="53.75" y="-151.1" font-family="Times New Roman,serif" font-size="9.00">0</text>
</g>
<!-- &#45;2&#45;&gt;0 -->
<g id="edge9" class="edge">
<title>&#45;2&#45;&gt;0</title>
<path fill="none" stroke="red" stroke-width="1.26" d="M92.96,-207.28C86.75,-199 77.33,-186.45 69.28,-175.72"/>
<polygon fill="red" stroke="red" stroke-width="1.26" points="72.08,-173.62 63.28,-167.72 66.48,-177.82 72.08,-173.62"/>
</g>
<!-- 22 -->
<g id="node14" class="node">
<title>22</title>
<ellipse fill="white" stroke="black" cx="103.75" cy="-154.02" rx="17.68" ry="17.68"/>
<text text-anchor="middle" x="103.75" y="-151.1" font-family="Times New Roman,serif" font-size="9.00">22</text>
</g>
<!-- &#45;2&#45;&gt;22 -->
<g id="edge4" class="edge">
<title>&#45;2&#45;&gt;22</title>
<path fill="none" stroke="red" stroke-width="0.59" d="M100.34,-207.28C100.77,-200.72 101.37,-191.48 101.95,-182.59"/>
<polygon fill="red" stroke="red" stroke-width="0.59" points="105.44,-182.84 102.6,-172.64 98.46,-182.39 105.44,-182.84"/>
</g>
<!-- &#45;3 -->
<g id="node3" class="node">
<title>&#45;3</title>
<polygon fill="lightgray" stroke="black" points="153.5,-226.95 130,-226.95 130,-207.7 153.5,-207.7 153.5,-226.95"/>
<text text-anchor="middle" x="141.75" y="-214.4" font-family="Times New Roman,serif" font-size="9.00">&#45;3</text>
</g>
<!-- &#45;4 -->
<g id="node4" class="node">
<title>&#45;4</title>
<polygon fill="lightgray" stroke="black" points="65.5,-226.95 42,-226.95 42,-207.7 65.5,-207.7 65.5,-226.95"/>
<text text-anchor="middle" x="53.75" y="-214.4" font-family="Times New Roman,serif" font-size="9.00">&#45;4</text>
</g>
<!-- &#45;4&#45;&gt;0 -->
<g id="edge6" class="edge">
<title>&#45;4&#45;&gt;0</title>
<path fill="none" stroke="red" stroke-width="1.81" d="M53.75,-207.28C53.75,-200.48 53.75,-190.79 53.75,-181.59"/>
<polygon fill="red" stroke="red" stroke-width="1.81" points="57.25,-181.61 53.75,-171.61 50.25,-181.61 57.25,-181.61"/>
</g>
<!-- &#45;5 -->
<g id="node5" class="node">
<title>&#45;5</title>
<polygon fill="lightgray" stroke="black" points="162.5,-92.29 139,-92.29 139,-73.04 162.5,-73.04 162.5,-92.29"/>
<text text-anchor="middle" x="150.75" y="-79.74" font-family="Times New Roman,serif" font-size="9.00">&#45;5</text>
</g>
<!-- 2 -->
<g id="node11" class="node">
<title>2</title>
<ellipse fill="lightblue" stroke="black" cx="187.75" cy="-14.5" rx="14.5" ry="14.5"/>
<text text-anchor="middle" x="187.75" y="-11.57" font-family="Times New Roman,serif" font-size="9.00">2</text>
</g>
<!-- &#45;5&#45;&gt;2 -->
<g id="edge1" class="edge">
<title>&#45;5&#45;&gt;2</title>
<path fill="none" stroke="green" stroke-width="3.01" d="M155.74,-72.74C160.45,-64.33 167.72,-51.32 174.14,-39.83"/>
<polygon fill="green" stroke="green" stroke-width="3.01" points="177.04,-41.82 178.87,-31.38 170.93,-38.4 177.04,-41.82"/>
</g>
<!-- 3 -->
<g id="node12" class="node">
<title>3</title>
<ellipse fill="lightblue" stroke="black" cx="140.75" cy="-14.5" rx="14.5" ry="14.5"/>
<text text-anchor="middle" x="140.75" y="-11.57" font-family="Times New Roman,serif" font-size="9.00">3</text>
</g>
<!-- &#45;5&#45;&gt;3 -->
<g id="edge2" class="edge">
<title>&#45;5&#45;&gt;3</title>
<path fill="none" stroke="red" stroke-width="2.74" d="M149.4,-72.74C148.26,-65.17 146.55,-53.87 144.95,-43.31"/>
<polygon fill="red" stroke="red" stroke-width="2.74" points="148.42,-42.8 143.46,-33.43 141.49,-43.84 148.42,-42.8"/>
</g>
<!-- &#45;6 -->
<g id="node6" class="node">
<title>&#45;6</title>
<polygon fill="lightgray" stroke="black" points="204.5,-92.29 181,-92.29 181,-73.04 204.5,-73.04 204.5,-92.29"/>
<text text-anchor="middle" x="192.75" y="-79.74" font-family="Times New Roman,serif" font-size="9.00">&#45;6</text>
</g>
<!-- 1 -->
<g id="node10" class="node">
<title>1</title>
<ellipse fill="lightblue" stroke="black" cx="234.75" cy="-14.5" rx="14.5" ry="14.5"/>
<text text-anchor="middle" x="234.75" y="-11.57" font-family="Times New Roman,serif" font-size="9.00">1</text>
</g>
<!-- &#45;6&#45;&gt;1 -->
<g id="edge11" class="edge">
<title>&#45;6&#45;&gt;1</title>
<path fill="none" stroke="green" stroke-width="0.29" d="M198.41,-72.74C204.34,-63.41 213.84,-48.44 221.64,-36.15"/>
<polygon fill="green" stroke="green" stroke-width="0.29" points="224.55,-38.09 226.96,-27.77 218.64,-34.34 224.55,-38.09"/>
</g>
<!-- &#45;6&#45;&gt;3 -->
<g id="edge10" class="edge">
<title>&#45;6&#45;&gt;3</title>
<path fill="none" stroke="red" stroke-width="0.51" d="M185.74,-72.74C178.15,-63.09 165.83,-47.41 155.99,-34.9"/>
<polygon fill="red" stroke="red" stroke-width="0.51" points="158.79,-32.79 149.86,-27.09 153.29,-37.11 158.79,-32.79"/>
</g>
<!-- &#45;7 -->
<g id="node7" class="node">
<title>&#45;7</title>
<polygon fill="lightgray" stroke="black" points="195.5,-226.95 172,-226.95 172,-207.7 195.5,-207.7 195.5,-226.95"/>
<text text-anchor="middle" x="183.75" y="-214.4" font-family="Times New Roman,serif" font-size="9.00">&#45;7</text>
</g>
<!-- &#45;8 -->
<g id="node8" class="node">
<title>&#45;8</title>
<polygon fill="lightgray" stroke="black" points="246.5,-92.29 223,-92.29 223,-73.04 246.5,-73.04 246.5,-92.29"/>
<text text-anchor="middle" x="234.75" y="-79.74" font-family="Times New Roman,serif" font-size="9.00">&#45;8</text>
</g>
<!-- &#45;8&#45;&gt;1 -->
<g id="edge3" class="edge">
<title>&#45;8&#45;&gt;1</title>
<path fill="none" stroke="green" stroke-width="0.71" d="M234.75,-72.74C234.75,-64.38 234.75,-51.5 234.75,-40.06"/>
<polygon fill="green" stroke="green" stroke-width="0.71" points="238.25,-40.42 234.75,-30.42 231.25,-40.42 238.25,-40.42"/>
</g>
<!-- &#45;8&#45;&gt;2 -->
<g id="edge5" class="edge">
<title>&#45;8&#45;&gt;2</title>
<path fill="none" stroke="green" stroke-width="0.38" d="M228.41,-72.74C221.64,-63.21 210.68,-47.78 201.84,-35.34"/>
<polygon fill="green" stroke="green" stroke-width="0.38" points="204.86,-33.54 196.21,-27.41 199.15,-37.59 204.86,-33.54"/>
</g>
<!-- 52 -->
<g id="node13" class="node">
<title>52</title>
<ellipse fill="white" stroke="black" cx="103.75" cy="-82.67" rx="17.68" ry="17.68"/>
<text text-anchor="middle" x="103.75" y="-79.74" font-family="Times New Roman,serif" font-size="9.00">52</text>
</g>
<!-- 52&#45;&gt;3 -->
<g id="edge8" class="edge">
<title>52&#45;&gt;3</title>
<path fill="none" stroke="green" stroke-width="0.1" stroke-dasharray="1,5" d="M112.15,-66.65C117.12,-57.75 123.51,-46.34 128.98,-36.55"/>
<polygon fill="green" stroke="green" stroke-width="0.1" points="131.97,-38.37 133.8,-27.93 125.86,-34.95 131.97,-38.37"/>
</g>
<!-- 22&#45;&gt;52 -->
<g id="edge7" class="edge">
<title>22&#45;&gt;52</title>
<path fill="none" stroke="red" stroke-width="0.13" d="M103.75,-135.88C103.75,-128.24 103.75,-119.05 103.75,-110.53"/>
<polygon fill="red" stroke="red" stroke-width="0.13" points="107.25,-110.81 103.75,-100.81 100.25,-110.81 107.25,-110.81"/>
</g>
</g>
</svg>
