<?xml version="1.0" encoding="UTF-8" standalone="no"?>
<!DOCTYPE svg PUBLIC "-//W3C//DTD SVG 1.1//EN"
 "http://www.w3.org/Graphics/SVG/1.1/DTD/svg11.dtd">
<!-- Generated by graphviz version 9.0.0 (20230911.1827)
 -->
<!-- Pages: 1 -->
<svg width="328pt" height="92pt"
 viewBox="0.00 0.00 327.50 92.24" xmlns="http://www.w3.org/2000/svg" xmlns:xlink="http://www.w3.org/1999/xlink">
<g id="graph0" class="graph" transform="scale(1 1) rotate(0) translate(4 88.24)">
<polygon fill="white" stroke="none" points="-4,4 -4,-88.24 323.5,-88.24 323.5,4 -4,4"/>
<!-- &#45;1 -->
<g id="node1" class="node">
<title>&#45;1</title>
<polygon fill="lightgray" stroke="black" points="23.5,-84.24 0,-84.24 0,-64.99 23.5,-64.99 23.5,-84.24"/>
<text text-anchor="middle" x="11.75" y="-71.69" font-family="Times New Roman,serif" font-size="9.00">&#45;1</text>
</g>
<!-- &#45;2 -->
<g id="node2" class="node">
<title>&#45;2</title>
<polygon fill="lightgray" stroke="black" points="65.5,-84.24 42,-84.24 42,-64.99 65.5,-64.99 65.5,-84.24"/>
<text text-anchor="middle" x="53.75" y="-71.69" font-family="Times New Roman,serif" font-size="9.00">&#45;2</text>
</g>
<!-- &#45;3 -->
<g id="node3" class="node">
<title>&#45;3</title>
<polygon fill="lightgray" stroke="black" points="107.5,-84.24 84,-84.24 84,-64.99 107.5,-64.99 107.5,-84.24"/>
<text text-anchor="middle" x="95.75" y="-71.69" font-family="Times New Roman,serif" font-size="9.00">&#45;3</text>
</g>
<!-- 0 -->
<g id="node9" class="node">
<title>0</title>
<ellipse fill="lightblue" stroke="black" cx="92.75" cy="-14.5" rx="14.5" ry="14.5"/>
<text text-anchor="middle" x="92.75" y="-11.57" font-family="Times New Roman,serif" font-size="9.00">0</text>
</g>
<!-- &#45;3&#45;&gt;0 -->
<g id="edge3" class="edge">
<title>&#45;3&#45;&gt;0</title>
<path fill="none" stroke="green" stroke-width="0.12" d="M95.28,-64.54C94.93,-57.74 94.43,-48.13 93.97,-39.21"/>
<polygon fill="green" stroke="green" stroke-width="0.12" points="97.48,-39.26 93.47,-29.45 90.49,-39.62 97.48,-39.26"/>
</g>
<!-- 1 -->
<g id="node10" class="node">
<title>1</title>
<ellipse fill="lightblue" stroke="black" cx="139.75" cy="-14.5" rx="14.5" ry="14.5"/>
<text text-anchor="middle" x="139.75" y="-11.57" font-family="Times New Roman,serif" font-size="9.00">1</text>
</g>
<!-- &#45;3&#45;&gt;1 -->
<g id="edge2" class="edge">
<title>&#45;3&#45;&gt;1</title>
<path fill="none" stroke="red" stroke-width="0.34" d="M102.62,-64.54C108.61,-56.63 117.48,-44.91 125.05,-34.91"/>
<polygon fill="red" stroke="red" stroke-width="0.34" points="127.71,-37.2 130.95,-27.12 122.13,-32.98 127.71,-37.2"/>
</g>
<!-- &#45;4 -->
<g id="node4" class="node">
<title>&#45;4</title>
<polygon fill="lightgray" stroke="black" points="193.5,-84.24 170,-84.24 170,-64.99 193.5,-64.99 193.5,-84.24"/>
<text text-anchor="middle" x="181.75" y="-71.69" font-family="Times New Roman,serif" font-size="9.00">&#45;4</text>
</g>
<!-- &#45;5 -->
<g id="node5" class="node">
<title>&#45;5</title>
<polygon fill="lightgray" stroke="black" points="235.5,-84.24 212,-84.24 212,-64.99 235.5,-64.99 235.5,-84.24"/>
<text text-anchor="middle" x="223.75" y="-71.69" font-family="Times New Roman,serif" font-size="9.00">&#45;5</text>
</g>
<!-- &#45;6 -->
<g id="node6" class="node">
<title>&#45;6</title>
<polygon fill="lightgray" stroke="black" points="277.5,-84.24 254,-84.24 254,-64.99 277.5,-64.99 277.5,-84.24"/>
<text text-anchor="middle" x="265.75" y="-71.69" font-family="Times New Roman,serif" font-size="9.00">&#45;6</text>
</g>
<!-- &#45;7 -->
<g id="node7" class="node">
<title>&#45;7</title>
<polygon fill="lightgray" stroke="black" points="319.5,-84.24 296,-84.24 296,-64.99 319.5,-64.99 319.5,-84.24"/>
<text text-anchor="middle" x="307.75" y="-71.69" font-family="Times New Roman,serif" font-size="9.00">&#45;7</text>
</g>
<!-- &#45;8 -->
<g id="node8" class="node">
<title>&#45;8</title>
<polygon fill="lightgray" stroke="black" points="151.5,-84.24 128,-84.24 128,-64.99 151.5,-64.99 151.5,-84.24"/>
<text text-anchor="middle" x="139.75" y="-71.69" font-family="Times New Roman,serif" font-size="9.00">&#45;8</text>
</g>
<!-- &#45;8&#45;&gt;1 -->
<g id="edge1" class="edge">
<title>&#45;8&#45;&gt;1</title>
<path fill="none" stroke="green" stroke-width="0.32" d="M139.75,-64.54C139.75,-57.82 139.75,-48.34 139.75,-39.5"/>
<polygon fill="green" stroke="green" stroke-width="0.32" points="143.25,-39.76 139.75,-29.76 136.25,-39.76 143.25,-39.76"/>
</g>
</g>
</svg>
