<?xml version="1.0" encoding="UTF-8" standalone="no"?>
<!DOCTYPE svg PUBLIC "-//W3C//DTD SVG 1.1//EN"
 "http://www.w3.org/Graphics/SVG/1.1/DTD/svg11.dtd">
<!-- Generated by graphviz version 9.0.0 (20230911.1827)
 -->
<!-- Pages: 1 -->
<svg width="538pt" height="286pt"
 viewBox="0.00 0.00 537.50 285.86" xmlns="http://www.w3.org/2000/svg" xmlns:xlink="http://www.w3.org/1999/xlink">
<g id="graph0" class="graph" transform="scale(1 1) rotate(0) translate(4 281.86)">
<polygon fill="white" stroke="none" points="-4,4 -4,-281.86 533.5,-281.86 533.5,4 -4,4"/>
<!-- &#45;1 -->
<g id="node1" class="node">
<title>&#45;1</title>
<polygon fill="lightgray" stroke="black" points="122.85,-201.83 99.35,-201.83 99.35,-182.58 122.85,-182.58 122.85,-201.83"/>
<text text-anchor="middle" x="111.1" y="-189.28" font-family="Times New Roman,serif" font-size="9.00">&#45;1</text>
</g>
<!-- 1 -->
<g id="node10" class="node">
<title>1</title>
<ellipse fill="lightblue" stroke="black" cx="151.1" cy="-111.31" rx="14.5" ry="14.5"/>
<text text-anchor="middle" x="151.1" y="-108.38" font-family="Times New Roman,serif" font-size="9.00">1</text>
</g>
<!-- &#45;1&#45;&gt;1 -->
<g id="edge9" class="edge">
<title>&#45;1&#45;&gt;1</title>
<path fill="none" stroke="red" stroke-width="0.93" stroke-dasharray="1,5" d="M115.69,-182.16C121.49,-170.71 131.68,-150.61 139.65,-134.89"/>
<polygon fill="red" stroke="red" stroke-width="0.93" points="142.69,-136.63 144.09,-126.13 136.45,-133.47 142.69,-136.63"/>
</g>
<!-- &#45;2 -->
<g id="node2" class="node">
<title>&#45;2</title>
<polygon fill="lightgray" stroke="black" points="202.85,-201.83 179.35,-201.83 179.35,-182.58 202.85,-182.58 202.85,-201.83"/>
<text text-anchor="middle" x="191.1" y="-189.28" font-family="Times New Roman,serif" font-size="9.00">&#45;2</text>
</g>
<!-- &#45;2&#45;&gt;1 -->
<g id="edge5" class="edge">
<title>&#45;2&#45;&gt;1</title>
<path fill="none" stroke="green" stroke-width="0.24" stroke-dasharray="1,5" d="M186.51,-182.16C180.59,-170.49 170.12,-149.83 162.09,-133.99"/>
<polygon fill="green" stroke="green" stroke-width="0.24" points="165.28,-132.54 157.64,-125.2 159.04,-135.71 165.28,-132.54"/>
</g>
<!-- 2 -->
<g id="node11" class="node">
<title>2</title>
<ellipse fill="lightblue" stroke="black" cx="315.1" cy="-111.31" rx="14.5" ry="14.5"/>
<text text-anchor="middle" x="315.1" y="-108.38" font-family="Times New Roman,serif" font-size="9.00">2</text>
</g>
<!-- &#45;2&#45;&gt;2 -->
<g id="edge14" class="edge">
<title>&#45;2&#45;&gt;2</title>
<path fill="none" stroke="red" stroke-width="0.18" stroke-dasharray="1,5" d="M195.83,-182.32C199.56,-175.96 205.28,-167.54 212.1,-161.8 235.95,-141.74 269.32,-127.66 291.54,-119.78"/>
<polygon fill="red" stroke="red" stroke-width="0.18" points="292.58,-123.12 300.92,-116.58 290.33,-116.49 292.58,-123.12"/>
</g>
<!-- &#45;3 -->
<g id="node3" class="node">
<title>&#45;3</title>
<polygon fill="lightgray" stroke="black" points="194.85,-277.86 171.35,-277.86 171.35,-258.61 194.85,-258.61 194.85,-277.86"/>
<text text-anchor="middle" x="183.1" y="-265.31" font-family="Times New Roman,serif" font-size="9.00">&#45;3</text>
</g>
<!-- 0 -->
<g id="node9" class="node">
<title>0</title>
<ellipse fill="lightblue" stroke="black" cx="357.1" cy="-192.21" rx="14.5" ry="14.5"/>
<text text-anchor="middle" x="357.1" y="-189.28" font-family="Times New Roman,serif" font-size="9.00">0</text>
</g>
<!-- &#45;3&#45;&gt;0 -->
<g id="edge13" class="edge">
<title>&#45;3&#45;&gt;0</title>
<path fill="none" stroke="red" stroke-width="0.4" d="M195.31,-265.65C221.53,-261.8 284.45,-250.19 329.1,-222.61 333.66,-219.8 337.98,-216.06 341.8,-212.2"/>
<polygon fill="red" stroke="red" stroke-width="0.4" points="344.36,-214.58 348.45,-204.81 339.16,-209.9 344.36,-214.58"/>
</g>
<!-- &#45;3&#45;&gt;1 -->
<g id="edge12" class="edge">
<title>&#45;3&#45;&gt;1</title>
<path fill="none" stroke="green" stroke-width="0.45" d="M170.94,-265.96C135.22,-261.93 31.89,-248.23 12.1,-222.61 -4.43,-201.23 -3.48,-183.89 12.1,-161.8 37.99,-125.1 93.61,-115.46 126.1,-113.02"/>
<polygon fill="green" stroke="green" stroke-width="0.45" points="126.08,-116.53 135.86,-112.47 125.68,-109.54 126.08,-116.53"/>
</g>
<!-- &#45;3&#45;&gt;2 -->
<g id="edge4" class="edge">
<title>&#45;3&#45;&gt;2</title>
<path fill="none" stroke="red" stroke-width="2.57" d="M195.04,-264.12C221.31,-257.01 282.79,-238.98 296.1,-222.61 315.08,-199.26 318.05,-163.8 317.43,-139.42"/>
<polygon fill="red" stroke="red" stroke-width="2.57" points="320.95,-139.57 316.91,-129.77 313.96,-139.95 320.95,-139.57"/>
</g>
<!-- 126266 -->
<g id="node14" class="node">
<title>126266</title>
<ellipse fill="white" stroke="black" cx="51.1" cy="-192.21" rx="30.41" ry="30.41"/>
<text text-anchor="middle" x="51.1" y="-189.28" font-family="Times New Roman,serif" font-size="9.00">126266</text>
</g>
<!-- &#45;3&#45;&gt;126266 -->
<g id="edge16" class="edge">
<title>&#45;3&#45;&gt;126266</title>
<path fill="none" stroke="red" stroke-width="0.12" d="M170.96,-262.33C152.81,-254.8 117.79,-239.47 90.1,-222.61 87.65,-221.13 85.17,-219.52 82.71,-217.85"/>
<polygon fill="red" stroke="red" stroke-width="0.12" points="84.82,-215.05 74.64,-212.13 80.77,-220.76 84.82,-215.05"/>
</g>
<!-- &#45;4 -->
<g id="node4" class="node">
<title>&#45;4</title>
<polygon fill="lightgray" stroke="black" points="452.85,-277.86 429.35,-277.86 429.35,-258.61 452.85,-258.61 452.85,-277.86"/>
<text text-anchor="middle" x="441.1" y="-265.31" font-family="Times New Roman,serif" font-size="9.00">&#45;4</text>
</g>
<!-- &#45;4&#45;&gt;0 -->
<g id="edge3" class="edge">
<title>&#45;4&#45;&gt;0</title>
<path fill="none" stroke="red" stroke-width="5" d="M429.12,-259.89C416.24,-251.69 395.56,-237.58 380.1,-222.61 378.35,-220.92 376.62,-219.1 374.95,-217.21"/>
<polygon fill="red" stroke="red" stroke-width="5" points="378.5,-214.65 368.84,-209.58 371.67,-220.12 378.5,-214.65"/>
</g>
<!-- &#45;4&#45;&gt;2 -->
<g id="edge6" class="edge">
<title>&#45;4&#45;&gt;2</title>
<path fill="none" stroke="red" stroke-width="0.42" stroke-dasharray="1,5" d="M442.06,-258.24C443.66,-238.56 444.73,-191.09 422.1,-161.8 401.82,-135.56 364.35,-122.71 339.57,-116.81"/>
<polygon fill="red" stroke="red" stroke-width="0.42" points="340.64,-113.46 330.12,-114.76 339.16,-120.3 340.64,-113.46"/>
</g>
<!-- 127616 -->
<g id="node12" class="node">
<title>127616</title>
<ellipse fill="white" stroke="black" cx="499.1" cy="-192.21" rx="30.41" ry="30.41"/>
<text text-anchor="middle" x="499.1" y="-189.28" font-family="Times New Roman,serif" font-size="9.00">127616</text>
</g>
<!-- &#45;4&#45;&gt;127616 -->
<g id="edge19" class="edge">
<title>&#45;4&#45;&gt;127616</title>
<path fill="none" stroke="green" stroke-width="0.2" d="M448.21,-258.16C454.81,-249.74 465.03,-236.7 474.58,-224.5"/>
<polygon fill="green" stroke="green" stroke-width="0.2" points="477.12,-226.93 480.53,-216.9 471.61,-222.62 477.12,-226.93"/>
</g>
<!-- &#45;5 -->
<g id="node5" class="node">
<title>&#45;5</title>
<polygon fill="lightgray" stroke="black" points="244.85,-201.83 221.35,-201.83 221.35,-182.58 244.85,-182.58 244.85,-201.83"/>
<text text-anchor="middle" x="233.1" y="-189.28" font-family="Times New Roman,serif" font-size="9.00">&#45;5</text>
</g>
<!-- &#45;5&#45;&gt;1 -->
<g id="edge1" class="edge">
<title>&#45;5&#45;&gt;1</title>
<path fill="none" stroke="red" stroke-width="1.11" d="M227.61,-182.24C223.67,-176.16 218.03,-168.11 212.1,-161.8 199.86,-148.79 184.18,-136.13 171.78,-126.88"/>
<polygon fill="red" stroke="red" stroke-width="1.11" points="174.17,-124.29 164.02,-121.23 170.05,-129.95 174.17,-124.29"/>
</g>
<!-- &#45;5&#45;&gt;2 -->
<g id="edge2" class="edge">
<title>&#45;5&#45;&gt;2</title>
<path fill="none" stroke="green" stroke-width="0.59" d="M238.59,-182.24C242.53,-176.16 248.17,-168.11 254.1,-161.8 266.46,-148.66 282.33,-135.88 294.79,-126.6"/>
<polygon fill="green" stroke="green" stroke-width="0.59" points="296.78,-129.48 302.81,-120.77 292.66,-123.82 296.78,-129.48"/>
</g>
<!-- &#45;6 -->
<g id="node6" class="node">
<title>&#45;6</title>
<polygon fill="lightgray" stroke="black" points="412.85,-201.83 389.35,-201.83 389.35,-182.58 412.85,-182.58 412.85,-201.83"/>
<text text-anchor="middle" x="401.1" y="-189.28" font-family="Times New Roman,serif" font-size="9.00">&#45;6</text>
</g>
<!-- &#45;6&#45;&gt;2 -->
<g id="edge10" class="edge">
<title>&#45;6&#45;&gt;2</title>
<path fill="none" stroke="green" stroke-width="1.48" d="M395.67,-182.19C391.76,-176.08 386.12,-168.02 380.1,-161.8 367.21,-148.52 350.58,-135.92 337.36,-126.76"/>
<polygon fill="green" stroke="green" stroke-width="1.48" points="339.33,-123.86 329.08,-121.18 335.42,-129.67 339.33,-123.86"/>
</g>
<!-- &#45;7 -->
<g id="node7" class="node">
<title>&#45;7</title>
<polygon fill="lightgray" stroke="black" points="286.85,-201.83 263.35,-201.83 263.35,-182.58 286.85,-182.58 286.85,-201.83"/>
<text text-anchor="middle" x="275.1" y="-189.28" font-family="Times New Roman,serif" font-size="9.00">&#45;7</text>
</g>
<!-- &#45;7&#45;&gt;1 -->
<g id="edge11" class="edge">
<title>&#45;7&#45;&gt;1</title>
<path fill="none" stroke="green" stroke-width="0.13" stroke-dasharray="1,5" d="M270.37,-182.32C266.63,-175.96 260.91,-167.54 254.1,-161.8 230.24,-141.74 196.87,-127.66 174.65,-119.78"/>
<polygon fill="green" stroke="green" stroke-width="0.13" points="175.8,-116.47 165.2,-116.56 173.54,-123.09 175.8,-116.47"/>
</g>
<!-- &#45;7&#45;&gt;2 -->
<g id="edge15" class="edge">
<title>&#45;7&#45;&gt;2</title>
<path fill="none" stroke="red" stroke-width="0.23" d="M279.69,-182.16C285.6,-170.49 296.08,-149.83 304.1,-133.99"/>
<polygon fill="red" stroke="red" stroke-width="0.23" points="307.16,-135.7 308.56,-125.2 300.92,-132.53 307.16,-135.7"/>
</g>
<!-- &#45;8 -->
<g id="node8" class="node">
<title>&#45;8</title>
<polygon fill="lightgray" stroke="black" points="265.85,-277.86 242.35,-277.86 242.35,-258.61 265.85,-258.61 265.85,-277.86"/>
<text text-anchor="middle" x="254.1" y="-265.31" font-family="Times New Roman,serif" font-size="9.00">&#45;8</text>
</g>
<!-- &#45;8&#45;&gt;0 -->
<g id="edge8" class="edge">
<title>&#45;8&#45;&gt;0</title>
<path fill="none" stroke="green" stroke-width="0.34" stroke-dasharray="1,5" d="M266.17,-261.36C281.56,-253.59 308.61,-238.96 329.1,-222.61 333.22,-219.33 337.32,-215.45 341.07,-211.61"/>
<polygon fill="green" stroke="green" stroke-width="0.34" points="343.57,-214.06 347.79,-204.35 338.43,-209.3 343.57,-214.06"/>
</g>
<!-- &#45;8&#45;&gt;1 -->
<g id="edge7" class="edge">
<title>&#45;8&#45;&gt;1</title>
<path fill="none" stroke="red" stroke-width="0.6" d="M242.13,-264.48C223.51,-259.51 187.91,-247.23 170.1,-222.61 151.89,-197.45 149.01,-160.71 149.42,-136.65"/>
<polygon fill="red" stroke="red" stroke-width="0.6" points="152.91,-137.01 149.79,-126.88 145.91,-136.74 152.91,-137.01"/>
</g>
<!-- 126930 -->
<g id="node13" class="node">
<title>126930</title>
<ellipse fill="white" stroke="black" cx="315.1" cy="-30.41" rx="30.41" ry="30.41"/>
<text text-anchor="middle" x="315.1" y="-27.48" font-family="Times New Roman,serif" font-size="9.00">126930</text>
</g>
<!-- 2&#45;&gt;126930 -->
<g id="edge18" class="edge">
<title>2&#45;&gt;126930</title>
<path fill="none" stroke="green" stroke-width="0.37" d="M315.1,-96.56C315.1,-89.52 315.1,-80.54 315.1,-71.51"/>
<polygon fill="green" stroke="green" stroke-width="0.37" points="318.6,-71.56 315.1,-61.56 311.6,-71.56 318.6,-71.56"/>
</g>
<!-- 127616&#45;&gt;2 -->
<g id="edge20" class="edge">
<title>127616&#45;&gt;2</title>
<path fill="none" stroke="red" stroke-width="0.23" stroke-dasharray="1,5" d="M475.08,-173.6C468.77,-169.41 461.83,-165.18 455.1,-161.8 416.06,-142.24 367.4,-126.9 338.94,-118.76"/>
<polygon fill="red" stroke="red" stroke-width="0.23" points="339.99,-115.42 329.41,-116.09 338.1,-122.16 339.99,-115.42"/>
</g>
<!-- 126266&#45;&gt;1 -->
<g id="edge17" class="edge">
<title>126266&#45;&gt;1</title>
<path fill="none" stroke="green" stroke-width="0.2" d="M74.8,-172.51C92.31,-158.69 115.83,-140.13 132.11,-127.29"/>
<polygon fill="green" stroke="green" stroke-width="0.2" points="133.97,-130.28 139.65,-121.34 129.63,-124.79 133.97,-130.28"/>
</g>
</g>
</svg>
